# File produced by Open Asset Import Library (http://www.assimp.sf.net)
# (assimp v3.1.187496374)

mtllib frieze.obj.mtl

# 342 vertex positions
v  -1.49649 -13.3033 0
v  -1.49649 -13.2658 0
v  -1.47159 -13.2658 0
v  1.49649 -13.2658 0
v  -1.49649 -26.7342 0
v  1.49649 -26.7342 0
v  -1.47159 -13.2658 29.9298
v  -1.49649 -13.2658 29.9298
v  -1.49649 -13.3033 29.9298
v  -1.49649 -26.7342 29.9298
v  1.49649 -26.7342 29.9298
v  1.49649 -13.3034 29.9298
v  1.42166 -13.2658 29.9298
v  1.49649 -13.2658 29.9298
v  1.47153 -13.2658 29.9298
v  -1.47159 -13.2658 1.01007
v  -0.748281 -12.1748 29.9298
v  -0.748294 -12.1748 0.0128078
v  -1.47159 -13.2658 0.0128212
v  -1.47159 -13.2658 1.01007
v  -1.47159 -13.2658 29.9298
v  0.748198 -12.1748 0.0128078
v  0.74821 -12.1748 29.9298
v  1.47153 -13.2658 29.9298
v  1.47153 -13.2658 28.9329
v  1.47151 -13.2658 0.012826
v  1.42166 -13.2658 29.9298
v  1.42166 -13.2658 29.9298
v  -1.42171 -13.2658 0.0128212
v  1.49645 0.240284 0.0128784
v  1.49646 0.240284 29.9298
v  0.748217 -0.888353 29.9298
v  0.748208 -0.888355 0.0128794
v  -0.748284 -0.888353 0.0128746
v  -0.748276 -0.888353 29.9298
v  -1.49652 0.240286 29.9298
v  -1.49653 0.240286 0.0128746
v  0.748229 -8.22451 21.6991
v  0.748229 -4.83859 21.6991
v  0.748229 -4.8386 23.1956
v  0.748229 -8.22451 23.1956
v  0.748229 -7.09588 21.6991
v  0.748229 -8.22452 8.23069
v  0.748229 -7.09588 8.23069
v  0.748229 -4.8386 8.23069
v  0.748229 -8.22452 6.7342
v  0.748229 -5.96724 8.23069
v  0.748229 -4.8386 21.6991
v  0.748229 -4.8386 6.73421
v  0.748229 -5.96723 21.6991
v  -0.748262 -8.22451 21.6991
v  -0.748262 -8.22451 23.1956
v  -0.748262 -4.8386 23.1956
v  -0.748262 -4.83859 21.6991
v  -0.748262 -8.22452 8.23069
v  -0.748262 -8.22451 21.6991
v  -0.748262 -8.22452 6.7342
v  -0.748262 -8.22452 8.23069
v  0.748229 -12.1747 25.4403
v  0.748229 -0.888355 25.4403
v  0.748228 -0.888355 26.9368
v  0.748228 -12.1747 26.9368
v  -0.748262 -12.1747 25.4403
v  -0.748263 -12.1747 26.9368
v  -0.748263 -0.888355 26.9368
v  -0.748262 -0.888355 25.4403
v  0.748229 -3.14564 4.48947
v  0.748229 -2.017 4.48946
v  0.748228 -2.017 25.4403
v  0.748228 -3.14564 25.4403
v  -0.748262 -3.14564 4.48946
v  -0.748262 -3.14564 25.4403
v  -0.748262 -2.017 25.4403
v  -0.748262 -2.017 4.48946
v  -0.748262 -5.96724 8.23069
v  -0.748262 -5.96723 21.6991
v  -0.748262 -4.8386 21.6991
v  -0.748262 -4.8386 8.23069
v  -0.748262 -4.8386 6.73421
v  -0.748262 -7.09588 21.6991
v  -0.748262 -7.09588 8.23069
v  0.748229 -4.8386 14.2167
v  0.748229 -3.14564 14.2167
v  0.748229 -3.14564 15.7132
v  0.748229 -4.8386 15.7132
v  -0.748262 -4.8386 14.2167
v  -0.748262 -4.8386 15.7132
v  -0.748262 -3.14564 15.7132
v  -0.748262 -3.14564 14.2167
v  0.748229 -9.91747 14.2167
v  0.748229 -8.22451 14.2167
v  0.748229 -8.22451 15.7132
v  0.748229 -9.91747 15.7132
v  -0.748262 -9.91747 14.2167
v  -0.748262 -9.91747 15.7132
v  -0.748262 -8.22451 15.7132
v  -0.748262 -8.22451 14.2167
v  0.748229 -11.0461 4.48947
v  0.748229 -9.91748 4.48947
v  0.748228 -9.91747 25.4403
v  0.748228 -11.0461 25.4403
v  -0.748262 -11.0461 4.48947
v  -0.748262 -11.0461 25.4403
v  -0.748262 -9.91747 25.4403
v  -0.748262 -9.91748 4.48947
v  0.748229 -12.1748 2.99298
v  0.748229 -0.888363 2.99298
v  0.748229 -0.888361 4.48947
v  0.748229 -12.1748 4.48947
v  -0.748262 -12.1748 2.99298
v  -0.748262 -12.1748 4.48947
v  -0.748262 -0.888361 4.48947
v  -0.748262 -0.888363 2.99298
v  0.748229 -9.35316 1.49649
v  0.748229 -8.22452 1.49649
v  0.748229 -8.22452 2.99298
v  0.748229 -9.35316 2.99298
v  -0.748261 -9.35316 1.49649
v  -0.748262 -9.35316 2.99298
v  -0.748262 -8.22452 2.99298
v  -0.748261 -8.22452 1.49649
v  0.748229 -4.8386 1.49649
v  0.748229 -3.70996 1.49649
v  0.748229 -3.70996 2.99298
v  0.748229 -4.8386 2.99298
v  -0.748261 -4.8386 1.49649
v  -0.748262 -4.8386 2.99298
v  -0.748262 -3.70996 2.99298
v  -0.748261 -3.70996 1.49649
v  0.748229 -0.888363 1.49649
v  -0.748262 -0.888363 1.49649
v  -0.748262 -12.1748 1.49649
v  0.748229 -12.1748 1.49649
v  -0.748262 -12.1748 -3.8147e-06
v  0.748229 -12.1748 -4.76837e-06
v  -0.748262 -10.185 -3.8147e-06
v  0.748229 -10.1851 -2.86102e-06
v  0.748229 -0.888363 -2.86102e-06
v  -0.748262 -0.888363 -2.86102e-06
v  0.748229 -10.1851 0.0128441
v  0.748229 -2.87814 0.0128431
v  0.748229 -2.87814 -3.8147e-06
v  -0.748262 -2.87814 -3.8147e-06
v  -0.748262 -2.87814 0.0128441
v  -0.748262 -10.185 0.0128441
v  0.748229 -3.70999 29.9298
v  -0.748262 -3.70999 29.9298
v  -0.748262 -9.35319 29.9298
v  0.748229 -9.35319 29.9298
v  -0.748262 -12.1748 29.9298
v  -0.748262 -0.888359 29.9298
v  0.748229 -0.888359 29.9298
v  0.748229 -12.1748 29.9298
v  -0.748262 -12.1748 28.4333
v  0.748229 -12.1748 28.4333
v  -0.748262 -0.888359 28.4333
v  0.748229 -0.888359 28.4333
v  0.748229 -7.09588 26.9368
v  0.748229 -5.96723 26.9368
v  0.74823 -5.96724 28.4333
v  0.748229 -7.09588 28.4333
v  -0.748261 -7.09588 26.9368
v  -0.748262 -7.09588 28.4333
v  -0.748261 -5.96724 28.4333
v  -0.748261 -5.96723 26.9368
v  0.748229 -10.4818 26.9368
v  0.74823 -9.35315 26.9368
v  0.748229 -9.35315 28.4333
v  0.748229 -10.4818 28.4333
v  -0.748261 -10.4818 26.9368
v  -0.748262 -10.4818 28.4333
v  -0.748262 -9.35315 28.4333
v  -0.748261 -9.35315 26.9368
v  0.748229 -3.70996 26.9368
v  0.748229 -2.58132 26.9368
v  0.74823 -2.58132 28.4333
v  0.748229 -3.70996 28.4333
v  -0.748261 -3.70996 26.9368
v  -0.748262 -3.70996 28.4333
v  -0.748261 -2.58132 28.4333
v  -0.748261 -2.58132 26.9368
v  -1.49654 -40.2949 0.0128202
v  -1.49652 -40.2949 29.9298
v  -0.748281 -39.1662 29.9298
v  -0.748294 -39.1663 0.0128069
v  0.748198 -39.1663 0.0128069
v  0.74821 -39.1662 29.9298
v  1.49646 -40.2949 29.9298
v  1.49645 -40.2949 0.012825
v  1.49645 -26.7512 0.0128765
v  1.49646 -26.7512 29.9298
v  0.748217 -27.8798 29.9298
v  0.748208 -27.8798 0.0128765
v  -0.748284 -27.8798 0.0128736
v  -0.748276 -27.8798 29.9298
v  -1.49652 -26.7512 29.9298
v  -1.49653 -26.7512 0.0128727
v  0.748229 -35.216 21.6991
v  0.748229 -31.8301 21.6991
v  0.748229 -31.8301 23.1956
v  0.748229 -35.216 23.1956
v  0.748229 -34.0874 21.6991
v  0.748229 -35.216 8.23069
v  0.748229 -34.0874 8.23069
v  -0.748262 -35.216 21.6991
v  -0.748262 -35.216 23.1956
v  -0.748262 -31.8301 23.1956
v  -0.748262 -31.8301 21.6991
v  -0.748262 -35.216 8.23069
v  -0.748262 -35.216 21.6991
v  0.748229 -39.1662 25.4403
v  0.748229 -27.8798 25.4403
v  0.748228 -27.8798 26.9368
v  0.748228 -39.1662 26.9368
v  -0.748262 -39.1662 25.4403
v  -0.748263 -39.1662 26.9368
v  -0.748263 -27.8798 26.9368
v  -0.748262 -27.8798 25.4403
v  0.748229 -30.1371 4.48947
v  0.748229 -29.0085 4.48946
v  0.748228 -29.0085 25.4403
v  0.748228 -30.1371 25.4403
v  -0.748262 -30.1371 4.48946
v  -0.748262 -30.1371 25.4403
v  -0.748262 -29.0085 25.4403
v  -0.748262 -29.0085 4.48946
v  0.748229 -32.9587 8.23069
v  0.748229 -31.8301 8.23069
v  0.748229 -31.8301 21.6991
v  0.748229 -32.9587 21.6991
v  0.748229 -35.216 6.7342
v  0.748229 -31.8301 6.7342
v  0.748229 -35.216 8.23069
v  -0.748262 -32.9587 8.23069
v  -0.748262 -32.9587 21.6991
v  -0.748262 -31.8301 21.6991
v  -0.748262 -31.8301 8.23069
v  -0.748262 -35.216 6.7342
v  -0.748262 -35.216 8.23069
v  -0.748262 -31.8301 6.7342
v  -0.748262 -34.0874 21.6991
v  -0.748262 -34.0874 8.23069
v  0.748229 -31.8301 14.2167
v  0.748229 -30.1371 14.2167
v  0.748229 -30.1371 15.7132
v  0.748229 -31.8301 15.7131
v  -0.748262 -31.8301 14.2167
v  -0.748262 -31.8301 15.7131
v  -0.748262 -30.1371 15.7132
v  -0.748262 -30.1371 14.2167
v  0.748229 -36.909 14.2167
v  0.748229 -35.216 14.2167
v  0.748229 -35.216 15.7131
v  0.748229 -36.909 15.7132
v  -0.748262 -36.909 14.2167
v  -0.748262 -36.909 15.7132
v  -0.748262 -35.216 15.7131
v  -0.748262 -35.216 14.2167
v  0.748229 -38.0376 4.48947
v  0.748229 -36.909 4.48947
v  0.748228 -36.909 25.4403
v  0.748228 -38.0376 25.4403
v  -0.748262 -38.0376 4.48947
v  -0.748262 -38.0376 25.4403
v  -0.748262 -36.909 25.4403
v  -0.748262 -36.909 4.48947
v  0.748229 -39.1662 2.99298
v  0.748229 -27.8798 2.99298
v  0.748229 -27.8798 4.48947
v  0.748229 -39.1662 4.48947
v  -0.748262 -39.1662 2.99298
v  -0.748262 -39.1662 4.48947
v  -0.748262 -27.8798 4.48947
v  -0.748262 -27.8798 2.99298
v  0.748229 -36.3446 1.49649
v  0.748229 -35.216 1.49649
v  0.748229 -35.216 2.99298
v  0.748229 -36.3446 2.99298
v  -0.748261 -36.3446 1.49649
v  -0.748262 -36.3446 2.99298
v  -0.748262 -35.216 2.99298
v  -0.748261 -35.216 1.49649
v  0.748229 -31.8301 1.49649
v  0.748229 -30.7014 1.49648
v  0.748229 -30.7014 2.99298
v  0.748229 -31.8301 2.99298
v  -0.748261 -31.8301 1.49649
v  -0.748262 -31.8301 2.99298
v  -0.748262 -30.7014 2.99298
v  -0.748261 -30.7014 1.49649
v  0.748229 -27.8798 1.49649
v  -0.748262 -27.8798 1.49649
v  -0.748262 -39.1662 1.49649
v  0.748229 -39.1662 1.49648
v  -0.748262 -39.1662 -4.76837e-06
v  0.748229 -39.1662 -5.72205e-06
v  -0.748262 -37.1765 -4.76837e-06
v  0.748229 -37.1765 -3.8147e-06
v  0.748229 -27.8798 -4.76837e-06
v  -0.748262 -27.8798 -4.76837e-06
v  0.748229 -37.1765 0.0128431
v  0.748229 -29.8696 0.0128412
v  0.748229 -29.8696 -4.76837e-06
v  -0.748262 -29.8696 -4.76837e-06
v  -0.748262 -29.8696 0.0128431
v  -0.748262 -37.1765 0.0128431
v  0.748229 -30.7015 29.9298
v  -0.748262 -30.7015 29.9298
v  -0.748262 -36.3447 29.9298
v  0.748229 -36.3447 29.9298
v  -0.748262 -39.1662 29.9298
v  -0.748262 -27.8798 29.9298
v  0.748229 -27.8798 29.9298
v  0.748229 -39.1662 29.9298
v  -0.748262 -39.1662 28.4333
v  0.748229 -39.1662 28.4333
v  -0.748262 -27.8798 28.4333
v  0.748229 -27.8798 28.4333
v  0.748229 -34.0874 26.9368
v  0.748229 -32.9587 26.9368
v  0.74823 -32.9587 28.4333
v  0.748229 -34.0874 28.4333
v  -0.748261 -34.0874 26.9368
v  -0.748262 -34.0874 28.4333
v  -0.748261 -32.9587 28.4333
v  -0.748261 -32.9587 26.9368
v  0.748229 -37.4733 26.9368
v  0.74823 -36.3446 26.9368
v  0.748229 -36.3446 28.4333
v  0.748229 -37.4733 28.4333
v  -0.748261 -37.4733 26.9368
v  -0.748262 -37.4733 28.4333
v  -0.748262 -36.3446 28.4333
v  -0.748261 -36.3446 26.9368
v  0.748229 -30.7014 26.9368
v  0.748229 -29.5728 26.9368
v  0.74823 -29.5728 28.4333
v  0.748229 -30.7014 28.4333
v  -0.748261 -30.7014 26.9368
v  -0.748262 -30.7014 28.4333
v  -0.748261 -29.5728 28.4333
v  -0.748261 -29.5728 26.9368

# 0 UV coordinates

# 88 vertex normals
vn 0 0 -1
vn 0 0 1
vn 0 -1 0
vn -1 0 0
vn 1 0 0
vn 0 1 0
vn -0.833474 0.552559 0
vn -0.833473 0.55256 0
vn 0.833472 0.552561 -1e-06
vn 0.833471 0.552563 -1e-06
vn 0.833473 0.55256 -1e-06
vn 0.833471 0.552564 -1e-06
vn 0 1.7e-05 1
vn -2e-06 1 0
vn 1e-06 -1.3e-05 -1
vn 1e-06 -1.4e-05 -1
vn 2e-06 -1.6e-05 -1
vn -0 -1.2e-05 -1
vn 0.833472 -0.552562 -0
vn 0.833472 -0.552561 -0
vn -0.833472 -0.552561 0
vn -3e-06 -1e-06 1
vn -4e-06 -3e-06 1
vn -2e-06 1e-06 1
vn 1e-06 1 0
vn -1e-06 -1 0
vn 2e-06 -1e-06 -1
vn 1e-06 1e-06 -1
vn 3e-06 -3e-06 -1
vn 1e-06 -1 1e-06
vn 0 -1 1e-06
vn 1e-06 -1 0
vn 0 1 1e-06
vn 1 0 1e-06
vn -1 0 -1e-06
vn 0 3e-06 1
vn 2e-06 -2e-06 -1
vn -0 -4e-06 -1
vn 3e-06 0 -1
vn 0 1 -1e-06
vn 0 1e-06 1
vn -2e-06 -1e-06 -1
vn -3e-06 -3e-06 -1
vn 1e-06 -3e-06 -1
vn 3e-06 -1e-06 -1
vn 1e-06 0 1
vn 1e-06 -1 -1e-06
vn 1e-06 -1e-06 1
vn 1e-06 1e-06 1
vn 0 2e-06 1
vn -0 -1 -1e-06
vn -0 -1e-06 -1
vn -1e-06 -2e-06 -1
vn 1e-06 0 -1
vn -1e-06 1e-06 -1
vn -1e-06 0 -1
vn 2e-06 1 0
vn 1 -0 -1e-06
vn 1 -1e-06 0
vn -1 1e-06 -1e-06
vn -0 -6e-06 -1
vn 0 1 2e-06
vn 1 -1e-06 1e-06
vn -2e-06 3e-06 1
vn 2e-06 -3e-06 1
vn -0.833474 0.552558 0
vn 0 1.4e-05 1
vn 2e-06 -1.5e-05 -1
vn -0.833473 -0.552561 0
vn -1e-06 0 1
vn -2e-06 -1e-06 1
vn -1e-06 1e-06 1
vn 2e-06 0 -1
vn 3e-06 -2e-06 -1
vn -1e-06 -1 1e-06
vn 0 6e-06 1
vn 0 -2e-06 1
vn 0 1 -2e-06
vn 0 4e-06 1
vn 0 -1 3e-06
vn -1e-06 -1e-06 -1
vn -3e-06 -2e-06 -1
vn 0 1e-06 -1
vn 2e-06 -3e-06 -1
vn -0 -5e-06 -1
vn 0 -1e-06 1
vn -3e-06 0 -1
vn -2e-06 -3e-06 -1

# Mesh 'object' with 532 faces
g object
usemtl $Material_0
f  1//1 2//1 3//1
f  1//1 3//1 4//1
f  5//1 1//1 4//1
f  6//1 5//1 4//1
f  7//2 8//2 9//2
f  9//2 10//2 11//2
f  11//2 12//2 9//2
f  9//2 13//2 7//2
f  13//2 9//2 12//2
f  12//2 14//2 15//2
f  12//2 15//2 13//2
f  6//3 11//3 10//3
f  10//3 5//3 6//3
f  9//4 8//4 2//4
f  2//4 1//4 9//4
f  5//4 10//4 9//4
f  9//4 1//4 5//4
f  4//5 12//5 11//5
f  11//5 6//5 4//5
f  4//5 14//5 12//5
f  15//6 14//6 4//6
f  13//6 15//6 4//6
f  7//6 13//6 4//6
f  3//6 7//6 4//6
f  2//6 8//6 7//6
f  7//6 3//6 2//6
f  16//7 17//8 18//7
f  18//7 19//7 16//7
f  20//8 21//8 17//8
f  22//9 23//10 24//11
f  24//11 25//11 22//9
f  25//11 26//12 22//9
f  27//13 24//13 23//13
f  23//13 17//13 27//13
f  28//13 17//13 21//13
f  18//14 17//14 23//14
f  23//14 22//14 18//14
f  29//15 22//16 26//17
f  29//15 19//18 18//18
f  18//18 22//16 29//15
f  30//19 31//19 32//19
f  32//19 33//20 30//19
f  34//21 35//21 36//21
f  36//21 37//21 34//21
f  36//22 35//23 32//22
f  32//22 31//24 36//22
f  37//25 36//25 31//25
f  31//25 30//25 37//25
f  33//26 32//3 35//26
f  35//26 34//26 33//26
f  34//27 37//28 30//27
f  30//27 33//29 34//27
f  38//5 39//5 40//5
f  40//5 41//5 38//5
f  42//5 38//5 43//5
f  43//5 44//5 42//5
f  45//5 43//5 46//5
f  47//5 45//5 48//5
f  46//5 49//5 45//5
f  48//5 50//5 47//5
f  51//4 52//4 53//4
f  53//4 54//4 51//4
f  52//2 41//2 40//2
f  40//2 53//2 52//2
f  51//3 38//3 41//3
f  41//3 52//3 51//3
f  55//3 43//3 38//3
f  38//3 56//3 55//3
f  57//30 46//31 43//3
f  43//3 58//32 57//30
f  54//1 39//1 38//1
f  38//1 51//1 54//1
f  53//33 40//33 39//33
f  39//33 54//33 53//33
f  59//34 60//34 61//34
f  61//34 62//34 59//34
f  63//35 64//35 65//35
f  65//35 66//35 63//35
f  64//2 62//2 61//2
f  61//2 65//2 64//2
f  63//31 59//31 62//31
f  62//31 64//31 63//31
f  66//1 60//1 59//1
f  59//1 63//1 66//1
f  65//6 61//6 60//6
f  60//6 66//6 65//6
f  67//5 68//5 69//5
f  69//5 70//5 67//5
f  71//4 72//4 73//4
f  73//4 74//4 71//4
f  72//36 70//36 69//36
f  69//36 73//36 72//36
f  71//3 67//3 70//3
f  70//3 72//3 71//3
f  74//37 68//38 67//37
f  67//37 71//39 74//37
f  73//6 69//6 68//6
f  68//6 74//6 73//6
f  75//4 76//4 77//4
f  77//4 78//4 75//4
f  57//4 58//4 78//4
f  78//4 79//4 57//4
f  76//2 50//2 48//2
f  48//2 77//2 76//2
f  75//3 47//3 50//3
f  50//3 76//3 75//3
f  78//1 45//1 47//1
f  47//1 75//1 78//1
f  77//6 48//6 45//6
f  45//6 78//6 77//6
f  78//6 45//6 49//6
f  49//6 79//6 78//6
f  55//4 56//4 80//4
f  80//4 81//4 55//4
f  56//2 38//2 42//2
f  42//2 80//2 56//2
f  81//1 44//1 43//1
f  43//1 55//1 81//1
f  80//6 42//6 44//6
f  44//6 81//6 80//6
f  82//5 83//5 84//5
f  84//5 85//5 82//5
f  86//4 87//4 88//4
f  88//4 89//4 86//4
f  87//2 85//2 84//2
f  84//2 88//2 87//2
f  86//31 82//31 85//31
f  85//31 87//31 86//31
f  89//1 83//1 82//1
f  82//1 86//1 89//1
f  88//40 84//40 83//40
f  83//40 89//40 88//40
f  90//5 91//5 92//5
f  92//5 93//5 90//5
f  94//4 95//4 96//4
f  96//4 97//4 94//4
f  95//41 93//41 92//41
f  92//41 96//41 95//41
f  94//3 90//3 93//3
f  93//3 95//3 94//3
f  97//42 91//43 90//42
f  90//42 94//1 97//42
f  96//40 92//40 91//40
f  91//40 97//40 96//40
f  98//5 99//5 100//5
f  100//5 101//5 98//5
f  102//4 103//4 104//4
f  104//4 105//4 102//4
f  103//2 101//2 100//2
f  100//2 104//2 103//2
f  102//3 98//3 101//3
f  101//3 103//3 102//3
f  105//44 99//38 98//44
f  98//44 102//45 105//44
f  104//6 100//6 99//6
f  99//6 105//6 104//6
f  58//2 43//2 45//2
f  45//2 78//2 58//2
f  79//1 49//1 46//1
f  46//1 57//1 79//1
f  106//5 107//5 108//5
f  108//5 109//5 106//5
f  110//4 111//4 112//4
f  112//4 113//4 110//4
f  111//46 109//46 108//46
f  108//46 112//46 111//46
f  110//32 106//47 109//32
f  109//32 111//31 110//32
f  113//1 107//1 106//1
f  106//1 110//1 113//1
f  112//40 108//40 107//40
f  107//40 113//40 112//40
f  114//5 115//5 116//5
f  116//5 117//5 114//5
f  118//35 119//35 120//35
f  120//35 121//35 118//35
f  119//2 117//2 116//2
f  116//2 120//48 119//2
f  118//3 114//3 117//3
f  117//3 119//3 118//3
f  121//1 115//1 114//1
f  114//1 118//1 121//1
f  120//6 116//6 115//6
f  115//6 121//6 120//6
f  122//5 123//5 124//5
f  124//5 125//5 122//5
f  126//35 127//35 128//35
f  128//35 129//35 126//35
f  127//49 125//50 124//49
f  124//49 128//46 127//49
f  126//51 122//51 125//51
f  125//51 127//51 126//51
f  129//52 123//53 122//52
f  122//52 126//52 129//52
f  128//6 124//6 123//6
f  123//6 129//6 128//6
f  130//2 131//2 132//2
f  132//2 133//46 130//2
f  133//3 132//3 134//3
f  134//3 135//3 133//3
f  134//1 136//54 137//1
f  137//1 135//55 134//1
f  138//6 139//6 131//6
f  131//6 130//6 138//6
f  135//5 137//5 140//5
f  133//5 135//5 140//5
f  133//5 140//5 141//5
f  130//5 133//5 141//5
f  138//5 130//5 141//5
f  142//5 138//5 141//5
f  139//4 143//4 144//4
f  131//4 139//4 144//4
f  132//4 131//4 144//4
f  132//4 144//4 145//4
f  134//4 132//4 145//4
f  136//4 134//4 145//4
f  139//1 138//1 142//1
f  142//1 143//1 139//1
f  144//3 143//3 142//3
f  142//3 141//3 144//3
f  145//1 144//56 141//1
f  141//1 140//1 145//1
f  145//57 140//57 137//57
f  137//57 136//57 145//57
f  146//2 147//2 148//2
f  148//2 149//2 146//2
f  149//2 148//2 150//2
f  151//2 147//2 146//2
f  146//2 152//2 151//2
f  150//2 153//2 149//2
f  153//3 150//3 154//3
f  154//3 155//3 153//3
f  155//1 154//1 156//1
f  156//1 157//1 155//1
f  157//6 156//6 151//6
f  151//6 152//6 157//6
f  157//5 152//5 146//5
f  157//5 146//5 149//5
f  155//5 157//5 149//5
f  155//5 149//5 153//5
f  154//4 150//4 148//4
f  156//4 154//4 148//4
f  156//4 148//4 147//4
f  156//4 147//4 151//4
f  158//5 159//58 160//5
f  160//5 161//59 158//5
f  162//4 163//60 164//4
f  164//4 165//4 162//4
f  163//36 161//36 160//36
f  160//36 164//36 163//36
f  162//3 158//3 161//3
f  161//3 163//3 162//3
f  165//61 159//61 158//61
f  158//61 162//61 165//61
f  164//62 160//62 159//62
f  159//62 165//62 164//62
f  166//5 167//63 168//5
f  168//5 169//5 166//5
f  170//35 171//35 172//35
f  172//35 173//35 170//35
f  171//2 169//64 168//2
f  168//2 172//65 171//2
f  170//3 166//3 169//3
f  169//3 171//3 170//3
f  173//1 167//1 166//1
f  166//1 170//1 173//1
f  172//6 168//6 167//6
f  167//6 173//6 172//6
f  174//5 175//58 176//5
f  176//5 177//59 174//5
f  178//4 179//60 180//4
f  180//4 181//4 178//4
f  179//2 177//2 176//2
f  176//2 180//2 179//2
f  178//3 174//3 177//3
f  177//3 179//3 178//3
f  181//1 175//1 174//1
f  174//1 178//1 181//1
f  180//6 176//6 175//6
f  175//6 181//6 180//6
f  182//66 183//66 184//66
f  184//66 185//7 182//66
f  186//10 187//10 188//10
f  188//10 189//10 186//10
f  188//67 187//67 184//67
f  184//67 183//67 188//67
f  189//32 188//32 183//32
f  183//32 182//32 189//32
f  185//6 184//6 187//6
f  187//6 186//6 185//6
f  186//15 189//68 182//15
f  182//15 185//18 186//15
f  190//20 191//19 192//20
f  192//20 193//20 190//20
f  194//21 195//21 196//21
f  196//21 197//69 194//21
f  196//70 195//71 192//70
f  192//70 191//72 196//70
f  197//6 196//6 191//6
f  191//6 190//6 197//6
f  193//3 192//3 195//3
f  195//3 194//3 193//3
f  194//27 197//73 190//27
f  190//27 193//74 194//27
f  198//5 199//5 200//5
f  200//5 201//5 198//5
f  202//5 198//5 203//5
f  203//5 204//5 202//5
f  205//4 206//4 207//4
f  207//4 208//4 205//4
f  206//46 201//41 200//46
f  200//46 207//46 206//46
f  205//75 198//31 201//75
f  201//75 206//3 205//75
f  209//3 203//3 198//31
f  198//31 210//3 209//3
f  208//1 199//1 198//1
f  198//1 205//1 208//1
f  207//6 200//6 199//6
f  199//6 208//6 207//6
f  211//34 212//34 213//34
f  213//34 214//34 211//34
f  215//35 216//35 217//35
f  217//35 218//35 215//35
f  216//2 214//2 213//2
f  213//2 217//2 216//2
f  215//3 211//3 214//3
f  214//3 216//3 215//3
f  218//1 212//1 211//1
f  211//1 215//1 218//1
f  217//6 213//6 212//6
f  212//6 218//6 217//6
f  219//5 220//5 221//5
f  221//5 222//5 219//5
f  223//4 224//4 225//4
f  225//4 226//4 223//4
f  224//76 222//76 221//76
f  221//76 225//76 224//76
f  223//3 219//3 222//3
f  222//3 224//3 223//3
f  226//37 220//38 219//37
f  219//37 223//39 226//37
f  225//6 221//6 220//6
f  220//6 226//6 225//6
f  227//5 228//5 229//5
f  229//5 230//5 227//5
f  231//5 232//5 228//5
f  228//5 233//5 231//5
f  234//4 235//4 236//4
f  236//4 237//4 234//4
f  238//4 239//4 237//4
f  237//4 240//4 238//4
f  235//2 230//2 229//2
f  229//2 236//2 235//2
f  234//3 227//3 230//3
f  230//3 235//3 234//3
f  237//1 228//1 227//1
f  227//1 234//1 237//1
f  236//6 229//6 228//6
f  228//6 237//6 236//6
f  237//6 228//6 232//6
f  232//6 240//6 237//6
f  209//4 210//4 241//4
f  241//4 242//4 209//4
f  210//2 198//2 202//2
f  202//2 241//2 210//2
f  242//1 204//1 203//1
f  203//1 209//1 242//1
f  241//6 202//6 204//6
f  204//6 242//6 241//6
f  243//5 244//5 245//5
f  245//5 246//5 243//5
f  247//4 248//4 249//4
f  249//4 250//4 247//4
f  248//77 246//77 245//77
f  245//77 249//77 248//77
f  247//31 243//31 246//31
f  246//31 248//31 247//31
f  250//1 244//1 243//1
f  243//1 247//1 250//1
f  249//78 245//78 244//78
f  244//78 250//78 249//78
f  251//5 252//5 253//5
f  253//5 254//5 251//5
f  255//4 256//4 257//4
f  257//4 258//4 255//4
f  256//79 254//79 253//79
f  253//79 257//79 256//79
f  255//80 251//80 254//80
f  254//80 256//80 255//80
f  258//81 252//82 251//81
f  251//81 255//83 258//81
f  257//40 253//40 252//40
f  252//40 258//40 257//40
f  259//5 260//5 261//5
f  261//5 262//5 259//5
f  263//4 264//4 265//4
f  265//4 266//4 263//4
f  264//79 262//79 261//79
f  261//79 265//79 264//79
f  263//3 259//3 262//3
f  262//3 264//3 263//3
f  266//84 260//85 259//84
f  259//84 263//45 266//84
f  265//6 261//6 260//6
f  260//6 266//6 265//6
f  239//86 233//48 228//86
f  228//86 237//86 239//86
f  238//32 231//31 233//32
f  233//32 239//47 238//32
f  240//1 232//1 231//1
f  231//1 238//1 240//1
f  267//5 268//5 269//5
f  269//5 270//5 267//5
f  271//4 272//4 273//4
f  273//4 274//4 271//4
f  272//46 270//46 269//46
f  269//46 273//46 272//46
f  271//3 267//3 270//3
f  270//3 272//3 271//3
f  274//1 268//1 267//1
f  267//1 271//1 274//1
f  273//6 269//6 268//6
f  268//6 274//6 273//6
f  275//5 276//5 277//5
f  277//5 278//5 275//5
f  279//35 280//35 281//35
f  281//35 282//35 279//35
f  280//2 278//2 277//2
f  277//2 281//48 280//2
f  279//3 275//3 278//3
f  278//3 280//3 279//3
f  282//83 276//83 275//83
f  275//83 279//83 282//83
f  281//6 277//6 276//6
f  276//6 282//6 281//6
f  283//5 284//5 285//5
f  285//5 286//5 283//5
f  287//35 288//35 289//35
f  289//35 290//35 287//35
f  288//41 286//50 285//41
f  285//41 289//49 288//41
f  287//3 283//3 286//3
f  286//3 288//3 287//3
f  290//1 284//81 283//1
f  283//1 287//1 290//1
f  289//6 285//6 284//6
f  284//6 290//6 289//6
f  291//2 292//2 293//2
f  293//2 294//46 291//2
f  294//3 293//3 295//3
f  295//3 296//3 294//3
f  295//1 297//54 298//1
f  298//1 296//55 295//1
f  299//40 300//40 292//40
f  292//40 291//40 299//40
f  296//5 298//5 301//5
f  294//5 296//5 301//5
f  294//5 301//5 302//5
f  291//5 294//5 302//5
f  299//5 291//5 302//5
f  303//5 299//5 302//5
f  300//4 304//4 305//4
f  292//4 300//4 305//4
f  293//4 292//4 305//4
f  293//4 305//4 306//4
f  295//4 293//4 306//4
f  297//4 295//4 306//4
f  300//1 299//1 303//1
f  303//1 304//1 300//1
f  305//3 304//3 303//3
f  303//3 302//3 305//3
f  306//56 305//56 302//56
f  302//56 301//1 306//56
f  306//6 301//6 298//6
f  298//6 297//6 306//6
f  307//70 308//70 309//2
f  309//2 310//2 307//70
f  310//2 309//2 311//2
f  312//70 308//70 307//70
f  307//70 313//2 312//70
f  311//2 314//2 310//2
f  314//3 311//3 315//3
f  315//3 316//3 314//3
f  316//56 315//87 317//56
f  317//56 318//1 316//56
f  318//40 317//40 312//40
f  312//40 313//40 318//40
f  318//5 313//5 307//5
f  318//5 307//5 310//5
f  316//5 318//5 310//5
f  316//5 310//5 314//5
f  315//4 311//4 309//4
f  317//4 315//4 309//4
f  317//4 309//4 308//4
f  317//4 308//4 312//4
f  319//5 320//58 321//5
f  321//5 322//59 319//5
f  323//4 324//60 325//4
f  325//4 326//4 323//4
f  324//36 322//36 321//36
f  321//36 325//36 324//36
f  323//51 319//51 322//51
f  322//51 324//51 323//51
f  326//81 320//88 319//81
f  319//81 323//1 326//81
f  325//6 321//6 320//6
f  320//6 326//6 325//6
f  327//5 328//63 329//5
f  329//5 330//5 327//5
f  331//35 332//35 333//35
f  333//35 334//35 331//35
f  332//2 330//2 329//2
f  329//2 333//2 332//2
f  331//3 327//3 330//3
f  330//3 332//3 331//3
f  334//1 328//1 327//1
f  327//1 331//1 334//1
f  333//6 329//6 328//6
f  328//6 334//6 333//6
f  335//5 336//58 337//5
f  337//5 338//59 335//5
f  339//4 340//60 341//4
f  341//4 342//4 339//4
f  340//2 338//2 337//2
f  337//2 341//2 340//2
f  339//3 335//3 338//3
f  338//3 340//3 339//3
f  342//1 336//1 335//1
f  335//1 339//1 342//1
f  341//40 337//40 336//40
f  336//40 342//40 341//40

