# File produced by Open Asset Import Library (http://www.assimp.sf.net)
# (assimp v3.1.187496374)

mtllib balustrade.obj.mtl

# 152 vertex positions
v  -1.5 0.0266018 30
v  -1.5 0.026598 0
v  -1.5 -2.9734 9.53674e-07
v  -1.5 -2.9734 30
v  1.5 0.0266037 30
v  1.5 -2.9734 30
v  1.5 -2.9734 9.53674e-07
v  1.5 0.026598 0
v  -1.5 -0.0233974 30.05
v  -1.5 -0.0233974 28.55
v  -1.49999 -37.5234 28.55
v  -1.49999 -37.5234 30.05
v  1.5 -0.0233955 30.05
v  1.50001 -37.5234 30.05
v  1.50001 -37.5234 28.55
v  1.5 -0.0233955 28.55
v  -1.5 -0.0234013 1.45
v  -1.5 -0.0234013 -0.0499992
v  -1.49999 -37.5234 -0.0499945
v  -1.49999 -37.5234 1.45001
v  1.5 -0.0234013 1.45
v  1.50001 -37.5234 1.45001
v  1.50001 -37.5234 -0.0499945
v  1.5 -0.0234013 -0.0499992
v  -1.5 -0.0233994 16.5
v  -1.5 -0.0233994 13.5
v  -1.49999 -37.5234 13.5
v  -1.49999 -37.5234 16.5
v  1.5 -0.0233994 16.5
v  1.50001 -37.5234 16.5
v  1.50001 -37.5234 13.5
v  1.5 -0.0233994 13.5
v  1.5 -14.6329 26.7126
v  -1.5 -14.6329 26.7126
v  -1.49999 -20.2734 28
v  1.50001 -20.2734 28
v  -1.49999 -25.9139 26.7126
v  1.5 -10.1096 23.1054
v  -1.5 -10.1096 23.1054
v  1.5 -7.59934 17.8928
v  -1.5 -7.59934 17.8928
v  1.5 -7.59934 12.1072
v  -1.5 -7.59934 12.1072
v  1.5 -10.1096 6.89464
v  -1.5 -10.1096 6.89464
v  1.5 -14.6329 3.28741
v  -1.5 -14.6329 3.28741
v  1.5 -20.2734 2
v  -1.5 -20.2734 2
v  1.50001 -25.9139 3.28741
v  -1.49999 -25.9139 3.28741
v  1.50001 -30.4372 6.89464
v  -1.49999 -30.4372 6.89464
v  1.50001 -32.9475 12.1072
v  -1.49999 -32.9475 12.1072
v  1.50001 -32.9475 17.8928
v  -1.49999 -32.9475 17.8928
v  1.50001 -30.4372 23.1054
v  -1.49999 -30.4372 23.1054
v  1.50001 -25.9139 26.7126
v  1.50001 -24.6122 24.0097
v  1.50001 -20.2734 25
v  1.5 -15.9346 24.0097
v  1.50001 -28.0917 21.2349
v  1.50001 -30.0227 17.2252
v  1.50001 -30.0227 12.7748
v  1.50001 -28.0917 8.76511
v  1.50001 -24.6122 5.99032
v  1.50001 -20.2734 5
v  1.5 -15.9346 5.99031
v  1.5 -12.4551 8.7651
v  1.5 -10.5241 12.7748
v  1.5 -10.5241 17.2252
v  1.5 -12.4551 21.2349
v  -1.49999 -24.6122 24.0097
v  -1.49999 -28.0917 21.2349
v  -1.49999 -30.0227 17.2252
v  -1.49999 -30.0227 12.7748
v  -1.49999 -20.2734 25
v  -1.49999 -28.0917 8.76511
v  -1.49999 -24.6122 5.99032
v  -1.49999 -20.2734 5
v  -1.5 -15.9346 5.99031
v  -1.5 -12.4551 8.7651
v  -1.5 -10.5241 12.7748
v  -1.5 -10.5241 17.2252
v  -1.5 -12.4551 21.2349
v  -1.5 -15.9346 24.0097
v  -1.5 -10.5034 11.442
v  -1.5 -12.3293 5.73682
v  -1.49999 -16.332 10.8079
v  -1.49999 -17.5034 4.442
v  1.50001 -17.5034 4.442
v  1.5 -12.3293 5.73682
v  1.50001 -16.332 10.8079
v  1.5 -10.5034 11.442
v  -1.5 -12.329 24.2635
v  -1.5 -10.5032 18.5583
v  -1.5 -16.3318 19.1924
v  -1.5 -17.5031 25.5583
v  1.5 -12.329 24.2635
v  1.5 -17.5031 25.5583
v  1.5 -16.3318 19.1924
v  1.5 -10.5032 18.5583
v  -1.49999 -30.0434 18.5583
v  -1.49999 -28.2175 24.2635
v  -1.5 -24.2148 19.1924
v  -1.5 -23.0434 25.5583
v  1.5 -23.0434 25.5583
v  1.50001 -28.2175 24.2635
v  1.5 -24.2148 19.1924
v  1.50001 -30.0434 18.5583
v  -1.49999 -28.2175 5.73683
v  -1.49999 -30.0434 11.442
v  -1.49999 -24.2148 10.8079
v  -1.49999 -23.0434 4.44201
v  1.50001 -28.2175 5.73683
v  1.50001 -23.0434 4.44201
v  1.50001 -24.2148 10.8079
v  1.50001 -30.0434 11.442
v  -1.5 -5.0234 30
v  -1.5 -5.0234 1.90735e-06
v  -1.5 -6.5234 2.86102e-06
v  -1.5 -6.5234 30
v  1.5 -5.0234 30
v  1.5 -6.5234 30
v  1.5 -6.5234 1.90735e-06
v  1.5 -5.0234 1.90735e-06
v  -1.5 -8.2734 30
v  -1.5 -8.2734 1.90735e-06
v  -1.5 -11.2734 1.90735e-06
v  -1.5 -11.2734 30
v  1.5 -8.2734 30
v  1.5 -11.2734 30
v  1.5 -11.2734 1.90735e-06
v  1.5 -8.2734 1.90735e-06
v  -1.5 -18.7734 30
v  -1.5 -18.7734 1.90735e-06
v  -1.5 -21.7734 2.86102e-06
v  -1.5 -21.7734 30
v  1.5 -18.7734 30
v  1.5 -21.7734 30
v  1.5 -21.7734 2.86102e-06
v  1.5 -18.7734 1.90735e-06
v  -1.49999 -29.0734 30
v  -1.5 -29.0734 4.76837e-06
v  -1.5 -32.0734 5.72205e-06
v  -1.49999 -32.0734 30
v  1.50001 -29.0734 30
v  1.50001 -32.0734 30
v  1.5 -32.0734 4.76837e-06
v  1.5 -29.0734 4.76837e-06

# 0 UV coordinates

# 78 vertex normals
vn -1 0 0
vn 1 0 0
vn 0 -1 0
vn 0 0 1
vn 0 1 0
vn -1e-06 1 0
vn -0 0 -1
vn -1 0 1e-06
vn 0 0.364284 0.931288
vn 0 0.500983 0.865457
vn 0 0.075862 0.997118
vn 0 -0.075862 0.997118
vn 0 -0.364284 0.931288
vn 0 0.732279 0.681004
vn 0 0.826878 0.562382
vn 0 0.955238 0.295839
vn 0 0.988999 0.14792
vn 0 0.988999 -0.14792
vn 0 0.955238 -0.29584
vn 0 0.826878 -0.562382
vn 0 0.732279 -0.681005
vn 0 0.500982 -0.865457
vn 0 0.364284 -0.931288
vn 0 0.075862 -0.997118
vn -0 -0.075862 -0.997118
vn -0 -0.364284 -0.931288
vn -0 -0.500983 -0.865457
vn -0 -0.732279 -0.681004
vn -0 -0.826878 -0.562382
vn -0 -0.955238 -0.295839
vn 0 -0.988999 -0.14792
vn 0 -0.988999 0.14792
vn 0 -0.955238 0.29584
vn 0 -0.826878 0.562382
vn 0 -0.732279 0.681005
vn 0 -0.500983 0.865457
vn 1 1e-06 0
vn 1 1e-06 1e-06
vn 1 2e-06 0
vn 1 0 1e-06
vn 1 0 -1e-06
vn 1 1e-06 -1e-06
vn 1 1e-06 -2e-06
vn 1 -1e-06 1e-06
vn 1 -1e-06 0
vn 1 -1e-06 -1e-06
vn -1 -1e-06 0
vn -1 -2e-06 0
vn -1 0 -1e-06
vn -1 -1e-06 2e-06
vn -1 -1e-06 1e-06
vn -1 1e-06 0
vn -1 1e-06 1e-06
vn -1 -1e-06 -1e-06
vn 0 -0.732279 0.681004
vn 0 -0.075861 0.997118
vn 0 0.500983 -0.865457
vn 1e-06 -0.983489 0.180968
vn 0 0.242763 -0.970086
vn -1e-06 0.952414 -0.304808
vn 0 0.952414 -0.304808
vn 0 -0.108148 0.994135
vn 0 -0.983489 -0.180968
vn 0 0.242763 0.970086
vn 0 0.952414 0.304808
vn -0 -0.108149 -0.994135
vn 0 -0.108148 -0.994135
vn 0 0.983489 -0.180969
vn 0 0.983489 -0.180968
vn 0 -0.242763 0.970086
vn 0 -0.952414 0.304808
vn 0 0.108148 -0.994135
vn 0 0.983489 0.180968
vn -0 -0.242763 -0.970086
vn 0 -0.952414 -0.304808
vn 0 0.108148 0.994135
vn 0 1e-06 1
vn -0 -1e-06 -1

# Mesh 'object' with 256 faces
g object
usemtl $Material_0
f  1//1 2//1 3//1
f  3//1 4//1 1//1
f  5//2 6//2 7//2
f  7//2 8//2 5//2
f  6//3 4//3 3//3
f  3//3 7//3 6//3
f  5//4 1//4 4//4
f  4//4 6//4 5//4
f  8//5 2//5 1//5
f  1//5 5//6 8//5
f  7//7 3//7 2//7
f  2//7 8//7 7//7
f  9//1 10//1 11//1
f  11//1 12//1 9//1
f  13//2 14//2 15//2
f  15//2 16//2 13//2
f  14//3 12//3 11//3
f  11//3 15//3 14//3
f  13//4 9//4 12//4
f  12//4 14//4 13//4
f  16//6 10//6 9//6
f  9//6 13//6 16//6
f  15//7 11//7 10//7
f  10//7 16//7 15//7
f  17//1 18//1 19//1
f  19//1 20//8 17//1
f  21//2 22//2 23//2
f  23//2 24//2 21//2
f  22//3 20//3 19//3
f  19//3 23//3 22//3
f  21//4 17//4 20//4
f  20//4 22//4 21//4
f  24//5 18//5 17//5
f  17//5 21//5 24//5
f  23//7 19//7 18//7
f  18//7 24//7 23//7
f  25//1 26//1 27//1
f  27//1 28//1 25//1
f  29//2 30//2 31//2
f  31//2 32//2 29//2
f  30//3 28//3 27//3
f  27//3 31//3 30//3
f  29//4 25//4 28//4
f  28//4 30//4 29//4
f  32//5 26//5 25//5
f  25//5 29//5 32//5
f  31//7 27//7 26//7
f  26//7 32//7 31//7
f  33//9 34//10 35//11
f  35//11 36//12 33//9
f  36//12 35//11 37//13
f  34//10 33//9 38//14
f  38//14 39//15 34//10
f  39//15 38//14 40//16
f  40//16 41//17 39//15
f  41//17 40//16 42//18
f  42//18 43//19 41//17
f  43//19 42//18 44//20
f  44//20 45//21 43//19
f  45//21 44//20 46//22
f  46//22 47//23 45//21
f  47//23 46//22 48//24
f  48//24 49//25 47//23
f  49//25 48//24 50//26
f  50//26 51//27 49//25
f  51//27 50//26 52//28
f  52//28 53//29 51//27
f  53//29 52//28 54//30
f  54//30 55//31 53//29
f  55//31 54//30 56//32
f  56//32 57//33 55//31
f  57//33 56//32 58//34
f  58//34 59//35 57//33
f  59//35 58//34 60//36
f  60//36 37//13 59//35
f  37//13 60//36 36//12
f  58//37 61//2 62//2
f  60//2 58//37 62//2
f  33//2 60//2 62//2
f  33//2 62//2 63//38
f  64//2 61//2 58//37
f  65//37 64//2 58//37
f  58//37 56//37 66//39
f  65//37 58//37 66//39
f  56//37 54//2 67//37
f  56//37 67//37 66//39
f  54//2 52//40 68//2
f  54//2 68//2 67//37
f  52//40 50//41 69//2
f  52//40 69//2 68//2
f  50//41 48//42 70//43
f  50//41 70//43 69//2
f  48//42 46//44 71//2
f  48//42 71//2 70//43
f  46//44 44//2 72//45
f  46//44 72//45 71//2
f  44//2 42//46 73//46
f  44//2 73//46 72//45
f  42//46 40//38 74//2
f  42//46 74//2 73//46
f  40//38 38//2 63//38
f  40//38 63//38 74//2
f  38//2 33//2 63//38
f  33//2 36//2 60//2
f  59//47 75//1 76//1
f  59//47 76//1 77//47
f  59//47 77//47 78//48
f  57//47 59//47 78//48
f  59//47 37//1 79//1
f  75//1 59//47 79//1
f  57//47 78//48 80//47
f  55//1 57//47 80//47
f  55//1 80//47 81//1
f  53//49 55//1 81//1
f  53//49 81//1 82//47
f  51//8 53//49 82//47
f  51//8 82//47 83//50
f  49//51 51//8 83//50
f  49//51 83//50 84//1
f  47//52 49//51 84//1
f  47//52 84//1 85//52
f  45//1 47//52 85//52
f  45//1 85//52 86//53
f  43//53 45//1 86//53
f  43//53 86//53 87//1
f  41//54 43//53 87//1
f  41//54 87//1 88//47
f  39//1 41//54 88//47
f  39//1 88//47 79//1
f  34//1 39//1 79//1
f  35//1 34//1 79//1
f  37//1 35//1 79//1
f  63//26 62//24 79//25
f  79//25 88//27 63//26
f  75//23 79//25 62//24
f  74//28 63//26 88//27
f  88//27 87//29 74//28
f  73//30 74//28 87//29
f  87//29 86//31 73//30
f  72//32 73//30 86//31
f  86//31 85//33 72//32
f  71//34 72//32 85//33
f  85//33 84//55 71//34
f  70//36 71//34 84//55
f  84//55 83//13 70//36
f  69//56 70//36 83//13
f  83//13 82//11 69//56
f  68//9 69//56 82//11
f  82//11 81//10 68//9
f  67//14 68//9 81//10
f  81//10 80//15 67//14
f  66//16 67//14 80//15
f  80//15 78//17 66//16
f  65//18 66//16 78//17
f  78//17 77//19 65//18
f  64//20 65//18 77//19
f  77//19 76//21 64//20
f  61//57 64//20 76//21
f  76//21 75//23 61//57
f  62//24 61//57 75//23
f  89//1 90//1 91//1
f  92//1 91//1 90//1
f  93//2 94//2 95//2
f  96//2 95//2 94//2
f  92//58 93//58 91//58
f  95//58 91//58 93//58
f  90//59 94//59 92//59
f  93//59 92//59 94//59
f  89//60 96//60 90//60
f  94//61 90//60 96//60
f  91//62 95//62 89//62
f  96//62 89//62 95//62
f  97//1 98//1 99//1
f  99//1 100//1 97//1
f  101//2 102//2 103//2
f  103//2 104//2 101//2
f  102//63 100//63 99//63
f  99//63 103//63 102//63
f  101//64 97//64 100//64
f  100//64 102//64 101//64
f  104//65 98//65 97//65
f  97//65 101//65 104//65
f  103//66 99//67 98//66
f  98//66 104//66 103//66
f  105//1 106//1 107//1
f  108//1 107//1 106//1
f  109//2 110//2 111//2
f  112//2 111//2 110//2
f  108//68 109//68 107//68
f  111//69 107//68 109//68
f  106//70 110//70 108//70
f  109//70 108//70 110//70
f  105//71 112//71 106//71
f  110//71 106//71 112//71
f  107//72 111//72 105//72
f  112//72 105//72 111//72
f  113//1 114//1 115//1
f  115//1 116//1 113//1
f  117//2 118//2 119//2
f  119//2 120//2 117//2
f  118//73 116//73 115//73
f  115//73 119//73 118//73
f  117//74 113//74 116//74
f  116//74 118//74 117//74
f  120//75 114//75 113//75
f  113//75 117//75 120//75
f  119//76 115//76 114//76
f  114//76 120//76 119//76
f  121//1 122//1 123//1
f  123//1 124//1 121//1
f  125//2 126//2 127//2
f  127//2 128//2 125//2
f  126//3 124//3 123//3
f  123//3 127//3 126//3
f  125//4 121//77 124//4
f  124//4 126//4 125//4
f  128//5 122//5 121//5
f  121//5 125//5 128//5
f  127//7 123//78 122//7
f  122//7 128//7 127//7
f  129//1 130//1 131//1
f  131//1 132//1 129//1
f  133//2 134//2 135//2
f  135//2 136//2 133//2
f  134//3 132//3 131//3
f  131//3 135//3 134//3
f  133//4 129//4 132//4
f  132//4 134//4 133//4
f  136//5 130//5 129//5
f  129//5 133//5 136//5
f  135//7 131//7 130//7
f  130//7 136//7 135//7
f  137//1 138//1 139//1
f  139//1 140//1 137//1
f  141//2 142//2 143//2
f  143//2 144//2 141//2
f  142//3 140//3 139//3
f  139//3 143//3 142//3
f  141//4 137//4 140//4
f  140//4 142//4 141//4
f  144//5 138//5 137//5
f  137//5 141//5 144//5
f  143//7 139//7 138//7
f  138//7 144//7 143//7
f  145//1 146//1 147//1
f  147//1 148//1 145//1
f  149//2 150//2 151//2
f  151//2 152//2 149//2
f  150//3 148//3 147//3
f  147//3 151//3 150//3
f  149//4 145//4 148//4
f  148//4 150//4 149//4
f  152//5 146//5 145//5
f  145//5 149//5 152//5
f  151//7 147//7 146//7
f  146//7 152//7 151//7

