# 3ds Max Wavefront OBJ Exporter v0.97b - (c)2007 guruware
# File Created: 21.02.2017 11:59:47

mtllib flat_tile_new.mtl

#
# object Line01
#

v  25.0812 2.0823 37.2316
v  25.0812 2.0823 -42.7684
v  35.0812 5.5225 -42.7684
v  35.0812 5.5225 37.2316
v  -34.9188 13.5225 37.2316
v  -24.9188 10.0823 37.2316
v  -24.9188 10.0823 -42.7684
v  -34.9188 13.5225 -42.7684
v  25.0812 10.0823 37.2316
v  35.0812 13.5225 37.2316
v  15.0812 6.4088 37.2316
v  15.0812 -1.5912 37.2316
v  5.0812 3.9015 37.2316
v  5.0812 -4.0985 37.2316
v  -4.9188 3.9015 37.2316
v  -4.9188 -4.0985 37.2316
v  -14.9188 6.4088 37.2316
v  -14.9188 -1.5912 37.2316
v  -24.9188 2.0823 37.2316
v  -34.9188 5.5225 37.2316
v  25.0812 10.0823 -42.7684
v  35.0812 13.5225 -42.7684
v  15.0812 -1.5912 -42.7684
v  15.0812 6.4088 -42.7684
v  5.0812 -4.0985 -42.7684
v  5.0812 3.9015 -42.7684
v  -4.9188 -4.0985 -42.7684
v  -4.9188 3.9015 -42.7684
v  -14.9188 -1.5912 -42.7684
v  -14.9188 6.4088 -42.7684
v  -24.9188 2.0823 -42.7684
v  -34.9188 5.5225 -42.7684
# 32 vertices

vn 0.3351 -0.9422 -0.0000
vn -0.3252 -0.9457 -0.0000
vn -0.3496 -0.9369 -0.0000
vn 0.3253 0.9456 -0.0000
vn -0.3252 0.9457 -0.0000
vn -0.3496 0.9369 -0.0000
vn 0.0000 0.0000 1.0000
vn 0.0000 0.0000 -1.0000
vn -0.2432 0.9700 -0.0000
vn -0.1225 0.9925 -0.0000
vn 0.0000 1.0000 -0.0000
vn -0.3351 0.9422 -0.0000
vn -0.3253 0.9456 -0.0000
vn -0.3448 0.9387 -0.0000
vn 0.2432 -0.9700 -0.0000
vn 0.2944 -0.9557 -0.0000
vn -0.2432 -0.9700 -0.0000
vn -0.3448 -0.9387 -0.0000
vn 0.0000 -1.0000 -0.0000
vn -0.3253 -0.9456 -0.0000
vn 1.0000 0.0000 -0.0000
vn -1.0000 0.0000 -0.0000
vn 0.3448 0.9387 -0.0000
vn 0.2432 0.9700 -0.0000
# 24 vertex normals

g Line01
usemtl _flat_tile_flat_tile_Material_0
s 1
f 1//1 2//1 3//2 4//3 
f 5//4 6//4 7//5 8//6 
f 9//7 1//7 4//7 10//7 
f 11//7 12//7 1//7 9//7 
f 13//7 14//7 12//7 11//7 
f 15//7 16//7 14//7 13//7 
f 15//7 17//7 18//7 16//7 
f 17//7 6//7 19//7 18//7 
f 6//7 5//7 20//7 19//7 
f 3//8 2//8 21//8 22//8 
f 2//8 23//8 24//8 21//8 
f 23//8 25//8 26//8 24//8 
f 25//8 27//8 28//8 26//8 
f 29//8 30//8 28//8 27//8 
f 31//8 7//8 30//8 29//8 
f 32//8 8//8 7//8 31//8 
f 26//9 13//10 11//9 24//9 
f 28//11 15//11 13//10 26//11 
f 21//12 9//12 10//13 22//13 
f 24//14 11//14 9//12 21//12 
f 25//15 23//16 12//16 14//15 
f 2//1 1//1 12//16 23//16 
s off
f 27//17 16//17 18//17 29//17 
f 29//18 18//18 19//18 31//18 
f 25//19 14//19 16//19 27//19 
f 31//20 19//20 20//20 32//20 
f 10//21 4//21 3//21 22//21 
f 20//22 5//22 8//22 32//22 
f 7//23 6//23 17//23 30//23 
f 30//24 17//24 15//24 28//24 
# 30 polygons

