# 3ds Max Wavefront OBJ Exporter v0.97b - (c)2007 guruware
# File Created: 18.01.2017 16:11:47

mtllib flat_tile_reduce.mtl

#
# object Line01
#

v  57.8781 1.0000 13.9293
v  47.8781 -2.4402 13.9293
v  47.8781 -2.4402 -66.0707
v  57.8781 1.0000 -66.0707
v  -12.1219 9.0000 -66.0707
v  -12.1219 9.0000 13.9293
v  -2.1219 5.5598 13.9293
v  -2.1219 5.5598 -66.0707
v  47.8781 5.5598 13.9293
v  57.8781 9.0000 13.9293
v  37.8781 1.8863 13.9293
v  37.8781 -6.1137 13.9293
v  27.8781 -0.6210 13.9293
v  27.8781 -8.6210 13.9293
v  17.8781 -0.6210 13.9293
v  17.8781 -8.6210 13.9293
v  7.8781 1.8863 13.9293
v  7.8781 -6.1137 13.9293
v  -2.1219 -2.4402 13.9293
v  -12.1219 1.0000 13.9293
v  47.8781 5.5598 -66.0707
v  57.8781 9.0000 -66.0707
v  37.8781 -6.1137 -66.0707
v  37.8781 1.8863 -66.0707
v  27.8781 -8.6210 -66.0707
v  27.8781 -0.6210 -66.0707
v  17.8781 -8.6210 -66.0707
v  17.8781 -0.6210 -66.0707
v  7.8781 -6.1137 -66.0707
v  7.8781 1.8863 -66.0707
v  -2.1219 -2.4402 -66.0707
v  -12.1219 1.0000 -66.0707
# 32 vertices

vn -0.3496 -0.9369 -0.0000
vn 0.3351 -0.9422 -0.0000
vn -0.3252 -0.9457 -0.0000
vn -0.3496 0.9369 -0.0000
vn 0.3253 0.9456 -0.0000
vn -0.3252 0.9457 -0.0000
vn 0.0000 0.0000 1.0000
vn 0.0000 0.0000 -1.0000
vn -0.2432 0.9700 -0.0000
vn -0.1225 0.9925 -0.0000
vn 0.0000 1.0000 -0.0000
vn -0.3253 0.9456 -0.0000
vn -0.3351 0.9422 -0.0000
vn -0.3448 0.9387 -0.0000
vn 0.2432 -0.9700 -0.0000
vn 0.2944 -0.9557 -0.0000
vn -0.2432 -0.9700 -0.0000
vn -0.3448 -0.9387 -0.0000
vn 0.0000 -1.0000 -0.0000
vn -0.3253 -0.9456 -0.0000
vn 1.0000 0.0000 -0.0000
vn -1.0000 0.0000 -0.0000
vn 0.3448 0.9387 -0.0000
vn 0.2432 0.9700 -0.0000
# 24 vertex normals

g Line01
usemtl _flat_tile_Material_0
s 1
f 1//1 2//2 3//2 4//3 
f 5//4 6//5 7//5 8//6 
f 9//7 2//7 1//7 10//7 
f 11//7 12//7 2//7 9//7 
f 11//7 13//7 14//7 12//7 
f 13//7 15//7 16//7 14//7 
f 15//7 17//7 18//7 16//7 
f 18//7 17//7 7//7 19//7 
f 19//7 7//7 6//7 20//7 
f 4//8 3//8 21//8 22//8 
f 3//8 23//8 24//8 21//8 
f 23//8 25//8 26//8 24//8 
f 26//8 25//8 27//8 28//8 
f 29//8 30//8 28//8 27//8 
f 31//8 8//8 30//8 29//8 
f 32//8 5//8 8//8 31//8 
f 24//9 26//9 13//10 11//9 
f 26//11 28//11 15//11 13//10 
f 22//12 21//13 9//13 10//12 
f 21//13 24//14 11//14 9//13 
f 14//15 25//15 23//16 12//16 
f 23//16 3//2 2//2 12//16 
s off
f 29//17 27//17 16//17 18//17 
f 31//18 29//18 18//18 19//18 
f 27//19 25//19 14//19 16//19 
f 32//20 31//20 19//20 20//20 
f 22//21 10//21 1//21 4//21 
f 32//22 20//22 6//22 5//22 
f 30//23 8//23 7//23 17//23 
f 28//24 30//24 17//24 15//24 
# 30 polygons

