# 3ds Max Wavefront OBJ Exporter v0.97b - (c)2007 guruware
# File Created: 15.03.2017 21:52:19

mtllib flat_tile_new01.mtl

#
# object Line01
#

#
# object Line002
#

v  35.0000 1.4977 40.0000
v  35.0000 9.4977 40.0000
v  5.0000 -0.1233 40.0000
v  5.0000 -8.1233 40.0000
v  -5.0000 -0.1233 40.0000
v  -5.0000 -8.1233 40.0000
v  -35.0000 1.4977 40.0000
v  -35.0000 9.4977 40.0000
v  5.0000 -0.1233 -40.0000
v  35.0000 9.4977 -40.0000
v  35.0000 1.4977 -40.0000
v  5.0000 -8.1233 -40.0000
v  -5.0000 -0.1233 -40.0000
v  -5.0000 -8.1233 -40.0000
v  -35.0000 1.4977 -40.0000
v  -35.0000 9.4977 -40.0000
# 16 vertices

vn 0.0000 0.0000 1.0000
vn 0.0000 0.0000 -1.0000
vn -0.1225 0.9925 -0.0000
vn 0.0000 1.0000 -0.0000
vn -0.3351 0.9422 -0.0000
vn -0.3448 0.9387 -0.0000
vn 0.2944 -0.9557 -0.0000
vn 0.3351 -0.9422 -0.0000
vn -0.3448 -0.9387 -0.0000
vn 0.0000 -1.0000 -0.0000
vn 1.0000 0.0000 -0.0000
vn -1.0000 0.0000 -0.0000
vn 0.3448 0.9387 -0.0000
# 13 vertex normals

g Line002
usemtl _flat_tile_flat_tile_Material_0
s 1
f 1//1 2//1 3//1 4//1 
f 4//1 3//1 5//1 6//1 
f 7//1 6//1 5//1 8//1 
f 9//2 10//2 11//2 12//2 
f 13//2 9//2 12//2 14//2 
f 13//2 14//2 15//2 16//2 
f 3//3 9//4 13//4 5//4 
f 2//5 10//5 9//6 3//6 
f 4//7 12//7 11//8 1//8 
s off
f 7//9 15//9 14//9 6//9 
f 6//10 14//10 12//10 4//10 
f 11//11 10//11 2//11 1//11 
f 16//12 15//12 7//12 8//12 
f 5//13 13//13 16//13 8//13 
# 14 polygons

