# File produced by Open Asset Import Library (http://www.assimp.sf.net)
# (assimp v3.1.187496374)

mtllib flat_tile_left_end_center.obj.mtl

# 91 vertex positions
v  -1.4e-05 3.22983 30
v  -1.4e-05 11.2298 30
v  -1.8e-05 12.8333 35
v  -1.8e-05 4.83333 35
v  -2.1e-05 1.3931 25
v  -2.1e-05 9.3931 25
v  -2.2e-05 -0.501945 20
v  -2.2e-05 7.49805 20
v  -1.8e-05 -2.28037 15
v  -1.8e-05 5.71963 15
v  -1.1e-05 -3.76725 9.99998
v  -1.1e-05 4.23275 9.99998
v  -1.3e-05 -4.78766 4.99998
v  -1.3e-05 3.21234 4.99998
v  -2.1e-05 -5.16667 -1.52588e-05
v  -2.1e-05 2.83333 -1.52588e-05
v  -1.7e-05 -4.78766 -5.00001
v  -1.7e-05 3.21234 -5.00001
v  -2.5e-05 -3.76725 -10
v  -2.5e-05 4.23275 -10
v  -2.1e-05 -2.28037 -15
v  -2.1e-05 5.71963 -15
v  -2.2e-05 -0.501946 -20
v  -2.2e-05 7.49805 -20
v  -1.5e-05 1.3931 -25
v  -1.5e-05 9.3931 -25
v  -1.9e-05 3.22983 -30
v  -1.9e-05 11.2298 -30
v  -1.9e-05 4.83333 -35
v  -1.9e-05 12.8333 -35
v  -80 4.83333 -35
v  -80 12.8333 -35
v  -80 12.3462 -34.5653
v  -80 8.34619 -34.5653
v  -77.3925 3.96188 -32.2827
v  -56.7916 5.49597 -14.2479
v  -53.9358 4.75253 -11.7479
v  -50.2087 3.92357 -8.48506
v  -47.353 3.41337 -5.98506
v  -24.2808 -2.51436 14.2131
v  -44.9296 3.12619 -3.86349
v  -27.1365 -3.2578 11.7131
v  -30.7895 -4.07028 8.51516
v  -33.6453 -4.58048 6.01516
v  -42.0738 -5.06331 -1.36349
v  -44.9296 -4.87381 -3.86349
v  -42.0738 2.93669 -1.36349
v  -39.1664 2.92291 1.18176
v  -36.3107 3.11242 3.68176
v  -33.6453 3.41952 6.01516
v  -30.7895 3.92972 8.51516
v  -21.2055 -1.60267 16.9053
v  -27.1365 4.74219 11.7131
v  -18.3498 -0.713457 19.4053
v  -15.2745 0.293044 22.0975
v  -24.2808 5.48563 14.2131
v  -21.2055 6.39733 16.9053
v  -12.4188 1.24057 24.5975
v  -11.5606 1.52124 25.3488
v  -8.70487 2.4396 27.8488
v  -18.3498 7.28654 19.4053
v  -3.41074 4.02628 32.4835
v  -0.553249 4.82853 34.985
v  -0.536145 4.86014 35
v  -15.2745 8.29304 22.0975
v  -12.4188 9.24057 24.5975
v  -11.5606 9.52124 25.3488
v  -8.70487 10.4396 27.8488
v  -3.41248 12.0258 32.4819
v  -0.536145 8.85013 35
v  -0.536145 12.8333 35
v  -47.353 -4.58663 -5.98506
v  -50.2087 -4.07643 -8.48506
v  -72.2934 2.42854 -27.8187
v  -53.9359 -3.24747 -11.7479
v  -69.4377 1.51017 -25.3187
v  -68.6536 1.25374 -24.6323
v  -56.7916 -2.50403 -14.2479
v  -65.7933 0.331575 -22.1283
v  -61.2499 -1.15268 -18.1508
v  -58.3953 -2.04851 -15.6519
v  -39.1664 -5.07709 1.18176
v  -36.3107 -4.88758 3.68175
v  -72.3154 10.4356 -27.838
v  -77.3925 11.9619 -32.2827
v  -69.8237 9.63431 -25.6566
v  -69.4377 9.51017 -25.3187
v  -68.6536 9.25373 -24.6323
v  -65.7979 8.30621 -22.1323
v  -61.2511 6.8407 -18.1519
v  -58.3953 5.95149 -15.6519

# 0 UV coordinates

# 130 vertex normals
vn 1 0 0
vn 1 0 -1e-06
vn 1 0 1e-06
vn 0 0 -1
vn -1 0 0
vn -0.732279 -0.083629 0.67585
vn -0.674393 -0.016743 0.738183
vn -0.665286 -0.006974 0.746556
vn -0.658689 -2e-06 0.752415
vn -0.658687 1.2e-05 0.752417
vn -0.658689 0 0.752415
vn -0.65869 -5e-06 0.752415
vn -0.658689 -4e-06 0.752415
vn -0.658689 -5e-06 0.752415
vn -0.658689 -1e-06 0.752415
vn -0.658689 1e-06 0.752416
vn -0.65869 -1.3e-05 0.752414
vn -0.658689 1e-06 0.752415
vn -0.658692 -3.2e-05 0.752413
vn -0.65869 -9e-06 0.752415
vn -0.658689 2e-06 0.752415
vn -0.658687 1.1e-05 0.752417
vn -0.658685 2.6e-05 0.752419
vn -0.65868 5.2e-05 0.752423
vn -0.658681 4.8e-05 0.752423
vn -0.658692 -1.4e-05 0.752413
vn -0.658692 -1.3e-05 0.752413
vn -0.658695 -3.5e-05 0.75241
vn -0.658695 -3.1e-05 0.75241
vn -0.658689 -9e-06 0.752415
vn -0.65869 -8e-06 0.752414
vn -0.658688 8e-06 0.752416
vn -0.658684 3.5e-05 0.75242
vn -0.658679 6.9e-05 0.752424
vn -0.65869 -4e-06 0.752415
vn -0.658692 -1.7e-05 0.752413
vn 0 0 1
vn -0.007127 -0.142546 0.989762
vn -0.01072 -0.214392 0.976689
vn -0.02094 -0.418789 0.907842
vn -0.002722 0.946749 -0.321962
vn -0.002722 0.942181 -0.335093
vn -0.002722 0.951133 -0.30877
vn 0 0.95223 -0.30538
vn 0 0.95223 -0.305381
vn -3.4e-05 0.936879 -0.349653
vn -8.5e-05 0.937751 -0.347308
vn -8.5e-05 0.935961 -0.352103
vn 0.000191 0.935551 -0.353192
vn 0.000143 0.939019 -0.343866
vn 0.000287 0.939353 -0.342951
vn 0.000438 0.943706 -0.330785
vn 0.000329 0.951739 -0.306908
vn 0.000657 0.952791 -0.303626
vn 0.000824 0.962005 -0.273031
vn 0.000824 0.969577 -0.244787
vn 0.000824 0.97632 -0.216329
vn 0.000524 0.988335 -0.152296
vn 0.001048 0.986042 -0.166496
vn 0.000699 0.995505 -0.094704
vn 0.000475 1 0.000542
vn 0.001185 0.999334 -0.036467
vn 0.001185 0.999232 0.039171
vn 0.000484 0.995516 0.094594
vn 0.000484 0.990681 0.136198
vn 0.000484 0.984108 0.177569
vn 0.000283 0.969993 0.243131
vn 0.000707 0.974956 0.222399
vn 0.000707 0.964265 0.264938
vn 0.000112 0.956173 0.292801
vn 0.000112 0.950884 0.309546
vn 0.000112 0.945302 0.326196
vn 6.8e-05 0.938655 0.344857
vn 0.000171 0.940373 0.340145
vn 0.000171 0.936829 0.349789
vn -9e-06 0.935647 0.352938
vn -9e-06 0.936845 0.349744
vn -9e-06 0.938033 0.346546
vn -0.004273 0.927184 0.374582
vn 0 0.938669 0.344819
vn 0.004589 0.986957 0.160921
vn 0.001974 0.969757 0.244064
vn -0.017244 0.838404 0.544776
vn -0.033271 0.665416 0.745731
vn 0 0.952231 0.30538
vn -0.000327 0.942165 0.335149
vn 1e-06 -0.952231 0.30538
vn 0.008751 -0.945107 0.326644
vn 0.010626 -0.947841 0.318565
vn 1e-06 -0.95223 0.30538
vn 0.005284 -0.938696 0.344705
vn -0.002811 -0.941415 0.337237
vn 8.6e-05 -0.937751 0.347309
vn 5.7e-05 -0.935671 0.352872
vn -0.000143 -0.93724 0.348686
vn -0.000286 -0.93578 0.352584
vn -0.000191 -0.940302 0.340342
vn -0.000329 -0.947614 0.319418
vn -0.000657 -0.944464 0.328615
vn -0.000438 -0.95474 0.297442
vn -0.001925 -0.966436 0.256899
vn -0.000291 -0.970239 0.242148
vn -0.001185 -0.983762 0.179475
vn 0.00245 -0.97538 0.220516
vn 0.000391 -0.99103 0.133638
vn -0.00024 -0.999214 0.039641
vn 0.002517 -0.99496 0.10024
vn -0.001185 -0.999334 0.036467
vn -0.00079 -0.998682 -0.051322
vn -0.001062 -0.993102 -0.117249
vn 0.000694 -0.990333 -0.138709
vn 0.000134 -0.976788 -0.21421
vn 0.002631 -0.985427 -0.170077
vn -0.000707 -0.974956 -0.222398
vn -0.000471 -0.962395 -0.271653
vn -0.000243 -0.953363 -0.301826
vn 0.000437 -0.950618 -0.310363
vn 3.3e-05 -0.941378 -0.337353
vn 0.000928 -0.946048 -0.324026
vn -0.000381 -0.939277 -0.34316
vn -0.000303 -0.936863 -0.349695
vn -9e-05 -0.937387 -0.34829
vn -8.5e-05 -0.937982 -0.346685
vn 5.8e-05 -0.944219 -0.329318
vn -0.000183 -0.937787 -0.347211
vn 0.000329 -0.942149 -0.335194
vn 0.000329 -0.948934 -0.315475
vn -0 -0.952231 -0.30538
vn 0.658699 6e-05 -0.752406
vn 0.658688 -1.1e-05 -0.752416

# Mesh 'Box011' with 178 faces
g Box011
usemtl Material
f  1//1 2//2 3//3
f  4//3 1//1 3//3
f  1//1 5//2 2//2
f  5//2 6//2 2//2
f  5//2 7//1 6//2
f  7//1 8//1 6//2
f  7//1 9//3 8//1
f  9//3 10//3 8//1
f  9//3 11//3 10//3
f  11//3 12//1 10//3
f  11//3 13//2 12//1
f  13//2 14//2 12//1
f  13//2 15//2 14//2
f  15//2 16//1 14//2
f  15//2 17//1 16//1
f  17//1 18//2 16//1
f  17//1 19//2 18//2
f  19//2 20//1 18//2
f  19//2 21//3 20//1
f  21//3 22//1 20//1
f  21//3 23//1 22//1
f  23//1 24//3 22//1
f  23//1 25//3 24//3
f  25//3 26//1 24//3
f  25//3 27//2 26//1
f  27//2 28//1 26//1
f  27//2 29//1 28//1
f  29//1 30//1 28//1
f  31//4 32//4 30//4
f  29//4 31//4 30//4
f  33//5 32//5 34//5
f  34//5 32//5 31//5
f  31//6 35//7 34//8
f  36//9 33//10 34//8
f  37//11 36//9 34//8
f  38//11 37//11 34//8
f  39//12 38//11 34//8
f  40//11 41//11 34//8
f  42//11 40//11 34//8
f  43//11 42//11 34//8
f  44//13 43//11 34//8
f  45//14 44//13 34//8
f  46//11 45//14 34//8
f  46//11 34//8 35//7
f  47//15 41//11 40//11
f  40//11 48//9 47//15
f  49//11 48//9 40//11
f  50//11 49//11 40//11
f  51//11 50//11 52//11
f  50//11 40//11 52//11
f  53//11 51//11 52//11
f  53//11 52//11 54//11
f  53//11 54//11 55//11
f  56//11 53//11 55//11
f  57//11 56//11 55//11
f  57//11 55//11 58//11
f  57//11 58//11 59//16
f  57//11 59//16 60//11
f  61//17 57//11 60//11
f  61//17 60//11 62//18
f  61//17 62//18 63//19
f  61//17 63//19 64//20
f  65//11 61//17 64//20
f  66//11 65//11 64//20
f  67//18 66//11 64//20
f  68//18 67//18 64//20
f  69//11 68//18 64//20
f  69//11 64//20 70//11
f  71//11 69//11 70//11
f  72//21 46//11 35//7
f  73//22 72//21 35//7
f  73//22 35//7 74//18
f  75//23 73//22 74//18
f  75//23 74//18 76//24
f  77//25 78//26 75//23
f  77//25 75//23 76//24
f  77//25 79//27 78//26
f  80//28 81//29 78//26
f  79//27 80//28 78//26
f  45//14 82//30 44//13
f  82//30 83//14 44//13
f  84//31 85//32 33//10
f  86//33 84//31 33//10
f  87//34 86//33 33//10
f  88//32 87//34 33//10
f  89//35 88//32 33//10
f  90//21 89//35 33//10
f  91//36 90//21 33//10
f  3//37 71//37 70//37
f  70//37 4//38 3//37
f  64//39 4//38 70//37
f  4//38 64//39 63//40
f  2//41 68//42 69//43
f  69//43 3//44 2//41
f  71//45 3//44 69//43
f  68//42 2//41 6//46
f  6//46 67//47 68//42
f  66//48 6//46 65//49
f  65//49 6//46 8//50
f  67//47 6//46 66//48
f  8//50 61//51 65//49
f  57//52 8//50 10//53
f  61//51 8//50 57//52
f  10//53 56//54 57//52
f  53//55 10//53 12//56
f  56//54 10//53 53//55
f  12//56 51//57 53//55
f  51//57 12//56 14//58
f  14//58 50//59 51//57
f  49//60 14//58 16//61
f  50//59 14//58 49//60
f  16//61 48//62 49//60
f  47//63 16//61 41//64
f  41//64 16//61 18//65
f  48//62 16//61 47//63
f  18//65 39//66 41//64
f  39//66 18//65 20//67
f  20//67 38//68 39//66
f  37//69 20//67 36//70
f  36//70 20//67 22//71
f  38//68 20//67 37//69
f  22//71 91//72 36//70
f  91//72 22//71 24//73
f  24//73 90//74 91//72
f  89//75 24//73 88//76
f  88//76 24//73 26//77
f  90//74 24//73 89//75
f  26//77 87//78 88//76
f  87//78 26//77 28//79
f  28//79 86//80 87//78
f  33//81 85//82 28//79
f  28//79 32//83 33//84
f  32//83 28//79 30//85
f  28//79 85//82 84//86
f  84//86 86//80 28//79
f  63//87 62//88 1//89
f  1//89 4//90 63//87
f  5//91 1//89 62//88
f  62//88 60//92 5//91
f  5//91 60//92 59//93
f  5//91 59//93 58//94
f  7//95 5//91 58//94
f  58//94 55//96 7//95
f  7//95 55//96 54//97
f  9//98 7//95 54//97
f  54//97 52//99 9//98
f  9//98 52//99 40//100
f  11//101 9//98 40//100
f  40//100 42//102 11//101
f  13//103 11//101 42//102
f  42//102 43//104 13//103
f  13//103 43//104 44//105
f  15//106 13//103 44//105
f  44//105 83//107 15//106
f  15//106 83//107 82//108
f  15//106 82//108 45//109
f  17//110 15//106 45//109
f  45//109 46//111 17//110
f  19//112 17//110 46//111
f  46//111 72//113 19//112
f  19//112 72//113 73//114
f  19//112 73//114 75//115
f  21//116 19//112 75//115
f  75//115 78//117 21//116
f  23//118 21//116 78//117
f  78//117 81//119 23//118
f  23//118 81//119 80//120
f  23//118 80//120 79//121
f  25//122 23//118 79//121
f  79//121 77//123 25//122
f  27//124 25//122 77//123
f  77//123 76//125 27//124
f  27//124 76//125 74//126
f  35//127 31//128 27//124
f  27//124 74//126 35//127
f  27//124 31//128 29//128
f  36//129 91//129 33//129
f  41//130 39//130 34//130

