v 17.5 15.63290024 40 1 1 1
vn 0.1052371189 0.01855638064 0.9942740202
v 16.44459915 21.61829948 40 1 1 1
vn 0.9171238542 0.3961824179 0.04385552183
v 13.40579987 26.88169861 40 1 1 1
vn 0.6731740236 0.6357799172 0.3776515126
v 3.038840055 32.86709976 40 1 1 1
vn 0.07332292199 0.6302148104 0.7729508877
v 8.75 30.78840065 40 1 1 1
vn 0.4478954971 0.8930096626 0.04385653138
v -3.038850069 32.86709976 40 1 1 1
vn -0.2309105992 0.9719860554 0.04385634512
v -8.75 30.78840065 40 1 1 1
vn -0.2328380048 0.3536020815 0.9059536457
v -13.40579987 26.88169861 40 1 1 1
vn -0.8016691208 0.596157074 0.04385637864
v -16.44459915 21.61829948 40 1 1 1
vn -0.426202476 0.1273498535 0.8956190348
v -17.5 15.63290024 40 1 1 1
vn -0.4146470129 0.07311438769 0.907040298
v 17.5 -32.86709976 40 1 1 1
vn 0.6613382101 -0.4772543609 0.5786709189
v -17.5 15.63290024 40 1 1 1
vn -0.7525767088 4.032177592e-017 0.6585046053
v -17.5 -32.86709976 40 1 1 1
vn -0.7984354496 -0.5761905313 0.1746577471
v 17.5 15.63290024 24 1 1 1
vn 0.9848073721 0.1736503243 -1.063301552e-017
v 16.44459915 21.61829948 24 1 1 1
vn 0.9396933913 0.3420180678 -2.094256702e-017
v 13.40579987 26.88169861 24 1 1 1
vn 0.7660456896 0.6427861452 -3.935929834e-017
v 16.44459915 21.61829948 8 1 1 1
vn 0.9396933913 0.3420180678 -2.094256702e-017
v 13.40579987 26.88169861 8 1 1 1
vn 0.7660456896 0.6427861452 -3.935929834e-017
v 17.5 -32.86709976 -40 1 1 1
vn 0.7984354496 -0.5761905313 -0.1746577471
v 17.5 15.63290024 -40 1 1 1
vn 0.7525767088 -4.032177592e-017 -0.6585046053
v 8.75 30.78840065 24 1 1 1
vn 0.5000020266 0.8660242558 -5.302868957e-017
v 8.75 30.78840065 8 1 1 1
vn 0.5000020266 0.8660242558 -5.302868957e-017
v 3.038840055 32.86709976 24 1 1 1
vn 0.1736487299 0.9848076701 -6.030207546e-017
v 3.038840055 32.86709976 8 1 1 1
vn 0.1736487299 0.9848076701 -6.030207546e-017
v 8.75 30.78840065 -8 1 1 1
vn 0.5000020266 0.8660242558 -5.302868957e-017
v 3.038840055 32.86709976 -8 1 1 1
vn 0.1736487299 0.9848076701 -6.030207546e-017
v -3.038850069 32.86709976 8 1 1 1
vn -0.173648864 0.9848076105 -6.030207546e-017
v -3.038850069 32.86709976 -8 1 1 1
vn -0.173648864 0.9848076105 -6.030207546e-017
v -3.038850069 32.86709976 24 1 1 1
vn -0.173648864 0.9848076105 -6.030207546e-017
v -8.75 30.78840065 8 1 1 1
vn -0.5000023842 0.8660240173 -5.302867633e-017
v -8.75 30.78840065 -8 1 1 1
vn -0.5000023842 0.8660240173 -5.302867633e-017
v -3.038850069 32.86709976 -24 1 1 1
vn -0.173648864 0.9848076105 -6.030207546e-017
v -8.75 30.78840065 -24 1 1 1
vn -0.5000023842 0.8660240173 -5.302867633e-017
v -13.40579987 26.88169861 -8 1 1 1
vn -0.7660456896 0.6427861452 -3.935929834e-017
v -13.40579987 26.88169861 -24 1 1 1
vn -0.7660456896 0.6427861452 -3.935929834e-017
v -8.75 30.78840065 24 1 1 1
vn -0.5000023842 0.8660240173 -5.302867633e-017
v -13.40579987 26.88169861 8 1 1 1
vn -0.7660456896 0.6427861452 -3.935929834e-017
v -16.44459915 21.61829948 -8 1 1 1
vn -0.9396933913 0.3420180678 -2.094256702e-017
v -16.44459915 21.61829948 -24 1 1 1
vn -0.9396933913 0.3420180678 -2.094256702e-017
v -13.40579987 26.88169861 -40 1 1 1
vn -0.6731741428 0.6357800364 -0.3776510954
v -16.44459915 21.61829948 -40 1 1 1
vn -0.9171238542 0.3961824179 -0.04385552183
v -17.5 15.63290024 -24 1 1 1
vn -0.9848073721 0.1736503243 -1.063301552e-017
v -17.5 15.63290024 -40 1 1 1
vn -0.2069591135 0.03649294376 -0.9776687622
v -16.44459915 21.61829948 8 1 1 1
vn -0.9396933913 0.3420180678 -2.094256702e-017
v -17.5 15.63290024 -8 1 1 1
vn -0.9848073721 0.1736503243 -1.063301552e-017
v -13.40579987 26.88169861 24 1 1 1
vn -0.7660456896 0.6427861452 -3.935929834e-017
v -16.44459915 21.61829948 24 1 1 1
vn -0.9396933913 0.3420180678 -2.094256702e-017
v -17.5 15.63290024 8 1 1 1
vn -0.9848073721 0.1736503243 -1.063301552e-017
v -17.5 15.63290024 24 1 1 1
vn -0.9848073721 0.1736503243 -1.063301552e-017
v -8.75 30.78840065 -40 1 1 1
vn -0.4478959441 0.8930094242 -0.04385644197
v -3.038850069 32.86709976 -40 1 1 1
vn -0.07332294434 0.6302146316 -0.7729510069
v 3.038840055 32.86709976 -24 1 1 1
vn 0.1736487299 0.9848076701 -6.030207546e-017
v 3.038840055 32.86709976 -40 1 1 1
vn 0.2309103459 0.971986115 -0.04385629669
v 8.75 30.78840065 -24 1 1 1
vn 0.5000020266 0.8660242558 -5.302868957e-017
v 8.75 30.78840065 -40 1 1 1
vn 0.2328379303 0.3536022305 -0.9059536457
v 13.40579987 26.88169861 -8 1 1 1
vn 0.7660456896 0.6427861452 -3.935929834e-017
v 13.40579987 26.88169861 -24 1 1 1
vn 0.7660456896 0.6427861452 -3.935929834e-017
v 16.44459915 21.61829948 -8 1 1 1
vn 0.9396933913 0.3420180678 -2.094256702e-017
v 16.44459915 21.61829948 -24 1 1 1
vn 0.9396933913 0.3420180678 -2.094256702e-017
v 13.40579987 26.88169861 -40 1 1 1
vn 0.8016691208 0.596157074 -0.04385637864
v 17.5 15.63290024 8 1 1 1
vn 0.9848073721 0.1736503243 -1.063301552e-017
v 17.5 15.63290024 -8 1 1 1
vn 0.9848073721 0.1736503243 -1.063301552e-017
v 17.5 15.63290024 -24 1 1 1
vn 0.9848073721 0.1736503243 -1.063301552e-017
v 16.44459915 21.61829948 -40 1 1 1
vn 0.426202476 0.1273498535 -0.8956190348
v 17.5 15.63290024 -40 1 1 1
vn 0.4146470129 0.07311438769 -0.907040298
v -17.5 -32.86709976 -40 1 1 1
vn -0.6613382101 -0.4772543609 -0.5786709189
v -17.5 15.63290024 -40 1 1 1
vn -0.9769000411 -1.308516018e-017 -0.2136968821
v 17.5 15.63290024 40 1 1 1
vn 0.9769000411 1.308516018e-017 0.2136968821
v 17.5 15.63290024 40 1 1 1
vn 0.9848073721 0.1736503243 -1.063301552e-017
# mm_gid 0
g mmGroup0
f 1//1 2//2 3//3 
f 4//4 1//1 3//3 
f 5//5 4//4 3//3 
f 4//4 6//6 7//7 
f 4//4 7//7 1//1 
f 7//7 8//8 9//9 
f 7//7 9//9 1//1 
f 9//9 10//10 1//1 
f 11//11 68//68 12//12 
f 12//12 13//13 11//11 
f 69//69 14//14 15//15 
f 15//15 2//2 1//1 
f 2//2 15//15 16//16 
f 17//17 15//15 14//14 
f 15//15 17//17 18//18 
f 18//18 16//16 15//15 
f 68//68 11//11 19//19 
f 19//19 20//20 68//68 
f 16//16 3//3 2//2 
f 3//3 16//16 21//21 
f 16//16 18//18 22//22 
f 22//22 21//21 16//16 
f 21//21 5//5 3//3 
f 5//5 21//21 23//23 
f 21//21 22//22 24//24 
f 24//24 23//23 21//21 
f 25//25 22//22 18//18 
f 22//22 25//25 26//26 
f 26//26 24//24 22//22 
f 23//23 24//24 27//27 
f 24//24 26//26 28//28 
f 28//28 27//27 24//24 
f 23//23 4//4 5//5 
f 4//4 23//23 29//29 
f 27//27 29//29 23//23 
f 29//29 27//27 30//30 
f 27//27 28//28 31//31 
f 31//31 30//30 27//27 
f 32//32 28//28 26//26 
f 28//28 32//32 33//33 
f 33//33 31//31 28//28 
f 30//30 31//31 34//34 
f 31//31 33//33 35//35 
f 35//35 34//34 31//31 
f 30//30 36//36 29//29 
f 36//36 30//30 37//37 
f 34//34 37//37 30//30 
f 37//37 34//34 38//38 
f 34//34 35//35 39//39 
f 39//39 38//38 34//34 
f 40//40 35//35 33//33 
f 35//35 40//40 41//41 
f 41//41 39//39 35//35 
f 38//38 39//39 42//42 
f 39//39 41//41 43//43 
f 43//43 42//42 39//39 
f 38//38 44//44 37//37 
f 44//44 38//38 45//45 
f 42//42 45//45 38//38 
f 46//46 37//37 44//44 
f 44//44 47//47 46//46 
f 47//47 44//44 48//48 
f 45//45 48//48 44//44 
f 7//7 36//36 46//46 
f 46//46 8//8 7//7 
f 8//8 46//46 47//47 
f 37//37 46//46 36//36 
f 47//47 9//9 8//8 
f 9//9 47//47 49//49 
f 48//48 49//49 47//47 
f 49//49 10//10 9//9 
f 6//6 29//29 36//36 
f 36//36 7//7 6//6 
f 29//29 6//6 4//4 
f 33//33 50//50 40//40 
f 50//50 33//33 32//32 
f 32//32 51//51 50//50 
f 26//26 52//52 32//32 
f 51//51 32//32 52//52 
f 52//52 53//53 51//51 
f 25//25 54//54 52//52 
f 52//52 26//26 25//25 
f 53//53 52//52 54//54 
f 54//54 55//55 53//53 
f 56//56 57//57 54//54 
f 54//54 25//25 56//56 
f 55//55 54//54 57//57 
f 18//18 56//56 25//25 
f 17//17 58//58 56//56 
f 56//56 18//18 17//17 
f 57//57 56//56 58//58 
f 58//58 59//59 57//57 
f 60//60 57//57 59//59 
f 57//57 60//60 55//55 
f 61//61 62//62 58//58 
f 58//58 17//17 61//61 
f 59//59 58//58 62//62 
f 14//14 61//61 17//17 
f 62//62 63//63 59//59 
f 64//64 59//59 63//63 
f 59//59 64//64 60//60 
f 63//63 65//65 64//64 
f 43//43 41//41 40//40 
f 51//51 43//43 40//40 
f 50//50 51//51 40//40 
f 64//64 65//65 43//43 
f 55//55 64//64 43//43 
f 51//51 55//55 43//43 
f 51//51 53//53 55//55 
f 55//55 60//60 64//64 
f 19//19 11//11 13//13 
f 13//13 66//66 19//19 
f 20//20 19//19 66//66 
f 66//66 67//67 20//20 
f 67//67 66//66 13//13 
f 13//13 12//12 67//67 
