# 3ds Max Wavefront OBJ Exporter v0.97b - (c)2007 guruware
# File Created: 21.02.2017 12:08:06

mtllib frieze_new.mtl

#
# object object
#

v  -1.4965 6.6733 -14.9463
v  -1.4965 6.7108 -14.9463
v  -1.4716 6.7108 -14.9463
v  1.4965 6.7108 -14.9463
v  -1.4965 -6.7576 -14.9463
v  1.4965 -6.7576 -14.9463
v  -1.4716 6.7108 14.9835
v  -1.4965 6.7108 14.9835
v  -1.4965 6.6733 14.9835
v  -1.4965 -6.7576 14.9835
v  1.4965 -6.7576 14.9835
v  1.4965 6.6732 14.9835
v  1.4217 6.7108 14.9835
v  1.4965 6.7108 14.9835
v  1.4715 6.7108 14.9835
v  -1.4716 6.7108 -13.9362
v  -0.7483 7.8018 14.9835
v  -0.7483 7.8018 -14.9335
v  -1.4716 6.7108 -14.9335
v  0.7482 7.8018 -14.9335
v  0.7482 7.8018 14.9835
v  1.4715 6.7108 13.9866
v  1.4715 6.7108 -14.9335
v  -1.4217 6.7108 -14.9335
v  1.4964 20.2169 -14.9334
v  1.4965 20.2169 14.9835
v  0.7482 19.0883 14.9835
v  0.7482 19.0883 -14.9334
v  -0.7483 19.0883 -14.9334
v  -0.7483 19.0883 14.9835
v  -1.4965 20.2169 14.9835
v  -1.4965 20.2169 -14.9334
v  0.7482 11.7521 6.7528
v  0.7482 15.1380 6.7528
v  0.7482 15.1380 8.2493
v  0.7482 11.7521 8.2493
v  0.7482 12.8808 6.7528
v  0.7482 11.7521 -6.7156
v  0.7482 12.8808 -6.7156
v  0.7482 15.1380 -6.7156
v  0.7482 11.7521 -8.2121
v  0.7482 14.0094 -6.7156
v  0.7482 15.1380 -8.2121
v  0.7482 14.0094 6.7528
v  -0.7483 11.7521 6.7528
v  -0.7483 11.7521 8.2493
v  -0.7483 15.1380 8.2493
v  -0.7483 15.1380 6.7528
v  -0.7483 11.7521 -6.7156
v  -0.7483 11.7521 -8.2121
v  0.7482 7.8019 10.4940
v  0.7482 19.0883 10.4940
v  0.7482 19.0883 11.9905
v  0.7482 7.8019 11.9905
v  -0.7483 7.8019 10.4940
v  -0.7483 7.8019 11.9905
v  -0.7483 19.0883 11.9905
v  -0.7483 19.0883 10.4940
v  0.7482 16.8310 -10.4568
v  0.7482 17.9596 -10.4569
v  0.7482 17.9596 10.4940
v  0.7482 16.8310 10.4940
v  -0.7483 16.8310 -10.4569
v  -0.7483 16.8310 10.4940
v  -0.7483 17.9596 10.4940
v  -0.7483 17.9596 -10.4569
v  -0.7483 14.0094 -6.7156
v  -0.7483 14.0094 6.7528
v  -0.7483 15.1380 -6.7156
v  -0.7483 15.1380 -8.2121
v  -0.7483 12.8808 6.7528
v  -0.7483 12.8808 -6.7156
v  0.7482 15.1380 -0.7296
v  0.7482 16.8310 -0.7296
v  0.7482 16.8310 0.7669
v  0.7482 15.1380 0.7669
v  -0.7483 15.1380 -0.7296
v  -0.7483 15.1380 0.7669
v  -0.7483 16.8310 0.7669
v  -0.7483 16.8310 -0.7296
v  0.7482 10.0592 -0.7296
v  0.7482 11.7521 -0.7296
v  0.7482 11.7521 0.7669
v  0.7482 10.0592 0.7669
v  -0.7483 10.0592 -0.7296
v  -0.7483 10.0592 0.7669
v  -0.7483 11.7521 0.7669
v  -0.7483 11.7521 -0.7296
v  0.7482 8.9305 -10.4568
v  0.7482 10.0592 -10.4568
v  0.7482 10.0592 10.4940
v  0.7482 8.9305 10.4940
v  -0.7483 8.9305 -10.4568
v  -0.7483 8.9305 10.4940
v  -0.7483 10.0592 10.4940
v  -0.7483 10.0592 -10.4568
v  0.7482 7.8018 -11.9533
v  0.7482 19.0883 -11.9533
v  0.7482 19.0883 -10.4568
v  0.7482 7.8018 -10.4568
v  -0.7483 7.8018 -11.9533
v  -0.7483 7.8018 -10.4568
v  -0.7483 19.0883 -10.4568
v  -0.7483 19.0883 -11.9533
v  0.7482 10.6235 -13.4498
v  0.7482 11.7521 -13.4498
v  0.7482 11.7521 -11.9533
v  0.7482 10.6235 -11.9533
v  -0.7483 10.6235 -13.4498
v  -0.7483 10.6235 -11.9533
v  -0.7483 11.7521 -11.9533
v  -0.7483 11.7521 -13.4498
v  0.7482 15.1380 -13.4498
v  0.7482 16.2667 -13.4498
v  0.7482 16.2667 -11.9533
v  0.7482 15.1380 -11.9533
v  -0.7483 15.1380 -13.4498
v  -0.7483 15.1380 -11.9533
v  -0.7483 16.2667 -11.9533
v  -0.7483 16.2667 -13.4498
v  0.7482 19.0883 -13.4498
v  -0.7483 19.0883 -13.4498
v  -0.7483 7.8018 -13.4498
v  0.7482 7.8018 -13.4498
v  -0.7483 7.8018 -14.9463
v  0.7482 7.8018 -14.9463
v  -0.7483 9.7916 -14.9463
v  0.7482 9.7915 -14.9463
v  0.7482 19.0883 -14.9463
v  -0.7483 19.0883 -14.9463
v  0.7482 9.7915 -14.9335
v  0.7482 17.0985 -14.9335
v  0.7482 17.0985 -14.9463
v  -0.7483 17.0985 -14.9463
v  -0.7483 17.0985 -14.9335
v  -0.7483 9.7916 -14.9335
v  0.7482 16.2666 14.9835
v  -0.7483 16.2666 14.9835
v  -0.7483 10.6234 14.9835
v  0.7482 10.6234 14.9835
v  -0.7483 7.8018 13.4870
v  0.7482 7.8018 13.4870
v  -0.7483 19.0883 13.4870
v  0.7482 19.0883 13.4870
v  0.7482 12.8808 11.9905
v  0.7482 14.0094 11.9905
v  0.7482 14.0094 13.4870
v  0.7482 12.8808 13.4870
v  -0.7483 12.8808 11.9905
v  -0.7483 12.8808 13.4870
v  -0.7483 14.0094 13.4870
v  -0.7483 14.0094 11.9905
v  0.7482 9.4948 11.9905
v  0.7482 10.6235 11.9905
v  0.7482 10.6235 13.4870
v  0.7482 9.4948 13.4870
v  -0.7483 9.4948 11.9905
v  -0.7483 9.4948 13.4870
v  -0.7483 10.6235 13.4870
v  -0.7483 10.6235 11.9905
v  0.7482 16.2667 11.9905
v  0.7482 17.3953 11.9905
v  0.7482 17.3953 13.4870
v  0.7482 16.2667 13.4870
v  -0.7483 16.2667 11.9905
v  -0.7483 16.2667 13.4870
v  -0.7483 17.3953 13.4870
v  -0.7483 17.3953 11.9905
v  -1.4965 -20.3183 -14.9335
v  -1.4965 -20.3183 14.9835
v  -0.7483 -19.1896 14.9835
v  -0.7483 -19.1897 -14.9335
v  0.7482 -19.1897 -14.9335
v  0.7482 -19.1896 14.9835
v  1.4965 -20.3183 14.9835
v  1.4964 -20.3183 -14.9335
v  1.4964 -6.7746 -14.9334
v  1.4965 -6.7746 14.9835
v  0.7482 -7.9032 14.9835
v  0.7482 -7.9032 -14.9334
v  -0.7483 -7.9032 -14.9334
v  -0.7483 -7.9032 14.9835
v  -1.4965 -6.7746 14.9835
v  -1.4965 -6.7746 -14.9334
v  0.7482 -15.2394 6.7528
v  0.7482 -11.8535 6.7528
v  0.7482 -11.8535 8.2493
v  0.7482 -15.2394 8.2493
v  0.7482 -14.1108 6.7528
v  0.7482 -15.2394 -6.7156
v  0.7482 -14.1108 -6.7156
v  -0.7483 -15.2394 6.7528
v  -0.7483 -15.2394 8.2493
v  -0.7483 -11.8535 8.2493
v  -0.7483 -11.8535 6.7528
v  -0.7483 -15.2394 -6.7156
v  0.7482 -19.1896 10.4940
v  0.7482 -7.9032 10.4940
v  0.7482 -7.9032 11.9905
v  0.7482 -19.1896 11.9905
v  -0.7483 -19.1896 10.4940
v  -0.7483 -19.1896 11.9905
v  -0.7483 -7.9032 11.9905
v  -0.7483 -7.9032 10.4940
v  0.7482 -10.1605 -10.4568
v  0.7482 -9.0319 -10.4569
v  0.7482 -9.0319 10.4940
v  0.7482 -10.1605 10.4940
v  -0.7483 -10.1605 -10.4569
v  -0.7483 -10.1605 10.4940
v  -0.7483 -9.0319 10.4940
v  -0.7483 -9.0319 -10.4569
v  0.7482 -12.9821 -6.7156
v  0.7482 -11.8535 -6.7156
v  0.7482 -12.9821 6.7528
v  0.7482 -15.2394 -8.2121
v  0.7482 -11.8535 -8.2121
v  -0.7483 -12.9821 -6.7156
v  -0.7483 -12.9821 6.7528
v  -0.7483 -11.8535 -6.7156
v  -0.7483 -15.2394 -8.2121
v  -0.7483 -11.8535 -8.2121
v  -0.7483 -14.1108 6.7528
v  -0.7483 -14.1108 -6.7156
v  0.7482 -11.8535 -0.7296
v  0.7482 -10.1605 -0.7296
v  0.7482 -10.1605 0.7669
v  0.7482 -11.8535 0.7668
v  -0.7483 -11.8535 -0.7296
v  -0.7483 -11.8535 0.7668
v  -0.7483 -10.1605 0.7669
v  -0.7483 -10.1605 -0.7296
v  0.7482 -16.9324 -0.7296
v  0.7482 -15.2394 -0.7296
v  0.7482 -15.2394 0.7668
v  0.7482 -16.9324 0.7669
v  -0.7483 -16.9324 -0.7296
v  -0.7483 -16.9324 0.7669
v  -0.7483 -15.2394 0.7668
v  -0.7483 -15.2394 -0.7296
v  0.7482 -18.0610 -10.4568
v  0.7482 -16.9324 -10.4568
v  0.7482 -16.9324 10.4940
v  0.7482 -18.0610 10.4940
v  -0.7483 -18.0610 -10.4568
v  -0.7483 -18.0610 10.4940
v  -0.7483 -16.9324 10.4940
v  -0.7483 -16.9324 -10.4568
v  0.7482 -19.1896 -11.9533
v  0.7482 -7.9032 -11.9533
v  0.7482 -7.9032 -10.4568
v  0.7482 -19.1896 -10.4568
v  -0.7483 -19.1896 -11.9533
v  -0.7483 -19.1896 -10.4568
v  -0.7483 -7.9032 -10.4568
v  -0.7483 -7.9032 -11.9533
v  0.7482 -16.3680 -13.4498
v  0.7482 -15.2394 -13.4498
v  0.7482 -15.2394 -11.9533
v  0.7482 -16.3680 -11.9533
v  -0.7483 -16.3680 -13.4498
v  -0.7483 -16.3680 -11.9533
v  -0.7483 -15.2394 -11.9533
v  -0.7483 -15.2394 -13.4498
v  0.7482 -11.8535 -13.4498
v  0.7482 -10.7248 -13.4498
v  0.7482 -10.7248 -11.9533
v  0.7482 -11.8535 -11.9533
v  -0.7483 -11.8535 -13.4498
v  -0.7483 -11.8535 -11.9533
v  -0.7483 -10.7248 -11.9533
v  -0.7483 -10.7248 -13.4498
v  0.7482 -7.9032 -13.4498
v  -0.7483 -7.9032 -13.4498
v  -0.7483 -19.1896 -13.4498
v  0.7482 -19.1896 -13.4498
v  -0.7483 -19.1896 -14.9463
v  0.7482 -19.1896 -14.9463
v  -0.7483 -17.1999 -14.9463
v  0.7482 -17.1999 -14.9463
v  0.7482 -7.9032 -14.9463
v  -0.7483 -7.9032 -14.9463
v  0.7482 -17.1999 -14.9335
v  0.7482 -9.8930 -14.9335
v  0.7482 -9.8930 -14.9463
v  -0.7483 -9.8930 -14.9463
v  -0.7483 -9.8930 -14.9335
v  -0.7483 -17.1999 -14.9335
v  0.7482 -10.7249 14.9835
v  -0.7483 -10.7249 14.9835
v  -0.7483 -16.3681 14.9835
v  0.7482 -16.3681 14.9835
v  -0.7483 -19.1896 13.4870
v  0.7482 -19.1896 13.4870
v  -0.7483 -7.9032 13.4870
v  0.7482 -7.9032 13.4870
v  0.7482 -14.1108 11.9905
v  0.7482 -12.9821 11.9905
v  0.7482 -12.9821 13.4870
v  0.7482 -14.1108 13.4870
v  -0.7483 -14.1108 11.9905
v  -0.7483 -14.1108 13.4870
v  -0.7483 -12.9821 13.4870
v  -0.7483 -12.9821 11.9905
v  0.7482 -17.4967 11.9905
v  0.7482 -16.3680 11.9905
v  0.7482 -16.3680 13.4870
v  0.7482 -17.4967 13.4870
v  -0.7483 -17.4967 11.9905
v  -0.7483 -17.4967 13.4870
v  -0.7483 -16.3680 13.4870
v  -0.7483 -16.3680 11.9905
v  0.7482 -10.7248 11.9905
v  0.7482 -9.5962 11.9905
v  0.7482 -9.5962 13.4870
v  0.7482 -10.7248 13.4870
v  -0.7483 -10.7248 11.9905
v  -0.7483 -10.7248 13.4870
v  -0.7483 -9.5962 13.4870
v  -0.7483 -9.5962 11.9905
# 320 vertices

vn 0.0000 0.0000 -1.0000
vn 0.0000 0.0000 1.0000
vn 0.0000 -1.0000 -0.0000
vn -1.0000 0.0000 -0.0000
vn 1.0000 0.0000 -0.0000
vn 0.0000 1.0000 -0.0000
vn -0.8335 0.5526 -0.0000
vn 0.8335 0.5526 -0.0000
vn -0.0000 1.0000 -0.0000
vn 0.0000 -0.0000 -1.0000
vn 0.8335 -0.5526 -0.0000
vn -0.8335 -0.5526 -0.0000
vn -0.0000 -0.0000 1.0000
vn -0.0000 0.0000 1.0000
vn -0.0000 -1.0000 -0.0000
vn 0.0000 -1.0000 0.0000
vn 0.0000 1.0000 0.0000
vn 1.0000 0.0000 0.0000
vn -0.0000 -0.0000 -1.0000
vn 0.0000 -0.0000 1.0000
vn -0.0000 0.0000 -1.0000
vn 1.0000 -0.0000 -0.0000
vn 1.0000 -0.0000 0.0000
vn -0.0000 -1.0000 0.0000
# 24 vertex normals

g object
usemtl _frieze_Material_0
s 1
f 1//1 2//1 3//1 
f 1//1 3//1 4//1 
f 5//1 1//1 4//1 
f 6//1 5//1 4//1 
f 7//2 8//2 9//2 
f 9//2 10//2 11//2 
f 11//2 12//2 9//2 
f 9//2 13//2 7//2 
f 13//2 9//2 12//2 
f 12//2 14//2 15//2 
f 12//2 15//2 13//2 
f 6//3 11//3 10//3 
f 10//3 5//3 6//3 
f 9//4 8//4 2//4 
f 2//4 1//4 9//4 
f 5//4 10//4 9//4 
f 9//4 1//4 5//4 
f 4//5 12//5 11//5 
f 11//5 6//5 4//5 
f 4//5 14//5 12//5 
f 15//6 14//6 4//6 
f 13//6 15//6 4//6 
f 7//6 13//6 4//6 
f 3//6 7//6 4//6 
f 2//6 8//6 7//6 
f 7//6 3//6 2//6 
f 16//7 17//7 18//7 
f 18//7 19//7 16//7 
f 16//7 7//7 17//7 
f 20//8 21//8 15//8 
f 15//8 22//8 20//8 
f 22//8 23//8 20//8 
f 13//2 15//2 21//2 
f 21//2 17//2 13//2 
f 13//2 17//2 7//2 
f 18//9 17//9 21//9 
f 21//9 20//9 18//9 
f 24//10 20//10 23//10 
f 24//10 19//10 18//10 
f 18//10 20//10 24//10 
f 25//11 26//11 27//11 
f 27//11 28//11 25//11 
f 29//12 30//12 31//12 
f 31//12 32//12 29//12 
f 31//13 30//13 27//13 
f 27//13 26//14 31//13 
f 32//6 31//6 26//6 
f 26//6 25//6 32//6 
f 28//15 27//3 30//15 
f 30//15 29//15 28//15 
f 29//10 32//1 25//10 
f 25//10 28//10 29//10 
f 33//5 34//5 35//5 
f 35//5 36//5 33//5 
f 37//5 33//5 38//5 
f 38//5 39//5 37//5 
f 40//5 38//5 41//5 
f 42//5 40//5 34//5 
f 41//5 43//5 40//5 
f 34//5 44//5 42//5 
f 45//4 46//4 47//4 
f 47//4 48//4 45//4 
f 46//2 36//2 35//2 
f 35//2 47//2 46//2 
f 45//3 33//3 36//3 
f 36//3 46//3 45//3 
f 49//3 38//3 33//3 
f 33//3 45//3 49//3 
f 50//16 41//16 38//3 
f 38//3 49//3 50//16 
f 48//1 34//1 33//1 
f 33//1 45//1 48//1 
f 47//17 35//17 34//17 
f 34//17 48//17 47//17 
f 51//18 52//18 53//18 
f 53//18 54//18 51//18 
f 55//4 56//4 57//4 
f 57//4 58//4 55//4 
f 56//2 54//2 53//2 
f 53//2 57//2 56//2 
f 55//16 51//16 54//16 
f 54//16 56//16 55//16 
f 58//1 52//1 51//1 
f 51//1 55//1 58//1 
f 57//6 53//6 52//6 
f 52//6 58//6 57//6 
f 59//5 60//5 61//5 
f 61//5 62//5 59//5 
f 63//4 64//4 65//4 
f 65//4 66//4 63//4 
f 64//2 62//2 61//2 
f 61//2 65//2 64//2 
f 63//3 59//3 62//3 
f 62//3 64//3 63//3 
f 66//10 60//10 59//10 
f 59//10 63//1 66//10 
f 65//6 61//6 60//6 
f 60//6 66//6 65//6 
f 67//4 68//4 48//4 
f 48//4 69//4 67//4 
f 50//4 49//4 69//4 
f 69//4 70//4 50//4 
f 68//2 44//2 34//2 
f 34//2 48//2 68//2 
f 67//3 42//3 44//3 
f 44//3 68//3 67//3 
f 69//1 40//1 42//1 
f 42//1 67//1 69//1 
f 48//6 34//6 40//6 
f 40//6 69//6 48//6 
f 69//6 40//6 43//6 
f 43//6 70//6 69//6 
f 49//4 45//4 71//4 
f 71//4 72//4 49//4 
f 45//2 33//2 37//2 
f 37//2 71//2 45//2 
f 72//1 39//1 38//1 
f 38//1 49//1 72//1 
f 71//6 37//6 39//6 
f 39//6 72//6 71//6 
f 73//5 74//5 75//5 
f 75//5 76//5 73//5 
f 77//4 78//4 79//4 
f 79//4 80//4 77//4 
f 78//2 76//2 75//2 
f 75//2 79//2 78//2 
f 77//16 73//16 76//16 
f 76//16 78//16 77//16 
f 80//1 74//1 73//1 
f 73//1 77//1 80//1 
f 79//6 75//6 74//6 
f 74//6 80//6 79//6 
f 81//5 82//5 83//5 
f 83//5 84//5 81//5 
f 85//4 86//4 87//4 
f 87//4 88//4 85//4 
f 86//2 84//2 83//2 
f 83//2 87//2 86//2 
f 85//3 81//3 84//3 
f 84//3 86//3 85//3 
f 88//19 82//19 81//19 
f 81//19 85//1 88//19 
f 87//6 83//6 82//6 
f 82//6 88//6 87//6 
f 89//5 90//5 91//5 
f 91//5 92//5 89//5 
f 93//4 94//4 95//4 
f 95//4 96//4 93//4 
f 94//2 92//2 91//2 
f 91//2 95//2 94//2 
f 93//3 89//3 92//3 
f 92//3 94//3 93//3 
f 96//10 90//10 89//10 
f 89//10 93//10 96//10 
f 95//6 91//6 90//6 
f 90//6 96//6 95//6 
f 49//2 38//2 40//2 
f 40//2 69//2 49//2 
f 70//1 43//1 41//1 
f 41//1 50//1 70//1 
f 97//5 98//5 99//5 
f 99//5 100//5 97//5 
f 101//4 102//4 103//4 
f 103//4 104//4 101//4 
f 102//2 100//2 99//2 
f 99//2 103//2 102//2 
f 101//3 97//3 100//3 
f 100//3 102//16 101//3 
f 104//1 98//1 97//1 
f 97//1 101//1 104//1 
f 103//6 99//6 98//6 
f 98//6 104//6 103//6 
f 105//5 106//5 107//5 
f 107//5 108//5 105//5 
f 109//4 110//4 111//4 
f 111//4 112//4 109//4 
f 110//2 108//2 107//2 
f 107//2 111//20 110//2 
f 109//3 105//3 108//3 
f 108//3 110//3 109//3 
f 112//1 106//1 105//1 
f 105//1 109//1 112//1 
f 111//6 107//6 106//6 
f 106//6 112//6 111//6 
f 113//5 114//5 115//5 
f 115//5 116//5 113//5 
f 117//4 118//4 119//4 
f 119//4 120//4 117//4 
f 118//2 116//2 115//2 
f 115//2 119//2 118//2 
f 117//3 113//3 116//3 
f 116//3 118//3 117//3 
f 120//10 114//19 113//10 
f 113//10 117//10 120//10 
f 119//6 115//6 114//6 
f 114//6 120//6 119//6 
f 121//2 122//2 123//2 
f 123//2 124//2 121//2 
f 124//3 123//3 125//3 
f 125//3 126//3 124//3 
f 125//1 127//1 128//1 
f 128//1 126//21 125//1 
f 129//6 130//6 122//6 
f 122//6 121//6 129//6 
f 126//5 128//5 131//5 
f 124//5 126//5 131//5 
f 124//5 131//5 132//5 
f 121//5 124//5 132//5 
f 129//5 121//5 132//5 
f 133//5 129//5 132//5 
f 130//4 134//4 135//4 
f 122//4 130//4 135//4 
f 123//4 122//4 135//4 
f 123//4 135//4 136//4 
f 125//4 123//4 136//4 
f 127//4 125//4 136//4 
f 130//1 129//1 133//1 
f 133//1 134//1 130//1 
f 135//3 134//3 133//3 
f 133//3 132//3 135//3 
f 136//1 135//21 132//1 
f 132//1 131//1 136//1 
f 136//6 131//6 128//6 
f 128//6 127//6 136//6 
f 137//2 138//2 139//2 
f 139//2 140//2 137//2 
f 140//2 139//2 17//2 
f 30//2 138//2 137//2 
f 137//2 27//2 30//2 
f 17//2 21//2 140//2 
f 21//3 17//3 141//3 
f 141//3 142//3 21//3 
f 142//1 141//1 143//1 
f 143//1 144//1 142//1 
f 144//6 143//6 30//6 
f 30//6 27//6 144//6 
f 144//5 27//5 137//5 
f 144//5 137//5 140//5 
f 142//5 144//5 140//5 
f 142//5 140//5 21//5 
f 141//4 17//4 139//4 
f 143//4 141//4 139//4 
f 143//4 139//4 138//4 
f 143//4 138//4 30//4 
f 145//5 146//5 147//5 
f 147//5 148//22 145//5 
f 149//4 150//4 151//4 
f 151//4 152//4 149//4 
f 150//2 148//2 147//2 
f 147//2 151//2 150//2 
f 149//3 145//3 148//3 
f 148//3 150//3 149//3 
f 152//10 146//10 145//10 
f 145//10 149//10 152//10 
f 151//17 147//17 146//17 
f 146//17 152//17 151//17 
f 153//5 154//23 155//5 
f 155//5 156//5 153//5 
f 157//4 158//4 159//4 
f 159//4 160//4 157//4 
f 158//2 156//14 155//2 
f 155//2 159//20 158//2 
f 157//3 153//3 156//3 
f 156//3 158//3 157//3 
f 160//1 154//1 153//1 
f 153//1 157//1 160//1 
f 159//6 155//6 154//6 
f 154//6 160//6 159//6 
f 161//5 162//5 163//5 
f 163//5 164//22 161//5 
f 165//4 166//4 167//4 
f 167//4 168//4 165//4 
f 166//2 164//2 163//2 
f 163//2 167//2 166//2 
f 165//3 161//3 164//3 
f 164//3 166//3 165//3 
f 168//1 162//1 161//1 
f 161//1 165//1 168//1 
f 167//6 163//6 162//6 
f 162//6 168//6 167//6 
f 169//7 170//7 171//7 
f 171//7 172//7 169//7 
f 173//8 174//8 175//8 
f 175//8 176//8 173//8 
f 175//2 174//2 171//2 
f 171//2 170//2 175//2 
f 176//3 175//3 170//3 
f 170//3 169//3 176//3 
f 172//6 171//6 174//6 
f 174//6 173//6 172//6 
f 173//10 176//10 169//10 
f 169//10 172//10 173//10 
f 177//11 178//11 179//11 
f 179//11 180//11 177//11 
f 181//12 182//12 183//12 
f 183//12 184//12 181//12 
f 183//14 182//13 179//14 
f 179//14 178//14 183//14 
f 184//6 183//6 178//6 
f 178//6 177//6 184//6 
f 180//3 179//3 182//3 
f 182//3 181//3 180//3 
f 181//10 184//1 177//10 
f 177//10 180//10 181//10 
f 185//5 186//5 187//5 
f 187//5 188//5 185//5 
f 189//5 185//5 190//5 
f 190//5 191//5 189//5 
f 192//4 193//4 194//4 
f 194//4 195//4 192//4 
f 193//2 188//2 187//2 
f 187//2 194//2 193//2 
f 192//24 185//16 188//24 
f 188//24 193//3 192//24 
f 196//3 190//3 185//16 
f 185//16 192//3 196//3 
f 195//1 186//1 185//1 
f 185//1 192//1 195//1 
f 194//6 187//6 186//6 
f 186//6 195//6 194//6 
f 197//18 198//18 199//18 
f 199//18 200//18 197//18 
f 201//4 202//4 203//4 
f 203//4 204//4 201//4 
f 202//2 200//2 199//2 
f 199//2 203//2 202//2 
f 201//3 197//3 200//3 
f 200//3 202//3 201//3 
f 204//1 198//1 197//1 
f 197//1 201//1 204//1 
f 203//6 199//6 198//6 
f 198//6 204//6 203//6 
f 205//5 206//5 207//5 
f 207//5 208//5 205//5 
f 209//4 210//4 211//4 
f 211//4 212//4 209//4 
f 210//2 208//2 207//2 
f 207//2 211//2 210//2 
f 209//3 205//3 208//3 
f 208//3 210//3 209//3 
f 212//10 206//10 205//10 
f 205//10 209//1 212//10 
f 211//6 207//6 206//6 
f 206//6 212//6 211//6 
f 213//5 214//5 186//5 
f 186//5 215//5 213//5 
f 216//5 217//5 214//5 
f 214//5 190//5 216//5 
f 218//4 219//4 195//4 
f 195//4 220//4 218//4 
f 221//4 196//4 220//4 
f 220//4 222//4 221//4 
f 219//2 215//2 186//2 
f 186//2 195//2 219//2 
f 218//3 213//3 215//3 
f 215//3 219//3 218//3 
f 220//1 214//1 213//1 
f 213//1 218//1 220//1 
f 195//6 186//6 214//6 
f 214//6 220//6 195//6 
f 220//6 214//6 217//6 
f 217//6 222//6 220//6 
f 196//4 192//4 223//4 
f 223//4 224//4 196//4 
f 192//2 185//2 189//2 
f 189//2 223//2 192//2 
f 224//1 191//1 190//1 
f 190//1 196//1 224//1 
f 223//6 189//6 191//6 
f 191//6 224//6 223//6 
f 225//5 226//5 227//5 
f 227//5 228//5 225//5 
f 229//4 230//4 231//4 
f 231//4 232//4 229//4 
f 230//20 228//20 227//20 
f 227//20 231//20 230//20 
f 229//16 225//16 228//16 
f 228//16 230//16 229//16 
f 232//1 226//1 225//1 
f 225//1 229//1 232//1 
f 231//6 227//6 226//6 
f 226//6 232//6 231//6 
f 233//5 234//5 235//5 
f 235//5 236//5 233//5 
f 237//4 238//4 239//4 
f 239//4 240//4 237//4 
f 238//2 236//2 235//2 
f 235//2 239//2 238//2 
f 237//16 233//16 236//16 
f 236//16 238//16 237//16 
f 240//19 234//19 233//19 
f 233//19 237//1 240//19 
f 239//6 235//6 234//6 
f 234//6 240//6 239//6 
f 241//5 242//5 243//5 
f 243//5 244//5 241//5 
f 245//4 246//4 247//4 
f 247//4 248//4 245//4 
f 246//2 244//2 243//2 
f 243//2 247//2 246//2 
f 245//3 241//3 244//3 
f 244//3 246//3 245//3 
f 248//10 242//10 241//10 
f 241//10 245//10 248//10 
f 247//6 243//6 242//6 
f 242//6 248//6 247//6 
f 196//20 190//20 214//20 
f 214//20 220//20 196//20 
f 221//3 216//16 190//3 
f 190//3 196//3 221//3 
f 222//1 217//1 216//1 
f 216//1 221//1 222//1 
f 249//5 250//5 251//5 
f 251//5 252//5 249//5 
f 253//4 254//4 255//4 
f 255//4 256//4 253//4 
f 254//2 252//2 251//2 
f 251//2 255//2 254//2 
f 253//3 249//3 252//3 
f 252//3 254//3 253//3 
f 256//1 250//1 249//1 
f 249//1 253//1 256//1 
f 255//6 251//6 250//6 
f 250//6 256//6 255//6 
f 257//5 258//5 259//5 
f 259//5 260//5 257//5 
f 261//4 262//4 263//4 
f 263//4 264//4 261//4 
f 262//2 260//2 259//2 
f 259//2 263//20 262//2 
f 261//3 257//3 260//3 
f 260//3 262//3 261//3 
f 264//1 258//1 257//1 
f 257//1 261//1 264//1 
f 263//6 259//6 258//6 
f 258//6 264//6 263//6 
f 265//5 266//5 267//5 
f 267//5 268//5 265//5 
f 269//4 270//4 271//4 
f 271//4 272//4 269//4 
f 270//2 268//2 267//2 
f 267//2 271//2 270//2 
f 269//3 265//3 268//3 
f 268//3 270//3 269//3 
f 272//1 266//19 265//1 
f 265//1 269//1 272//1 
f 271//6 267//6 266//6 
f 266//6 272//6 271//6 
f 273//2 274//2 275//2 
f 275//2 276//2 273//2 
f 276//3 275//3 277//3 
f 277//3 278//3 276//3 
f 277//1 279//1 280//1 
f 280//1 278//21 277//1 
f 281//6 282//6 274//6 
f 274//6 273//6 281//6 
f 278//5 280//5 283//5 
f 276//5 278//5 283//5 
f 276//5 283//5 284//5 
f 273//5 276//5 284//5 
f 281//5 273//5 284//5 
f 285//5 281//5 284//5 
f 282//4 286//4 287//4 
f 274//4 282//4 287//4 
f 275//4 274//4 287//4 
f 275//4 287//4 288//4 
f 277//4 275//4 288//4 
f 279//4 277//4 288//4 
f 282//1 281//1 285//1 
f 285//1 286//1 282//1 
f 287//3 286//3 285//3 
f 285//3 284//3 287//3 
f 288//21 287//21 284//21 
f 284//21 283//1 288//21 
f 288//6 283//6 280//6 
f 280//6 279//6 288//6 
f 289//14 290//14 291//2 
f 291//2 292//2 289//14 
f 292//2 291//2 171//2 
f 182//14 290//14 289//14 
f 289//14 179//2 182//14 
f 171//2 174//2 292//2 
f 174//3 171//3 293//3 
f 293//3 294//3 174//3 
f 294//21 293//21 295//21 
f 295//21 296//1 294//21 
f 296//6 295//6 182//6 
f 182//6 179//6 296//6 
f 296//5 179//5 289//5 
f 296//5 289//5 292//5 
f 294//5 296//5 292//5 
f 294//5 292//5 174//5 
f 293//4 171//4 291//4 
f 295//4 293//4 291//4 
f 295//4 291//4 290//4 
f 295//4 290//4 182//4 
f 297//5 298//5 299//5 
f 299//5 300//22 297//5 
f 301//4 302//4 303//4 
f 303//4 304//4 301//4 
f 302//2 300//2 299//2 
f 299//2 303//2 302//2 
f 301//3 297//3 300//3 
f 300//3 302//3 301//3 
f 304//19 298//19 297//19 
f 297//19 301//1 304//19 
f 303//6 299//6 298//6 
f 298//6 304//6 303//6 
f 305//5 306//23 307//5 
f 307//5 308//5 305//5 
f 309//4 310//4 311//4 
f 311//4 312//4 309//4 
f 310//2 308//2 307//2 
f 307//2 311//2 310//2 
f 309//3 305//3 308//3 
f 308//3 310//3 309//3 
f 312//1 306//1 305//1 
f 305//1 309//1 312//1 
f 311//6 307//6 306//6 
f 306//6 312//6 311//6 
f 313//5 314//5 315//5 
f 315//5 316//22 313//5 
f 317//4 318//4 319//4 
f 319//4 320//4 317//4 
f 318//2 316//2 315//2 
f 315//2 319//2 318//2 
f 317//3 313//3 316//3 
f 316//3 318//3 317//3 
f 320//1 314//1 313//1 
f 313//1 317//1 320//1 
f 319//6 315//6 314//6 
f 314//6 320//6 319//6 
# 0 polygons - 532 triangles

