# 3ds Max Wavefront OBJ Exporter v0.97b - (c)2007 guruware
# File Created: 21.01.2017 15:55:18

mtllib drop_tile_reduce.mtl

#
# object Tube02
#

v  9.9193 0.0323 10.6967
v  16.7297 -18.3710 12.4579
v  18.1912 -22.3204 6.5046
v  10.0175 -0.2332 6.5046
v  9.6547 0.7473 14.8887
v  16.2405 -17.0491 17.8139
v  9.2692 1.7891 19.0808
v  14.6649 -12.7914 22.2300
v  8.8081 3.0351 23.2729
v  14.2561 -11.6868 24.9841
v  8.3167 4.3629 27.4649
v  13.7217 -10.2427 27.0360
v  11.7436 -4.8974 29.5337
v  7.6390 6.1943 33.3462
v  8.4809 3.9193 37.2188
v  10.6618 -1.9738 33.8263
v  7.6022 -2.9910 37.6012
v  13.5480 -0.7977 37.6762
v  10.7506 6.7673 41.4499
v  4.6315 5.0564 41.5593
v  8.9793 -6.7143 32.7300
v  14.9379 -4.5518 32.7642
v  10.8913 -11.8817 30.0295
v  16.8358 -9.6796 30.0295
v  17.5511 -11.6126 27.6785
v  11.6067 -13.8147 27.6785
v  18.0982 -13.0911 24.5228
v  12.1538 -15.2932 24.5228
v  13.8375 -19.8430 19.9935
v  19.7819 -17.6409 19.9585
v  14.4923 -21.6125 13.6053
v  20.4367 -19.4104 13.6053
v  16.3475 -26.6257 6.5046
v  22.3930 -24.6966 6.5046
v  8.1585 -4.4800 11.5046
v  8.2900 -4.8355 6.5046
v  5.3759 3.0391 -23.4954
v  4.6314 5.0564 -28.5501
v  7.5951 -2.9712 -24.5748
v  16.8052 -18.5751 0.5512
v  9.9948 -0.1717 2.3125
v  16.3160 -17.2531 -4.8047
v  9.7302 0.5433 -1.8795
v  14.6655 -12.7929 -9.2208
v  9.2697 1.7875 -6.0716
v  14.2567 -11.6884 -11.9749
v  8.8086 3.0336 -10.2637
v  13.7223 -10.2442 -14.0268
v  11.7442 -4.8990 -16.5245
v  8.3167 4.3629 -14.4557
v  10.6618 -1.9738 -20.8171
v  8.4809 3.9193 -24.2096
v  7.6390 6.1943 -20.3370
v  10.7506 6.7673 -28.4407
v  13.5551 -0.8175 -24.6842
v  14.9316 -4.5340 -19.7379
v  8.9864 -6.7341 -19.7379
v  16.8365 -9.6817 -17.0203
v  10.8913 -11.8817 -17.0203
v  17.5518 -11.6147 -14.6693
v  11.6067 -13.8147 -14.6693
v  12.1538 -15.2932 -11.5136
v  18.0989 -13.0932 -11.5136
v  19.8829 -17.9140 -6.9843
v  13.8375 -19.8430 -6.9843
v  20.5378 -19.6835 -0.5961
v  14.4923 -21.6125 -0.5961
v  -72.0180 13.0806 -28.4954
v  -72.0180 5.0806 -28.4954
v  -72.0180 3.4771 -23.4954
v  -72.0180 11.4771 -23.4954
v  -72.0180 1.6403 -18.4954
v  -72.0180 9.6403 -18.4954
v  -72.0180 -0.2547 -13.4954
v  -72.0180 7.7453 -13.4954
v  -72.0180 -2.0331 -8.4954
v  -72.0180 5.9669 -8.4954
v  -72.0180 -3.5200 -3.4954
v  -72.0180 4.4800 -3.4954
v  -72.0180 -4.5404 1.5046
v  -72.0180 3.4596 1.5046
v  -72.0180 -4.9194 6.5046
v  -72.0180 3.0806 6.5046
v  -72.0180 -4.5404 11.5046
v  -72.0180 3.4596 11.5046
v  -72.0180 -3.5200 16.5046
v  -72.0180 4.4800 16.5046
v  -72.0180 -2.0331 21.5046
v  -72.0180 5.9669 21.5046
v  -72.0180 -0.2547 26.5046
v  -72.0180 7.7453 26.5046
v  -72.0180 1.6403 31.5046
v  -72.0180 9.6403 31.5046
v  -72.0180 3.4771 36.5046
v  -72.0180 11.4771 36.5046
v  -72.0180 5.0806 41.5046
v  -72.0180 13.0806 41.5046
v  6.0133 1.3165 -18.4954
v  6.6710 -0.4607 -13.4954
v  7.2882 -2.1286 -8.4954
v  7.8042 -3.5231 -3.4954
v  8.1585 -4.4800 1.5046
v  7.8043 -3.5231 16.5046
v  7.2883 -2.1286 21.5046
v  6.6711 -0.4607 26.5046
v  6.0134 1.3165 31.5046
v  5.3760 3.0391 36.5046
v  7.9819 14.2458 -28.4954
v  7.9819 14.2458 41.5046
v  7.1187 7.6004 37.8198
v  7.1187 7.6003 -24.8105
v  21.0047 -21.2792 6.5046
v  19.5433 -17.3299 12.4579
v  12.7328 1.0735 10.6967
v  12.8311 0.8080 6.5046
v  11.4524 4.8674 6.5046
v  11.3209 5.2228 11.5046
v  12.4682 1.7885 14.8887
v  10.9668 6.1798 16.5046
v  19.0541 -16.0079 17.8139
v  11.6216 4.0763 23.2729
v  12.0827 2.8303 19.0808
v  10.4507 7.5743 21.5046
v  9.8335 9.2421 26.5046
v  17.0697 -10.6456 24.9841
v  16.5352 -9.2015 27.0360
v  17.4784 -11.7502 22.2300
v  10.4525 7.2355 33.3462
v  11.1302 5.4041 27.4649
v  9.1759 11.0193 31.5046
v  8.5384 12.7420 36.5046
v  14.5572 -3.8562 29.5337
v  13.4753 -0.9326 33.8263
v  11.2944 4.9605 37.2188
v  19.6187 -17.5339 0.5512
v  12.8083 0.8695 2.3125
v  11.4220 4.9497 1.5046
v  12.5437 1.5845 -1.8795
v  11.0678 5.9067 -3.4954
v  19.1294 -16.2119 -4.8047
v  9.8343 9.2401 -13.4954
v  10.4515 7.5722 -8.4954
v  12.0833 2.8287 -6.0716
v  11.6222 4.0748 -10.2637
v  16.5358 -9.2030 -14.0268
v  17.0702 -10.6472 -11.9749
v  11.1302 5.4041 -14.4557
v  10.4525 7.2355 -20.3370
v  8.5384 12.7420 -23.4954
v  9.1759 11.0193 -18.4954
v  13.4753 -0.9326 -20.8171
v  14.5578 -3.8578 -16.5245
v  11.6173 4.0879 -10.3050
v  17.4790 -11.7518 -9.2208
v  11.2944 4.9605 -24.2096
v  9.9322 8.6415 -24.8105
v  9.9322 8.6415 37.8198
# 157 vertices

vn 0.9378 0.3471 -0.0000
vn 0.9378 0.3471 0.0000
vn 0.0738 -0.1992 0.9772
vn 0.2068 -0.5581 0.8036
vn 0.2650 -0.7153 0.6467
vn 0.2746 -0.7412 0.6125
vn 0.1223 -0.3302 0.9359
vn 0.1860 -0.5020 0.8446
vn 0.2612 -0.7051 0.6592
vn 0.3108 -0.8389 0.4469
vn 0.1928 -0.5204 0.8319
vn 0.2769 -0.7476 0.6037
vn 0.3289 -0.8877 0.3221
vn 0.3364 -0.9081 0.2492
vn 0.2207 -0.5956 0.7724
vn 0.2759 -0.7448 0.6076
vn 0.2721 -0.8528 0.4458
vn -0.9378 -0.3471 -0.0000
vn -0.9379 -0.3468 -0.0001
vn -0.9379 -0.3468 -0.0000
vn -0.9378 -0.3471 0.0000
vn 0.0738 -0.1992 -0.9772
vn 0.0696 -0.2570 -0.9639
vn 0.2068 -0.5581 -0.8036
vn 0.2650 -0.7153 -0.6467
vn 0.2743 -0.7413 -0.6125
vn 0.1222 -0.3303 -0.9359
vn 0.1858 -0.5021 -0.8446
vn 0.2610 -0.7052 -0.6592
vn 0.3105 -0.8390 -0.4469
vn 0.1688 -0.5290 -0.8316
vn 0.1799 -0.4861 -0.8552
vn 0.2424 -0.7598 -0.6033
vn 0.2878 -0.9020 -0.3218
vn 0.2944 -0.9227 -0.2489
vn 0.1932 -0.6055 -0.7720
vn 0.2415 -0.7569 -0.6072
vn -1.0000 0.0000 -0.0000
vn 0.0000 -0.9258 -0.3780
vn -0.0054 -0.9522 -0.3054
vn -0.0053 -0.9387 -0.3448
vn -0.0039 -0.9456 -0.3253
vn -0.0039 -0.9424 -0.3345
vn -0.0024 -0.9351 -0.3544
vn -0.0025 -0.9487 -0.3162
vn -0.0011 -0.9422 -0.3351
vn -0.0012 -0.9633 -0.2685
vn -0.0000 -0.9585 -0.2850
vn -0.0000 -0.9798 -0.2000
vn 0.0007 -0.9822 -0.1880
vn 0.0008 -0.9971 -0.0756
vn 0.0010 -0.9975 -0.0709
vn 0.0010 -0.9975 0.0709
vn 0.0008 -0.9971 0.0756
vn 0.0007 -0.9798 0.2000
vn -0.0000 -0.9822 0.1880
vn -0.0000 -0.9632 0.2686
vn -0.0012 -0.9585 0.2850
vn -0.0011 -0.9422 0.3351
vn -0.0025 -0.9487 0.3162
vn -0.0025 -0.9423 0.3346
vn -0.0039 -0.9351 0.3544
vn -0.0039 -0.9387 0.3448
vn -0.0054 -0.9457 0.3251
vn -0.0052 -0.9261 0.3773
vn 0.0000 -0.9522 0.3054
vn 0.0000 0.0000 -1.0000
vn 0.0000 0.0000 1.0000
vn 0.9263 0.3749 -0.0366
vn 0.9263 0.3763 -0.0185
vn 0.9468 0.3218 0.0020
vn 0.9469 0.3216 0.0018
vn 0.9468 0.3217 0.0055
vn 0.9470 0.3213 0.0050
vn 0.9215 0.3882 -0.0151
vn 0.9211 0.3891 -0.0117
vn 0.9468 0.3217 0.0095
vn 0.9469 0.3213 0.0086
vn 0.9252 0.3783 -0.0295
vn 0.9222 0.3854 -0.0310
vn 0.9214 0.3881 -0.0221
vn 0.9183 0.3953 -0.0222
vn 0.9461 0.3237 0.0091
vn 0.9463 0.3233 0.0084
vn 0.9245 0.3801 -0.0276
vn 0.9223 0.3854 -0.0286
vn 0.9466 0.3223 0.0099
vn 0.9467 0.3221 0.0089
vn 0.9323 0.3597 -0.0366
vn 0.9294 0.3674 -0.0346
vn 0.9468 0.3216 0.0080
vn 0.9470 0.3211 0.0073
vn 0.9293 0.3677 -0.0335
vn 0.9253 0.3784 -0.0255
vn 0.9345 0.3547 -0.0303
vn 0.9292 0.3683 -0.0310
vn 0.9260 0.3757 0.0377
vn 0.9263 0.3752 0.0330
vn 0.9469 0.3216 -0.0005
vn 0.9469 0.3216 -0.0004
vn 0.9472 0.3207 -0.0057
vn 0.9469 0.3215 -0.0049
vn 0.9213 0.3884 0.0152
vn 0.9216 0.3880 0.0134
vn 0.9471 0.3207 -0.0099
vn 0.9465 0.3225 -0.0083
vn 0.9241 0.3808 0.0319
vn 0.9238 0.3817 0.0281
vn 0.9202 0.3908 0.0202
vn 0.9465 0.3226 -0.0095
vn 0.9460 0.3242 -0.0080
vn 0.9238 0.3818 0.0290
vn 0.9239 0.3814 0.0314
vn 0.9469 0.3213 -0.0104
vn 0.9463 0.3232 -0.0086
vn 0.9641 -0.1984 -0.1766
vn 0.9329 0.3585 0.0331
vn 0.9335 0.3567 0.0365
vn 0.9475 0.3197 -0.0103
vn 0.9469 0.3213 -0.0086
vn 0.9294 0.3674 0.0364
vn 0.9294 0.3677 0.0329
vn 0.9344 0.3548 0.0307
vn 0.9281 0.3710 0.0311
vn 0.9374 0.3469 0.0314
vn 0.9359 0.3511 0.0290
vn 0.9375 0.3469 -0.0270
vn 0.9348 0.3527 -0.0417
vn 0.9459 0.3244 -0.0077
vn 0.9461 0.3238 -0.0083
vn 0.9460 0.3241 0.0078
vn 0.9460 0.3242 0.0081
vn -0.2354 0.6361 -0.7349
vn -0.3074 0.8306 -0.4644
vn 0.3463 -0.9357 0.0674
vn 0.3415 -0.9227 0.1789
vn -0.3321 0.8975 -0.2902
vn -0.3383 0.9141 -0.2235
vn 0.3308 -0.8940 0.3021
vn -0.2776 0.7501 -0.6002
vn -0.3191 0.8623 -0.3932
vn 0.3294 -0.8901 0.3151
vn -0.2856 0.7717 -0.5682
vn 0.3288 -0.8885 0.3200
vn -0.0961 0.2596 -0.9609
vn -0.2065 0.5581 -0.8037
vn 0.3355 -0.9066 0.2562
vn -0.2041 0.5514 -0.8089
vn -0.2877 0.7774 -0.5594
vn -0.2354 0.6361 0.7349
vn 0.3470 -0.9377 -0.0156
vn 0.3415 -0.9227 -0.1789
vn -0.3321 0.8975 0.2902
vn 0.3308 -0.8940 -0.3021
vn -0.2776 0.7501 0.6002
vn 0.3294 -0.8901 -0.3151
vn -0.2855 0.7714 0.5687
vn -0.2769 0.7483 0.6028
vn 0.3288 -0.8884 -0.3203
vn -0.0961 0.2596 0.9609
vn 0.3309 -0.8941 -0.3017
vn -0.1950 0.5268 0.8273
vn 0.3291 -0.8892 0.3178
vn -0.0525 0.1419 -0.9885
vn -0.1024 0.2767 -0.9555
vn -0.2218 0.5995 -0.7690
vn -0.2218 0.5995 0.7690
vn -0.1459 0.3942 0.9074
vn -0.1024 0.2767 0.9555
vn -0.0525 0.1419 0.9885
vn 0.3291 -0.8892 -0.3178
vn -0.9381 -0.3465 0.0003
vn -0.9380 -0.3466 0.0004
vn -0.9380 -0.3465 0.0003
vn -0.9380 -0.3467 0.0003
vn -0.9380 -0.3467 0.0002
vn -0.9380 -0.3468 0.0001
vn -0.9380 -0.3468 0.0002
vn -0.9379 -0.3468 0.0001
vn -0.9380 -0.3468 -0.0001
vn -0.9380 -0.3467 -0.0002
vn -0.9380 -0.3467 -0.0003
vn -0.9380 -0.3466 -0.0004
vn -0.9380 -0.3465 -0.0004
vn -0.9381 -0.3464 -0.0002
vn -0.9381 -0.3464 -0.0001
vn -0.9381 -0.3463 0.0000
vn -0.0144 0.9546 -0.2974
vn -0.0172 0.9419 -0.3355
vn -0.0172 0.9416 -0.3362
vn -0.0165 0.9382 -0.3456
vn -0.0199 0.9720 -0.2343
vn -0.0198 0.9715 -0.2363
vn -0.0185 0.9530 -0.3023
vn -0.0186 0.9535 -0.3007
vn -0.0154 0.9417 -0.3362
vn -0.0185 0.9927 0.1189
vn -0.0184 0.9925 0.1206
vn -0.0205 0.9997 -0.0137
vn -0.0204 0.9997 -0.0133
vn -0.0209 0.9910 -0.1326
vn -0.0209 0.9907 -0.1342
vn -0.0176 0.9495 0.3133
vn -0.0176 0.9492 0.3141
vn -0.0173 0.9685 0.2483
vn -0.0173 0.9693 0.2454
vn -0.0160 0.9398 0.3413
vn -0.0160 0.9399 0.3410
vn -0.0172 0.9416 0.3363
vn -0.0172 0.9418 0.3356
vn -0.0150 0.9479 0.3182
vn -0.0144 0.9546 0.2974
vn -0.0149 0.9483 0.3169
vn -0.3191 0.8623 0.3932
vn 0.9201 0.3911 0.0221
# 215 vertex normals

vt 0.4991 0.4694 0.0000
vt 0.3333 0.4867 0.0000
vt 0.3333 0.5000 0.0000
vt 0.4997 0.4867 0.0000
vt 0.4985 0.4507 0.0000
vt 0.3333 0.4750 0.0000
vt 0.4990 0.4342 0.0000
vt 0.3333 0.4637 0.0000
vt 0.4997 0.4126 0.0000
vt 0.3333 0.4566 0.0000
vt 0.4998 0.4019 0.0000
vt 0.3333 0.4500 0.0000
vt 0.3333 0.4390 0.0000
vt 0.5000 0.3894 0.0000
vt 0.3333 0.4000 0.0000
vt 0.3333 0.4250 0.0000
vt 0.3333 0.4053 0.0000
vt 5.0000 43.3333 0.0000
vt 0.0000 43.3333 0.0000
vt -30.0000 43.3333 0.0000
vt 0.4752 0.4179 0.0000
vt -35.0000 -36.6667 0.0000
vt -30.0000 -36.6667 0.0000
vt -25.0000 -36.6667 0.0000
vt -20.0000 -36.6667 0.0000
vt -15.0000 -36.6667 0.0000
vt -10.0000 -36.6667 0.0000
vt -5.0000 -36.6667 0.0000
vt 0.0000 -36.6667 0.0000
vt 5.0000 -36.6667 0.0000
vt 10.0000 -36.6667 0.0000
vt 15.0000 -36.6667 0.0000
vt 20.0000 -36.6667 0.0000
vt 25.0000 -36.6667 0.0000
vt 30.0000 -36.6667 0.0000
vt 35.0000 -36.6667 0.0000
vt -25.0000 43.3333 0.0000
vt -20.0000 43.3333 0.0000
vt -15.0000 43.3333 0.0000
vt -10.0000 43.3333 0.0000
vt -5.0000 43.3333 0.0000
vt 10.0000 43.3333 0.0000
vt 15.0000 43.3333 0.0000
vt 20.0000 43.3333 0.0000
vt 25.0000 43.3333 0.0000
vt 30.0000 43.3333 0.0000
vt 0.3333 0.3839 0.0000
vt 0.4997 0.4125 0.0000
# 48 texture coords

g Tube02
usemtl _drop_tile_drop_tileMateri
s 1
f 1/1/1 2/2/1 3/3/1 4/4/1 
f 2/2/1 1/1/1 5/5/1 6/6/1 
f 5/5/1 7/7/1 8/8/1 6/6/1 
f 9/9/1 10/10/1 8/8/1 7/7/1 
f 9/9/1 11/11/1 12/12/1 10/10/1 
f 12/12/1 11/11/1 13/13/1 
f 14/14/1 15/15/2 16/16/1 11/11/1 
f 13/13/1 11/11/1 16/16/1 
f 17/16/3 18/16/4 19/15/4 20/17/3 
f 17/16/5 21/13/5 22/13/6 18/16/6 
f 21/13/7 23/12/7 24/12/8 22/13/8 
f 25/10/9 24/12/9 23/12/9 26/10/9 
f 27/8/10 25/10/10 26/10/10 28/8/10 
f 28/8/11 29/6/11 30/6/12 27/8/12 
f 29/6/13 31/2/13 32/2/14 30/6/14 
f 31/2/15 33/3/15 34/3/16 32/2/17 
f 33/3/18 31/2/18 35/18/19 36/19/20 
f 37/20/18 38/17/21 39/16/21 
f 4/4/1 3/3/1 40/2/2 41/1/2 
f 40/2/2 42/6/2 43/5/2 41/1/2 
f 44/8/2 45/7/2 43/5/2 42/6/2 
f 46/10/2 47/21/2 45/7/2 44/8/2 
f 48/12/2 49/13/2 50/11/2 
f 50/11/2 51/16/2 52/15/2 53/14/2 
f 49/13/2 51/16/2 50/11/2 
f 38/17/22 54/15/23 55/16/22 39/16/24 
f 39/16/25 55/16/25 56/13/25 57/13/26 
f 57/13/27 56/13/27 58/12/27 59/12/28 
f 59/12/29 58/12/29 60/10/29 61/10/30 
f 62/8/31 63/8/32 64/6/31 65/6/33 
f 65/6/34 64/6/34 66/2/34 67/2/35 
f 67/2/36 66/2/36 34/3/36 33/3/37 
f 68/22/38 69/22/38 70/23/38 71/23/38 
f 72/24/38 73/24/38 71/23/38 70/23/38 
f 74/25/38 75/25/38 73/24/38 72/24/38 
f 76/26/38 77/26/38 75/25/38 74/25/38 
f 78/27/38 79/27/38 77/26/38 76/26/38 
f 80/28/38 81/28/38 79/27/38 78/27/38 
f 82/29/38 83/29/38 81/28/38 80/28/38 
f 84/30/38 85/30/38 83/29/38 82/29/38 
f 86/31/38 87/31/38 85/30/38 84/30/38 
f 88/32/38 89/32/38 87/31/38 86/31/38 
f 90/33/38 91/33/38 89/32/38 88/32/38 
f 92/34/38 93/34/38 91/33/38 90/33/38 
f 94/35/38 95/35/38 93/34/38 92/34/38 
f 96/36/38 97/36/38 95/35/38 94/35/38 
f 37/20/39 70/23/40 69/22/39 38/17/39 
f 37/20/41 98/37/42 72/24/41 70/23/41 
f 99/38/43 74/25/44 72/24/43 98/37/43 
f 100/39/45 76/26/46 74/25/45 99/38/45 
f 101/40/47 78/27/48 76/26/47 100/39/47 
f 101/40/49 102/41/50 80/28/49 78/27/49 
f 102/41/51 36/19/52 82/29/51 80/28/51 
f 35/18/53 84/30/54 82/29/53 36/19/53 
f 35/18/55 103/42/56 86/31/55 84/30/55 
f 104/43/57 88/32/58 86/31/57 103/42/57 
f 104/43/59 105/44/60 90/33/59 88/32/59 
f 106/45/61 92/34/62 90/33/61 105/44/61 
f 106/45/63 107/46/64 94/35/63 92/34/63 
f 20/17/65 96/36/66 94/35/65 107/46/65 
f 38/17/67 108/47/67 54/15/67 
f 108/47/67 38/17/67 69/22/67 68/22/67 
f 19/15/68 109/47/68 20/17/68 
f 109/47/68 97/36/68 96/36/68 20/17/68 
f 15/15/1 14/14/1 110/47/1 
f 52/15/1 111/47/1 53/14/1 
f 32/2/69 34/3/69 112/3/70 113/2/70 
f 114/1/71 115/4/72 116/4/71 117/1/71 
f 118/5/73 114/1/74 117/1/73 119/5/73 
f 30/6/75 32/2/75 113/2/76 120/6/76 
f 121/9/77 122/7/78 123/7/77 124/9/77 
f 125/10/79 126/12/80 24/12/79 25/10/79 
f 127/8/81 125/10/82 25/10/81 27/8/81 
f 128/14/83 129/11/84 130/11/83 131/14/83 
f 132/13/85 133/16/85 18/16/86 22/13/85 
f 129/11/87 121/9/88 124/9/87 130/11/87 
f 22/13/89 24/12/89 126/12/90 132/13/90 
f 122/7/91 118/5/92 119/5/91 123/7/91 
f 27/8/93 30/6/93 120/6/94 127/8/94 
f 19/15/95 18/16/95 133/16/96 134/15/96 
f 135/2/97 112/3/97 34/3/98 66/2/97 
f 115/4/99 136/1/100 137/1/99 116/4/99 
f 136/1/101 138/5/102 139/5/101 137/1/101 
f 140/6/103 135/2/103 66/2/104 64/6/103 
f 141/9/105 142/7/105 143/7/105 144/9/106 
f 60/10/107 58/12/107 145/12/107 146/10/108 
f 60/10/107 146/10/108 60/10/109 
f 147/11/110 148/14/111 149/14/110 150/11/110 
f 56/13/112 55/16/112 151/16/113 152/13/113 
f 150/11/114 141/9/114 144/9/114 153/48/115 
f 150/11/114 153/48/115 147/11/116 
f 152/13/117 145/12/117 58/12/118 56/13/117 
f 138/5/119 143/7/120 142/7/119 139/5/119 
f 154/8/121 140/6/121 64/6/122 63/8/121 
f 155/15/123 151/16/123 55/16/124 54/15/123 
f 156/47/125 155/15/126 54/15/125 108/47/125 
f 134/15/127 157/47/128 109/47/127 19/15/127 
f 148/14/129 156/47/130 108/47/129 149/14/129 
f 157/47/131 128/14/132 131/14/131 109/47/131 
f 113/2/133 112/3/133 3/3/134 2/2/134 
f 1/1/135 4/4/135 115/4/135 114/1/135 
f 5/5/136 1/1/136 114/1/136 118/5/136 
f 113/2/137 2/2/138 6/6/138 120/6/137 
f 9/9/139 7/7/139 122/7/139 121/9/139 
f 10/10/140 12/12/140 126/12/140 125/10/140 
f 8/8/141 10/10/141 125/10/141 127/8/141 
f 14/14/142 11/11/142 129/11/142 128/14/142 
f 13/13/143 16/16/143 133/16/143 132/13/143 
f 11/11/144 9/9/144 121/9/144 129/11/144 
f 126/12/145 12/12/146 13/13/146 132/13/145 
f 7/7/147 5/5/147 118/5/147 122/7/147 
f 127/8/148 120/6/148 6/6/149 8/8/149 
f 40/2/150 3/3/150 112/3/150 135/2/150 
f 4/4/151 41/1/151 136/1/151 115/4/151 
f 41/1/152 43/5/152 138/5/152 136/1/152 
f 42/6/153 40/2/153 135/2/153 140/6/153 
f 143/7/154 45/7/154 47/21/154 144/9/154 
f 146/10/155 145/12/155 48/12/155 46/10/155 
f 50/11/156 53/14/156 148/14/156 147/11/156 
f 152/13/157 151/16/157 51/16/158 49/13/158 
f 153/48/159 144/9/159 47/21/159 
f 49/13/160 48/12/160 145/12/160 152/13/160 
f 43/5/161 45/7/161 143/7/161 138/5/161 
f 44/8/162 42/6/162 140/6/162 154/8/162 
f 110/47/163 14/14/163 128/14/163 157/47/163 
f 15/15/164 110/47/164 157/47/164 134/15/164 
f 134/15/165 133/16/165 16/16/166 15/15/166 
f 151/16/167 155/15/167 52/15/168 51/16/169 
f 111/47/170 52/15/170 155/15/170 156/47/170 
f 53/14/171 111/47/171 156/47/171 148/14/171 
f 39/16/172 57/13/173 98/37/174 37/20/172 
f 57/13/173 59/12/175 99/38/175 98/37/174 
f 59/12/175 61/10/176 100/39/176 99/38/175 
f 62/8/176 65/6/177 101/40/178 100/39/176 
f 67/2/179 102/41/179 101/40/178 65/6/177 
f 33/3/179 36/19/20 102/41/179 67/2/179 
f 31/2/180 29/6/180 103/42/180 35/18/19 
f 28/8/181 104/43/181 103/42/180 29/6/180 
f 28/8/181 26/10/181 104/43/181 
f 23/12/182 105/44/182 104/43/181 26/10/181 
f 21/13/183 106/45/184 105/44/182 23/12/182 
f 17/16/185 107/46/186 106/45/184 21/13/183 
f 17/16/185 20/17/187 107/46/186 
f 97/36/188 109/47/188 131/14/188 95/35/188 
f 124/9/189 91/33/190 93/34/191 130/11/191 
f 119/5/192 87/31/193 89/32/194 123/7/195 
f 123/7/195 89/32/194 91/33/190 124/9/189 
s off
f 131/14/196 130/11/196 93/34/196 95/35/196 
s 1
f 137/1/197 81/28/198 83/29/199 116/4/200 
f 117/1/201 85/30/202 87/31/193 119/5/192 
f 116/4/200 83/29/199 85/30/202 117/1/201 
f 142/7/203 77/26/204 79/27/205 139/5/206 
f 139/5/206 79/27/205 81/28/198 137/1/197 
f 150/11/207 73/24/208 75/25/209 141/9/210 
f 141/9/210 75/25/209 77/26/204 142/7/203 
f 149/14/211 108/47/212 68/22/212 71/23/213 
f 150/11/207 149/14/211 71/23/213 73/24/208 
f 61/10/176 62/8/176 100/39/176 
f 46/10/214 44/8/214 154/8/214 146/10/214 
f 47/21/159 50/11/159 147/11/116 153/48/159 
s off
f 63/8/215 60/10/215 146/10/215 154/8/215 
f 61/10/30 60/10/30 60/10/30 63/8/30 
f 62/8/30 61/10/30 63/8/30 
f 48/12/2 50/11/2 47/21/2 46/10/2 
# 148 polygons - 16 triangles

