# File produced by Open Asset Import Library (http://www.assimp.sf.net)
# (assimp v3.1.187496374)

mtllib eave_tile_low.obj.mtl

# 102 vertex positions
v  -14.5548 12.213 47.5
v  -14.5548 12.213 -47.5
v  -17.8542 6.49838 -47.5
v  -17.8542 6.49838 47.5
v  -19 -2e-06 -47.5
v  -19 5e-06 42.5
v  -9.49999 16.4545 47.5
v  -9.49999 16.4545 -47.5
v  -3.29931 18.7113 47.5
v  -3.29931 18.7113 -47.5
v  3.29932 18.7113 47.5
v  3.29932 18.7113 -47.5
v  -19 1e-06 47.5
v  -17.8542 -6.49838 47.5
v  -17.8542 -6.49838 42.5
v  -14.5548 -12.213 42.5
v  -14.5548 -12.213 47.5
v  -9.5 -16.4545 42.5
v  -9.5 -16.4545 47.5
v  -3.29931 -18.7113 42.5
v  -3.29931 -18.7113 47.5
v  3.29932 -18.7113 42.5
v  3.29932 -18.7113 47.5
v  9.5 -16.4545 42.5
v  9.5 -16.4545 47.5
v  14.5548 -12.213 42.5
v  14.5548 -12.213 47.5
v  17.8542 -6.49838 42.5
v  17.8542 -6.49838 47.5
v  19 3e-06 42.5
v  19 -2e-06 47.5
v  19 -4e-06 -47.5
v  17.8542 6.49838 -47.5
v  17.8542 6.49838 47.5
v  14.5549 12.213 -47.5
v  14.5549 12.213 47.5
v  9.50001 16.4545 -47.5
v  9.50001 16.4545 47.5
v  11.4907 9.64181 42.5
v  14.0954 5.1303 42.5
v  15 4e-06 42.5
v  -14.0954 5.1303 42.5
v  -15 5e-06 42.5
v  14.0954 -5.1303 42.5
v  11.4907 -9.64182 42.5
v  2.60473 -14.7721 42.5
v  -7.5 -12.9904 42.5
v  -14.0954 -5.1303 42.5
v  -11.4907 -9.64181 42.5
v  -2.60472 -14.7721 42.5
v  7.5 -12.9904 42.5
v  -11.4907 9.64182 42.5
v  -7.49999 12.9904 42.5
v  2.60473 14.7721 42.5
v  -2.60472 14.7721 42.5
v  7.50001 12.9904 42.5
v  -15 -3e-06 -47.5
v  -14.0954 5.1303 -47.5
v  -11.4907 9.64182 -47.5
v  -7.49999 12.9904 -47.5
v  -2.60471 14.7721 -47.5
v  2.60473 14.7721 -47.5
v  7.50001 12.9904 -47.5
v  11.4907 9.64181 -47.5
v  14.0954 5.1303 -47.5
v  15 -4e-06 -47.5
v  -15.9748 -5.81433 47.5
v  -17 8e-06 47.5
v  -15.9748 5.81435 47.5
v  -13.0228 -10.9274 47.5
v  -8.5 -14.7224 47.5
v  -2.95202 -16.7417 47.5
v  2.95202 -16.7417 47.5
v  8.5 -14.7224 47.5
v  13.0228 -10.9274 47.5
v  15.9748 -5.81434 47.5
v  17 5e-06 47.5
v  15.9748 5.81435 47.5
v  13.0228 10.9274 47.5
v  8.50001 14.7224 47.5
v  2.95203 16.7417 47.5
v  -2.95201 16.7417 47.5
v  -8.49999 14.7224 47.5
v  -13.0227 10.9274 47.5
v  -15.9748 -5.81433 45.5
v  -17 9e-06 45.5
v  -13.0228 -10.9274 45.5
v  -15.9748 5.81435 45.5
v  -13.0227 10.9274 45.5
v  -2.95202 -16.7417 45.5
v  2.95202 -16.7417 45.5
v  8.5 -14.7224 45.5
v  15.9748 -5.81434 45.5
v  -8.5 -14.7224 45.5
v  13.0228 -10.9274 45.5
v  17 6e-06 45.5
v  15.9748 5.81435 45.5
v  8.50001 14.7224 45.5
v  13.0228 10.9274 45.5
v  2.95203 16.7417 45.5
v  -2.95201 16.7417 45.5
v  -8.49999 14.7224 45.5

# 0 UV coordinates

# 64 vertex normals
vn -0.80244 0.596733 0
vn -0.727009 0.686628 0
vn -0.939693 0.34202 0
vn -0.958142 0.286295 0
vn -0.984808 0.173648 0
vn -0.999379 0.035244 0
vn -0.549952 0.835196 0
vn -0.448325 0.893871 0
vn -0.231132 0.972922 0
vn -0.115566 0.9933 0
vn 0 1 0
vn -1 0 0
vn -0.939693 -0.34202 0
vn -0.80244 -0.596733 0
vn -0.72701 -0.686627 0
vn -0.549952 -0.835196 0
vn -0.448325 -0.89387 0
vn -0.231132 -0.972922 0
vn -0.115566 -0.9933 0
vn 0.115566 -0.9933 0
vn 0.231132 -0.972922 0
vn 0.448325 -0.893871 0
vn 0.549952 -0.835196 0
vn 0.727009 -0.686628 0
vn 0.80244 -0.596733 0
vn 0.918006 -0.396567 0
vn 0.958142 -0.286295 -0
vn 0.999379 0.035243 0
vn 1 0 -0
vn 0.984808 0.173648 0
vn 0.958142 0.286295 0
vn 0.939693 0.34202 0
vn 0.80244 0.596733 0
vn 0.72701 0.686627 0
vn 0.549952 0.835196 0
vn 0.448325 0.89387 0
vn 0.34202 0.939693 0
vn 0 0 -1
vn -2e-06 0 -1
vn -6e-06 -2e-06 -1
vn 4e-06 2e-06 -1
vn -1e-06 1e-06 -1
vn 1e-06 0 -1
vn -1e-06 -1e-06 -1
vn -3e-06 6e-06 -1
vn 0.984808 -0.173648 0
vn 0.866025 -0.5 0
vn 0.642788 -0.766044 0
vn 0.34202 -0.939693 -0
vn 0 -1 0
vn -0.34202 -0.939693 0
vn -0.642788 -0.766044 0
vn -0.958142 -0.286295 0
vn -0.866026 -0.5 0
vn -0.984808 -0.173648 0
vn 0 0 1
vn 0.998277 -0.058674 0
vn 0.866026 0.5 0
vn -0.866025 -0.5 0
vn -0.866025 0.5 0
vn -0.642787 0.766045 0
vn -0.34202 0.939693 0
vn 0.342021 0.939692 0
vn 0.642788 0.766044 0

# Mesh 'Cylinder01' with 200 faces
g Cylinder01
usemtl $Material_0
f  1//1 2//2 3//3
f  3//3 4//4 1//1
f  3//3 5//5 6//6
f  6//6 4//4 3//3
f  2//2 1//1 7//7
f  7//7 8//8 2//2
f  8//8 7//7 9//9
f  9//9 10//10 8//8
f  10//10 9//9 11//11
f  11//11 12//11 10//10
f  4//4 6//6 13//12
f  14//13 13//12 6//6
f  6//6 15//13 14//13
f  14//13 15//13 16//14
f  16//14 17//15 14//13
f  17//15 16//14 18//16
f  18//16 19//17 17//15
f  19//17 18//16 20//18
f  20//18 21//19 19//17
f  21//19 20//18 22//20
f  22//20 23//21 21//19
f  23//21 22//20 24//22
f  24//22 25//23 23//21
f  25//23 24//22 26//24
f  26//24 27//25 25//23
f  27//25 26//24 28//26
f  28//26 29//27 27//25
f  29//27 28//26 30//28
f  30//28 31//29 29//27
f  30//28 32//30 33//31
f  33//31 34//32 30//28
f  34//32 31//29 30//28
f  34//32 33//31 35//33
f  35//33 36//34 34//32
f  36//34 35//33 37//35
f  37//35 38//36 36//34
f  38//36 37//35 12//37
f  12//37 11//37 38//36
f  39//38 40//38 41//38
f  42//38 39//38 41//38
f  42//38 41//38 43//38
f  41//38 44//38 45//38
f  41//38 45//38 46//38
f  41//38 46//38 47//38
f  41//38 47//38 48//38
f  41//38 48//38 43//38
f  41//38 30//39 28//39
f  28//39 44//38 41//38
f  6//40 43//38 48//38
f  47//38 49//38 48//38
f  6//41 48//38 49//38
f  18//42 49//38 47//38
f  18//42 6//40 49//38
f  16//40 15//40 6//40
f  18//42 16//40 6//40
f  20//43 18//42 47//38
f  46//38 22//38 20//43
f  20//43 50//38 46//38
f  47//38 50//38 20//43
f  22//38 51//38 45//38
f  26//44 24//45 22//38
f  26//44 22//38 45//38
f  22//38 46//38 51//38
f  46//38 50//38 47//38
f  45//38 51//38 46//38
f  45//38 44//38 28//39
f  28//39 26//44 45//38
f  42//38 52//38 53//38
f  42//38 53//38 54//38
f  42//38 54//38 39//38
f  53//38 55//38 54//38
f  54//38 56//38 39//38
f  57//46 58//26 42//46
f  42//46 43//46 57//46
f  58//26 59//24 52//47
f  52//47 42//47 58//26
f  59//24 60//22 53//48
f  53//48 52//48 59//24
f  60//22 61//20 55//49
f  55//49 53//49 60//22
f  61//20 62//50 54//50
f  54//50 55//50 61//20
f  62//51 63//16 56//51
f  56//51 54//51 62//51
f  63//16 64//14 39//52
f  39//52 56//52 63//16
f  64//14 65//53 40//54
f  40//54 39//54 64//14
f  65//53 66//55 41//55
f  41//55 40//55 65//53
f  2//43 58//43 57//43
f  3//38 2//43 57//43
f  5//38 3//38 57//43
f  58//43 2//43 8//38
f  8//38 59//38 58//43
f  59//38 8//38 10//38
f  10//38 60//38 59//38
f  60//38 10//38 12//38
f  12//38 61//38 60//38
f  61//38 12//38 37//38
f  37//38 62//38 61//38
f  62//38 37//38 35//38
f  35//38 63//38 62//38
f  63//38 35//38 33//38
f  33//38 64//38 63//38
f  64//38 33//38 32//38
f  32//38 65//38 64//38
f  32//38 66//38 65//38
f  43//50 6//50 5//50
f  5//50 57//50 43//50
f  66//50 32//50 30//50
f  30//50 41//50 66//50
f  14//56 67//56 68//56
f  13//56 14//56 68//56
f  4//56 13//56 68//56
f  4//56 68//56 69//56
f  14//56 17//56 70//56
f  67//56 14//56 70//56
f  17//56 19//56 71//56
f  17//56 71//56 70//56
f  19//56 21//56 72//56
f  19//56 72//56 71//56
f  21//56 23//56 73//56
f  21//56 73//56 72//56
f  23//56 25//56 74//56
f  23//56 74//56 73//56
f  25//56 27//56 75//56
f  25//56 75//56 74//56
f  27//56 29//56 76//56
f  27//56 76//56 75//56
f  29//56 31//56 77//56
f  29//56 77//56 76//56
f  31//56 34//56 78//56
f  31//56 78//56 77//56
f  34//56 36//56 79//56
f  34//56 79//56 78//56
f  36//56 38//56 80//56
f  36//56 80//56 79//56
f  38//56 11//56 81//56
f  38//56 81//56 80//56
f  11//56 9//56 82//56
f  11//56 82//56 81//56
f  9//56 7//56 83//56
f  9//56 83//56 82//56
f  7//56 1//56 84//56
f  7//56 84//56 83//56
f  1//56 4//56 69//56
f  1//56 69//56 84//56
f  68//30 67//30 85//32
f  85//32 86//57 68//30
f  70//58 87//58 85//32
f  85//32 67//58 70//58
f  69//46 68//46 86//57
f  86//57 88//46 69//46
f  89//56 88//56 86//56
f  90//56 89//56 86//56
f  87//56 90//56 86//56
f  87//56 86//56 85//56
f  90//56 91//56 92//56
f  90//56 92//56 93//56
f  90//56 93//56 89//56
f  87//56 94//56 90//56
f  92//56 95//56 93//56
f  93//56 96//56 97//56
f  93//56 97//56 98//56
f  93//56 98//56 89//56
f  97//56 99//56 98//56
f  98//56 100//56 101//56
f  98//56 101//56 89//56
f  101//56 102//56 89//56
f  69//47 88//47 89//47
f  89//47 84//47 69//47
f  84//48 89//48 102//48
f  102//48 83//48 84//48
f  83//49 102//49 101//49
f  101//49 82//49 83//49
f  82//50 101//50 100//50
f  100//50 81//50 82//50
f  81//51 100//51 98//51
f  98//51 80//51 81//51
f  80//52 98//52 99//52
f  99//52 79//52 80//52
f  79//59 99//59 97//59
f  97//59 78//59 79//59
f  78//55 97//55 96//55
f  96//55 77//55 78//55
f  77//5 96//5 93//5
f  93//5 76//5 77//5
f  76//60 93//60 95//60
f  95//60 75//60 76//60
f  75//61 95//61 92//61
f  92//61 74//61 75//61
f  74//62 92//62 91//62
f  91//62 73//62 74//62
f  73//11 91//11 90//11
f  90//11 72//11 73//11
f  72//63 90//63 94//63
f  94//63 71//63 72//63
f  71//64 94//64 87//64
f  87//64 70//64 71//64

