# 3ds Max Wavefront OBJ Exporter v0.97b - (c)2007 guruware
# File Created: 21.02.2017 12:17:46

mtllib eave_tile_new.mtl

#
# object Cylinder01
#

v  -14.5548 2.7533 47.5000
v  -14.5548 2.7533 -47.5000
v  -17.8542 -2.9613 -47.5000
v  -17.8542 -2.9613 47.5000
v  -19.0000 -9.4597 -47.5000
v  -19.0000 -9.4597 42.5000
v  -9.5000 6.9948 47.5000
v  -9.5000 6.9948 -47.5000
v  -3.2993 9.2516 47.5000
v  -3.2993 9.2516 -47.5000
v  3.2993 9.2516 47.5000
v  3.2993 9.2516 -47.5000
v  -19.0000 -9.4597 47.5000
v  -17.8542 -15.9581 47.5000
v  -17.8542 -15.9581 42.5000
v  -14.5548 -21.6727 42.5000
v  -14.5548 -21.6727 47.5000
v  -9.5000 -25.9142 42.5000
v  -9.5000 -25.9142 47.5000
v  -3.2993 -28.1710 42.5000
v  -3.2993 -28.1710 47.5000
v  3.2993 -28.1710 42.5000
v  3.2993 -28.1710 47.5000
v  9.5000 -25.9142 42.5000
v  9.5000 -25.9142 47.5000
v  14.5548 -21.6727 42.5000
v  14.5548 -21.6727 47.5000
v  17.8542 -15.9581 42.5000
v  17.8542 -15.9581 47.5000
v  19.0000 -9.4597 42.5000
v  19.0000 -9.4597 47.5000
v  19.0000 -9.4597 -47.5000
v  17.8542 -2.9613 -47.5000
v  17.8542 -2.9613 47.5000
v  14.5549 2.7533 -47.5000
v  14.5549 2.7533 47.5000
v  9.5000 6.9948 -47.5000
v  9.5000 6.9948 47.5000
v  11.4907 0.1821 42.5000
v  14.0954 -4.3294 42.5000
v  15.0000 -9.4597 42.5000
v  -14.0954 -4.3294 42.5000
v  -15.0000 -9.4597 42.5000
v  14.0954 -14.5900 42.5000
v  11.4907 -19.1015 42.5000
v  2.6047 -24.2318 42.5000
v  -7.5000 -22.4501 42.5000
v  -14.0954 -14.5900 42.5000
v  -11.4907 -19.1015 42.5000
v  -2.6047 -24.2318 42.5000
v  7.5000 -22.4501 42.5000
v  -11.4907 0.1821 42.5000
v  -7.5000 3.5307 42.5000
v  2.6047 5.3124 42.5000
v  -2.6047 5.3124 42.5000
v  7.5000 3.5307 42.5000
v  -15.0000 -9.4597 -47.5000
v  -14.0954 -4.3294 -47.5000
v  -11.4907 0.1821 -47.5000
v  -7.5000 3.5307 -47.5000
v  -2.6047 5.3124 -47.5000
v  2.6047 5.3124 -47.5000
v  7.5000 3.5307 -47.5000
v  11.4907 0.1821 -47.5000
v  14.0954 -4.3294 -47.5000
v  15.0000 -9.4597 -47.5000
v  -15.9748 -15.2740 47.5000
v  -17.0000 -9.4597 47.5000
v  -15.9748 -3.6453 47.5000
v  -13.0228 -20.3871 47.5000
v  -8.5000 -24.1821 47.5000
v  -2.9520 -26.2014 47.5000
v  2.9520 -26.2014 47.5000
v  8.5000 -24.1821 47.5000
v  13.0228 -20.3871 47.5000
v  15.9748 -15.2740 47.5000
v  17.0000 -9.4597 47.5000
v  15.9748 -3.6453 47.5000
v  13.0228 1.4677 47.5000
v  8.5000 5.2627 47.5000
v  2.9520 7.2820 47.5000
v  -2.9520 7.2820 47.5000
v  -8.5000 5.2627 47.5000
v  -13.0227 1.4677 47.5000
v  -15.9748 -15.2740 45.5000
v  -17.0000 -9.4597 45.5000
v  -13.0228 -20.3871 45.5000
v  -15.9748 -3.6453 45.5000
v  -13.0227 1.4677 45.5000
v  -2.9520 -26.2014 45.5000
v  2.9520 -26.2014 45.5000
v  8.5000 -24.1821 45.5000
v  15.9748 -15.2740 45.5000
v  -8.5000 -24.1821 45.5000
v  13.0228 -20.3871 45.5000
v  17.0000 -9.4597 45.5000
v  15.9748 -3.6453 45.5000
v  8.5000 5.2627 45.5000
v  13.0228 1.4677 45.5000
v  2.9520 7.2820 45.5000
v  -2.9520 7.2820 45.5000
v  -8.5000 5.2627 45.5000
# 102 vertices

vn -0.8024 0.5967 -0.0000
vn -0.7270 0.6866 -0.0000
vn -0.9397 0.3420 -0.0000
vn -0.9581 0.2863 -0.0000
vn -0.9848 0.1736 -0.0000
vn -0.9994 0.0352 -0.0000
vn -0.5500 0.8352 -0.0000
vn -0.4483 0.8939 -0.0000
vn -0.2311 0.9729 -0.0000
vn -0.1156 0.9933 -0.0000
vn 0.0000 1.0000 -0.0000
vn -1.0000 0.0000 -0.0000
vn -0.9397 -0.3420 -0.0000
vn -0.8024 -0.5967 -0.0000
vn -0.7270 -0.6866 -0.0000
vn -0.5500 -0.8352 -0.0000
vn -0.4483 -0.8939 -0.0000
vn -0.2311 -0.9729 -0.0000
vn -0.1156 -0.9933 -0.0000
vn 0.1156 -0.9933 -0.0000
vn 0.2311 -0.9729 -0.0000
vn 0.4483 -0.8939 -0.0000
vn 0.5500 -0.8352 -0.0000
vn 0.7270 -0.6866 -0.0000
vn 0.8024 -0.5967 -0.0000
vn 0.9180 -0.3966 -0.0000
vn 0.9581 -0.2863 -0.0000
vn 0.9994 0.0352 -0.0000
vn 1.0000 0.0000 -0.0000
vn 0.9848 0.1736 -0.0000
vn 0.9581 0.2863 -0.0000
vn 0.9397 0.3420 -0.0000
vn 0.8024 0.5967 -0.0000
vn 0.7270 0.6866 -0.0000
vn 0.5500 0.8352 -0.0000
vn 0.4483 0.8939 -0.0000
vn 0.3420 0.9397 -0.0000
vn 0.0000 0.0000 -1.0000
vn -0.0000 0.0000 -1.0000
vn -0.0000 -0.0000 -1.0000
vn 0.9848 -0.1736 -0.0000
vn 0.8660 -0.5000 -0.0000
vn 0.6428 -0.7660 -0.0000
vn 0.3420 -0.9397 -0.0000
vn 0.0000 -1.0000 -0.0000
vn -0.3420 -0.9397 -0.0000
vn -0.6428 -0.7660 -0.0000
vn -0.9581 -0.2863 -0.0000
vn -0.8660 -0.5000 -0.0000
vn -0.9848 -0.1736 -0.0000
vn 0.0000 0.0000 1.0000
vn 0.9983 -0.0587 -0.0000
vn 0.8660 0.5000 -0.0000
vn -0.8660 0.5000 -0.0000
vn -0.6428 0.7660 -0.0000
vn -0.3420 0.9397 -0.0000
vn 0.6428 0.7660 -0.0000
# 57 vertex normals

g Cylinder01
usemtl _eave_tile_Material_0
s 1
f 1//1 2//2 3//3 
f 3//3 4//4 1//1 
f 3//3 5//5 6//6 
f 6//6 4//4 3//3 
f 2//2 1//1 7//7 
f 7//7 8//8 2//2 
f 8//8 7//7 9//9 
f 9//9 10//10 8//8 
f 10//10 9//9 11//11 
f 11//11 12//11 10//10 
f 4//4 6//6 13//12 
f 14//13 13//12 6//6 
f 6//6 15//13 14//13 
f 14//13 15//13 16//14 
f 16//14 17//15 14//13 
f 17//15 16//14 18//16 
f 18//16 19//17 17//15 
f 19//17 18//16 20//18 
f 20//18 21//19 19//17 
f 21//19 20//18 22//20 
f 22//20 23//21 21//19 
f 23//21 22//20 24//22 
f 24//22 25//23 23//21 
f 25//23 24//22 26//24 
f 26//24 27//25 25//23 
f 27//25 26//24 28//26 
f 28//26 29//27 27//25 
f 29//27 28//26 30//28 
f 30//28 31//29 29//27 
f 30//28 32//30 33//31 
f 33//31 34//32 30//28 
f 34//32 31//29 30//28 
f 34//32 33//31 35//33 
f 35//33 36//34 34//32 
f 36//34 35//33 37//35 
f 37//35 38//36 36//34 
f 38//36 37//35 12//37 
f 12//37 11//37 38//36 
f 39//38 40//38 41//38 
f 42//38 39//38 41//38 
f 42//38 41//38 43//38 
f 41//38 44//38 45//38 
f 41//38 45//38 46//38 
f 41//38 46//38 47//38 
f 41//38 47//38 48//38 
f 41//38 48//38 43//38 
f 41//38 30//39 28//39 
f 28//39 44//38 41//38 
f 6//40 43//38 48//38 
f 47//38 49//38 48//38 
f 6//38 48//38 49//38 
f 18//39 49//38 47//38 
f 18//39 6//40 49//38 
f 16//40 15//40 6//40 
f 18//39 16//40 6//40 
f 20//38 18//39 47//38 
f 46//38 22//38 20//38 
f 20//38 50//38 46//38 
f 47//38 50//38 20//38 
f 22//38 51//38 45//38 
f 26//40 24//39 22//38 
f 26//40 22//38 45//38 
f 22//38 46//38 51//38 
f 46//38 50//38 47//38 
f 45//38 51//38 46//38 
f 45//38 44//38 28//39 
f 28//39 26//40 45//38 
f 42//38 52//38 53//38 
f 42//38 53//38 54//38 
f 42//38 54//38 39//38 
f 53//38 55//38 54//38 
f 54//38 56//38 39//38 
f 57//41 58//26 42//41 
f 42//41 43//41 57//41 
f 58//26 59//24 52//42 
f 52//42 42//42 58//26 
f 59//24 60//22 53//43 
f 53//43 52//43 59//24 
f 60//22 61//20 55//44 
f 55//44 53//44 60//22 
f 61//20 62//45 54//45 
f 54//45 55//45 61//20 
f 62//46 63//16 56//46 
f 56//46 54//46 62//46 
f 63//16 64//14 39//47 
f 39//47 56//47 63//16 
f 64//14 65//48 40//49 
f 40//49 39//49 64//14 
f 65//48 66//50 41//50 
f 41//50 40//50 65//48 
f 2//38 58//38 57//38 
f 3//38 2//38 57//38 
f 5//38 3//38 57//38 
f 58//38 2//38 8//38 
f 8//38 59//38 58//38 
f 59//38 8//38 10//38 
f 10//38 60//38 59//38 
f 60//38 10//38 12//38 
f 12//38 61//38 60//38 
f 61//38 12//38 37//38 
f 37//38 62//38 61//38 
f 62//38 37//38 35//38 
f 35//38 63//38 62//38 
f 63//38 35//38 33//38 
f 33//38 64//38 63//38 
f 64//38 33//38 32//38 
f 32//38 65//38 64//38 
f 32//38 66//38 65//38 
f 43//45 6//45 5//45 
f 5//45 57//45 43//45 
f 66//45 32//45 30//45 
f 30//45 41//45 66//45 
f 14//51 67//51 68//51 
f 13//51 14//51 68//51 
f 4//51 13//51 68//51 
f 4//51 68//51 69//51 
f 14//51 17//51 70//51 
f 67//51 14//51 70//51 
f 17//51 19//51 71//51 
f 17//51 71//51 70//51 
f 19//51 21//51 72//51 
f 19//51 72//51 71//51 
f 21//51 23//51 73//51 
f 21//51 73//51 72//51 
f 23//51 25//51 74//51 
f 23//51 74//51 73//51 
f 25//51 27//51 75//51 
f 25//51 75//51 74//51 
f 27//51 29//51 76//51 
f 27//51 76//51 75//51 
f 29//51 31//51 77//51 
f 29//51 77//51 76//51 
f 31//51 34//51 78//51 
f 31//51 78//51 77//51 
f 34//51 36//51 79//51 
f 34//51 79//51 78//51 
f 36//51 38//51 80//51 
f 36//51 80//51 79//51 
f 38//51 11//51 81//51 
f 38//51 81//51 80//51 
f 11//51 9//51 82//51 
f 11//51 82//51 81//51 
f 9//51 7//51 83//51 
f 9//51 83//51 82//51 
f 7//51 1//51 84//51 
f 7//51 84//51 83//51 
f 1//51 4//51 69//51 
f 1//51 69//51 84//51 
f 68//30 67//30 85//32 
f 85//32 86//52 68//30 
f 70//53 87//53 85//32 
f 85//32 67//53 70//53 
f 69//41 68//41 86//52 
f 86//52 88//41 69//41 
f 89//51 88//51 86//51 
f 90//51 89//51 86//51 
f 87//51 90//51 86//51 
f 87//51 86//51 85//51 
f 90//51 91//51 92//51 
f 90//51 92//51 93//51 
f 90//51 93//51 89//51 
f 87//51 94//51 90//51 
f 92//51 95//51 93//51 
f 93//51 96//51 97//51 
f 93//51 97//51 98//51 
f 93//51 98//51 89//51 
f 97//51 99//51 98//51 
f 98//51 100//51 101//51 
f 98//51 101//51 89//51 
f 101//51 102//51 89//51 
f 69//42 88//42 89//42 
f 89//42 84//42 69//42 
f 84//43 89//43 102//43 
f 102//43 83//43 84//43 
f 83//44 102//44 101//44 
f 101//44 82//44 83//44 
f 82//45 101//45 100//45 
f 100//45 81//45 82//45 
f 81//46 100//46 98//46 
f 98//46 80//46 81//46 
f 80//47 98//47 99//47 
f 99//47 79//47 80//47 
f 79//49 99//49 97//49 
f 97//49 78//49 79//49 
f 78//50 97//50 96//50 
f 96//50 77//50 78//50 
f 77//5 96//5 93//5 
f 93//5 76//5 77//5 
f 76//54 93//54 95//54 
f 95//54 75//54 76//54 
f 75//55 95//55 92//55 
f 92//55 74//55 75//55 
f 74//56 92//56 91//56 
f 91//56 73//56 74//56 
f 73//11 91//11 90//11 
f 90//11 72//11 73//11 
f 72//37 90//37 94//37 
f 94//37 71//37 72//37 
f 71//57 94//57 87//57 
f 87//57 70//57 71//57 
# 0 polygons - 200 triangles

