# 3ds Max Wavefront OBJ Exporter v0.97b - (c)2007 guruware
# File Created: 21.02.2017 12:10:02

mtllib flat_tile_left_new.mtl

#
# object Box011
#

v  33.4727 3.1262 30.0133
v  33.4727 11.1262 30.0133
v  33.4727 12.7297 35.0133
v  33.4727 4.7297 35.0133
v  33.4727 1.2895 25.0133
v  33.4727 9.2895 25.0133
v  33.4727 -0.6055 20.0133
v  33.4727 7.3945 20.0133
v  33.4727 -2.3840 15.0133
v  33.4727 5.6160 15.0133
v  33.4727 -3.8708 10.0133
v  33.4727 4.1292 10.0133
v  33.4727 -4.8912 5.0133
v  33.4727 3.1088 5.0133
v  33.4727 -5.2703 0.0133
v  33.4727 2.7297 0.0133
v  33.4727 -4.8912 -4.9867
v  33.4727 3.1088 -4.9867
v  33.4727 -3.8708 -9.9867
v  33.4727 4.1292 -9.9867
v  33.4727 -2.3840 -14.9867
v  33.4727 5.6160 -14.9867
v  33.4727 -0.6055 -19.9867
v  33.4727 7.3945 -19.9867
v  33.4727 1.2895 -24.9867
v  33.4727 9.2895 -24.9867
v  33.4727 3.1262 -29.9867
v  33.4727 11.1262 -29.9867
v  33.4727 4.7297 -34.9867
v  33.4727 12.7297 -34.9867
v  -46.5273 4.7297 -34.9867
v  -46.5273 12.7297 -34.9867
v  -46.5273 12.2426 -34.5520
v  -46.5273 8.2426 -34.5520
v  -43.9198 3.8583 -32.2694
v  -23.3189 5.3924 -14.2346
v  -20.4631 4.6489 -11.7346
v  -16.7360 3.8200 -8.4718
v  -13.8803 3.3098 -5.9718
v  9.1919 -2.6179 14.2264
v  -11.4569 3.0226 -3.8502
v  6.3362 -3.3614 11.7264
v  2.6832 -4.1739 8.5284
v  -0.1726 -4.6841 6.0284
v  -8.6011 -5.1669 -1.3502
v  -11.4569 -4.9774 -3.8502
v  -8.6011 2.8331 -1.3502
v  -5.6937 2.8193 1.1950
v  -2.8380 3.0088 3.6950
v  -0.1726 3.3159 6.0284
v  2.6832 3.8261 8.5284
v  12.2672 -1.7063 16.9186
v  6.3362 4.6386 11.7264
v  15.1229 -0.8170 19.4186
v  18.1982 0.1895 22.1108
v  9.1919 5.3820 14.2264
v  12.2672 6.2937 16.9186
v  21.0539 1.1370 24.6108
v  21.9121 1.4177 25.3621
v  24.7679 2.3360 27.8621
v  15.1229 7.1830 19.4186
v  30.0620 3.9227 32.4968
v  32.9195 4.7249 34.9983
v  32.9366 4.7566 35.0133
v  18.1982 8.1895 22.1108
v  21.0539 9.1370 24.6108
v  21.9121 9.4177 25.3621
v  24.7679 10.3360 27.8621
v  30.0603 11.9222 32.4952
v  32.9366 8.7465 35.0133
v  32.9366 12.7297 35.0133
v  -13.8803 -4.6902 -5.9718
v  -16.7360 -4.1800 -8.4718
v  -38.8207 2.3250 -27.8054
v  -20.4632 -3.3511 -11.7346
v  -35.9650 1.4066 -25.3054
v  -35.1809 1.1502 -24.6190
v  -23.3189 -2.6076 -14.2346
v  -32.3205 0.2280 -22.1150
v  -27.7772 -1.2563 -18.1375
v  -24.9226 -2.1521 -15.6386
v  -5.6937 -5.1807 1.1950
v  -2.8380 -4.9912 3.6950
v  -38.8427 10.3320 -27.8247
v  -43.9198 11.8583 -32.2694
v  -36.3510 9.5307 -25.6433
v  -35.9650 9.4066 -25.3054
v  -35.1809 9.1501 -24.6190
v  -32.3251 8.2026 -22.1190
v  -27.7784 6.7371 -18.1386
v  -24.9226 5.8479 -15.6386
# 91 vertices

vn 1.0000 0.0000 -0.0000
vn 1.0000 0.0000 0.0000
vn 0.0000 0.0000 -1.0000
vn -1.0000 0.0000 -0.0000
vn -0.7323 -0.0836 0.6758
vn -0.6744 -0.0167 0.7382
vn -0.6653 -0.0070 0.7466
vn -0.6587 -0.0000 0.7524
vn -0.6587 0.0000 0.7524
vn -0.6587 0.0001 0.7524
vn 0.0000 0.0000 1.0000
vn -0.0071 -0.1425 0.9898
vn -0.0107 -0.2144 0.9767
vn -0.0209 -0.4188 0.9078
vn -0.0027 0.9467 -0.3220
vn -0.0027 0.9422 -0.3351
vn -0.0027 0.9511 -0.3088
vn 0.0000 0.9522 -0.3054
vn -0.0000 0.9369 -0.3497
vn -0.0001 0.9378 -0.3473
vn -0.0001 0.9360 -0.3521
vn 0.0002 0.9356 -0.3532
vn 0.0001 0.9390 -0.3439
vn 0.0003 0.9394 -0.3430
vn 0.0004 0.9437 -0.3308
vn 0.0003 0.9517 -0.3069
vn 0.0007 0.9528 -0.3036
vn 0.0008 0.9620 -0.2730
vn 0.0008 0.9696 -0.2448
vn 0.0008 0.9763 -0.2163
vn 0.0005 0.9883 -0.1523
vn 0.0010 0.9860 -0.1665
vn 0.0007 0.9955 -0.0947
vn 0.0005 1.0000 0.0005
vn 0.0012 0.9993 -0.0365
vn 0.0012 0.9992 0.0392
vn 0.0005 0.9955 0.0946
vn 0.0005 0.9907 0.1362
vn 0.0005 0.9841 0.1776
vn 0.0003 0.9700 0.2431
vn 0.0007 0.9750 0.2224
vn 0.0007 0.9643 0.2649
vn 0.0001 0.9562 0.2928
vn 0.0001 0.9509 0.3095
vn 0.0001 0.9453 0.3262
vn 0.0001 0.9387 0.3449
vn 0.0002 0.9404 0.3401
vn 0.0002 0.9368 0.3498
vn -0.0000 0.9356 0.3529
vn -0.0000 0.9368 0.3497
vn -0.0000 0.9380 0.3465
vn -0.0043 0.9272 0.3746
vn 0.0000 0.9387 0.3448
vn 0.0046 0.9870 0.1609
vn 0.0020 0.9698 0.2441
vn -0.0172 0.8384 0.5448
vn -0.0333 0.6654 0.7457
vn 0.0000 0.9522 0.3054
vn -0.0003 0.9422 0.3351
vn 0.0000 -0.9522 0.3054
vn 0.0088 -0.9451 0.3266
vn 0.0106 -0.9478 0.3186
vn 0.0053 -0.9387 0.3447
vn -0.0028 -0.9414 0.3372
vn 0.0001 -0.9378 0.3473
vn 0.0001 -0.9357 0.3529
vn -0.0001 -0.9372 0.3487
vn -0.0003 -0.9358 0.3526
vn -0.0002 -0.9403 0.3403
vn -0.0003 -0.9476 0.3194
vn -0.0007 -0.9445 0.3286
vn -0.0004 -0.9547 0.2974
vn -0.0019 -0.9664 0.2569
vn -0.0003 -0.9702 0.2421
vn -0.0012 -0.9838 0.1795
vn 0.0025 -0.9754 0.2205
vn 0.0004 -0.9910 0.1336
vn -0.0002 -0.9992 0.0396
vn 0.0025 -0.9950 0.1002
vn -0.0012 -0.9993 0.0365
vn -0.0008 -0.9987 -0.0513
vn -0.0011 -0.9931 -0.1172
vn 0.0007 -0.9903 -0.1387
vn 0.0001 -0.9768 -0.2142
vn 0.0026 -0.9854 -0.1701
vn -0.0007 -0.9750 -0.2224
vn -0.0005 -0.9624 -0.2717
vn -0.0002 -0.9534 -0.3018
vn 0.0004 -0.9506 -0.3104
vn 0.0000 -0.9414 -0.3374
vn 0.0009 -0.9460 -0.3240
vn -0.0004 -0.9393 -0.3432
vn -0.0003 -0.9369 -0.3497
vn -0.0001 -0.9374 -0.3483
vn -0.0001 -0.9380 -0.3467
vn 0.0001 -0.9442 -0.3293
vn -0.0002 -0.9378 -0.3472
vn 0.0003 -0.9421 -0.3352
vn 0.0003 -0.9489 -0.3155
vn 0.0000 -0.9522 -0.3054
vn 0.6587 0.0001 -0.7524
vn 0.6587 -0.0000 -0.7524
# 102 vertex normals

g Box011
usemtl _flat_tile_left_end_centerMaterial
s 1
f 1//1 2//1 3//2 
f 4//2 1//1 3//2 
f 1//1 5//1 2//1 
f 5//1 6//1 2//1 
f 5//1 7//1 6//1 
f 7//1 8//1 6//1 
f 7//1 9//2 8//1 
f 9//2 10//2 8//1 
f 9//2 11//2 10//2 
f 11//2 12//1 10//2 
f 11//2 13//1 12//1 
f 13//1 14//1 12//1 
f 13//1 15//1 14//1 
f 15//1 16//1 14//1 
f 15//1 17//1 16//1 
f 17//1 18//1 16//1 
f 17//1 19//1 18//1 
f 19//1 20//1 18//1 
f 19//1 21//2 20//1 
f 21//2 22//1 20//1 
f 21//2 23//1 22//1 
f 23//1 24//2 22//1 
f 23//1 25//2 24//2 
f 25//2 26//1 24//2 
f 25//2 27//1 26//1 
f 27//1 28//1 26//1 
f 27//1 29//1 28//1 
f 29//1 30//1 28//1 
f 31//3 32//3 30//3 
f 29//3 31//3 30//3 
f 33//4 32//4 34//4 
f 34//4 32//4 31//4 
f 31//5 35//6 34//7 
f 36//8 33//9 34//7 
f 37//9 36//8 34//7 
f 38//9 37//9 34//7 
f 39//8 38//9 34//7 
f 40//9 41//9 34//7 
f 42//9 40//9 34//7 
f 43//9 42//9 34//7 
f 44//8 43//9 34//7 
f 45//8 44//8 34//7 
f 46//9 45//8 34//7 
f 46//9 34//7 35//6 
f 47//8 41//9 40//9 
f 40//9 48//8 47//8 
f 49//9 48//8 40//9 
f 50//9 49//9 40//9 
f 51//9 50//9 52//9 
f 50//9 40//9 52//9 
f 53//9 51//9 52//9 
f 53//9 52//9 54//9 
f 53//9 54//9 55//9 
f 56//9 53//9 55//9 
f 57//9 56//9 55//9 
f 57//9 55//9 58//9 
f 57//9 58//9 59//9 
f 57//9 59//9 60//9 
f 61//8 57//9 60//9 
f 61//8 60//9 62//9 
f 61//8 62//9 63//8 
f 61//8 63//8 64//8 
f 65//9 61//8 64//8 
f 66//9 65//9 64//8 
f 67//9 66//9 64//8 
f 68//9 67//9 64//8 
f 69//9 68//9 64//8 
f 69//9 64//8 70//9 
f 71//9 69//9 70//9 
f 72//9 46//9 35//6 
f 73//9 72//9 35//6 
f 73//9 35//6 74//9 
f 75//9 73//9 74//9 
f 75//9 74//9 76//10 
f 77//9 78//8 75//9 
f 77//9 75//9 76//10 
f 77//9 79//8 78//8 
f 80//8 81//8 78//8 
f 79//8 80//8 78//8 
f 45//8 82//8 44//8 
f 82//8 83//8 44//8 
f 84//8 85//9 33//9 
f 86//9 84//8 33//9 
f 87//10 86//9 33//9 
f 88//9 87//10 33//9 
f 89//8 88//9 33//9 
f 90//9 89//8 33//9 
f 91//8 90//9 33//9 
f 3//11 71//11 70//11 
f 70//11 4//12 3//11 
f 64//13 4//12 70//11 
f 4//12 64//13 63//14 
f 2//15 68//16 69//17 
f 69//17 3//18 2//15 
f 71//18 3//18 69//17 
f 68//16 2//15 6//19 
f 6//19 67//20 68//16 
f 66//21 6//19 65//22 
f 65//22 6//19 8//23 
f 67//20 6//19 66//21 
f 8//23 61//24 65//22 
f 57//25 8//23 10//26 
f 61//24 8//23 57//25 
f 10//26 56//27 57//25 
f 53//28 10//26 12//29 
f 56//27 10//26 53//28 
f 12//29 51//30 53//28 
f 51//30 12//29 14//31 
f 14//31 50//32 51//30 
f 49//33 14//31 16//34 
f 50//32 14//31 49//33 
f 16//34 48//35 49//33 
f 47//36 16//34 41//37 
f 41//37 16//34 18//38 
f 48//35 16//34 47//36 
f 18//38 39//39 41//37 
f 39//39 18//38 20//40 
f 20//40 38//41 39//39 
f 37//42 20//40 36//43 
f 36//43 20//40 22//44 
f 38//41 20//40 37//42 
f 22//44 91//45 36//43 
f 91//45 22//44 24//46 
f 24//46 90//47 91//45 
f 89//48 24//46 88//49 
f 88//49 24//46 26//50 
f 90//47 24//46 89//48 
f 26//50 87//51 88//49 
f 87//51 26//50 28//52 
f 28//52 86//53 87//51 
f 33//54 85//55 28//52 
f 28//52 32//56 33//57 
f 32//56 28//52 30//58 
f 28//52 85//55 84//59 
f 84//59 86//53 28//52 
f 63//60 62//61 1//62 
f 1//62 4//60 63//60 
f 5//63 1//62 62//61 
f 62//61 60//64 5//63 
f 5//63 60//64 59//65 
f 5//63 59//65 58//66 
f 7//67 5//63 58//66 
f 58//66 55//68 7//67 
f 7//67 55//68 54//69 
f 9//70 7//67 54//69 
f 54//69 52//71 9//70 
f 9//70 52//71 40//72 
f 11//73 9//70 40//72 
f 40//72 42//74 11//73 
f 13//75 11//73 42//74 
f 42//74 43//76 13//75 
f 13//75 43//76 44//77 
f 15//78 13//75 44//77 
f 44//77 83//79 15//78 
f 15//78 83//79 82//80 
f 15//78 82//80 45//81 
f 17//82 15//78 45//81 
f 45//81 46//83 17//82 
f 19//84 17//82 46//83 
f 46//83 72//85 19//84 
f 19//84 72//85 73//86 
f 19//84 73//86 75//87 
f 21//88 19//84 75//87 
f 75//87 78//89 21//88 
f 23//90 21//88 78//89 
f 78//89 81//91 23//90 
f 23//90 81//91 80//92 
f 23//90 80//92 79//93 
f 25//94 23//90 79//93 
f 79//93 77//95 25//94 
f 27//96 25//94 77//95 
f 77//95 76//97 27//96 
f 27//96 76//97 74//98 
f 35//99 31//100 27//96 
f 27//96 74//98 35//99 
f 27//96 31//100 29//100 
f 36//101 91//101 33//101 
f 41//102 39//102 34//102 
# 0 polygons - 178 triangles

