# 3ds Max Wavefront OBJ Exporter v0.97b - (c)2007 guruware
# File Created: 21.02.2017 12:11:42

mtllib flat_tile_right_new.mtl

#
# object Box001
#

v  40.1099 3.2298 30.0000
v  40.1099 11.2298 30.0000
v  40.1099 12.8333 35.0000
v  40.1099 4.8333 35.0000
v  40.1099 1.3931 25.0000
v  40.1099 9.3931 25.0000
v  40.1099 -0.5019 20.0000
v  40.1099 7.4981 20.0000
v  40.1099 -2.2804 15.0000
v  40.1099 5.7196 15.0000
v  40.1099 -3.7673 10.0000
v  40.1099 4.2327 10.0000
v  40.1099 -4.7877 5.0000
v  40.1099 3.2123 5.0000
v  40.1099 -5.1667 -0.0000
v  40.1099 2.8333 -0.0000
v  40.1099 -4.7877 -5.0000
v  40.1099 3.2123 -5.0000
v  40.1099 -3.7672 -10.0000
v  40.1099 4.2328 -10.0000
v  40.1099 -2.2804 -15.0000
v  40.1099 5.7196 -15.0000
v  40.1099 -0.5019 -20.0000
v  40.1099 7.4981 -20.0000
v  40.1099 1.3931 -25.0000
v  40.1099 9.3931 -25.0000
v  40.1099 3.2298 -30.0000
v  40.1099 11.2298 -30.0000
v  40.1099 5.0786 -34.8083
v  40.1099 4.7719 -34.8083
v  40.1099 12.7719 -34.8083
v  -39.8901 12.8333 35.0000
v  -39.8901 12.6823 34.5290
v  -39.8901 5.4359 34.5290
v  -39.8901 4.8333 35.0000
v  -39.8901 4.6823 34.5290
v  -35.0162 11.3275 30.3046
v  -34.6647 11.2298 30.0000
v  -34.2586 11.1005 29.6480
v  -28.8958 9.3931 25.0000
v  -24.2544 7.8684 20.9772
v  -23.1269 7.4981 20.0000
v  -17.3580 5.7196 15.0000
v  -18.8735 6.1868 16.3135
v  -11.5891 4.2327 10.0000
v  -13.4926 4.7234 11.6498
v  -9.3896 3.8437 8.0937
v  -3.1724 3.0384 2.7051
v  -5.8202 3.2123 5.0000
v  -0.0513 2.8333 -0.0000
v  2.6500 3.0108 -2.3412
v  5.7177 3.2123 -5.0000
v  9.2621 3.8393 -8.0720
v  11.4866 4.2327 -10.0000
v  13.4118 4.7290 -11.6686
v  17.2555 5.7196 -15.0000
v  21.6966 7.0887 -18.8492
v  23.0243 7.4983 -20.0000
v  24.1736 7.8756 -20.9960
v  28.7933 9.3931 -25.0000
v  34.1311 11.0926 -29.6263
v  34.5635 11.2221 -30.0011
v  34.9365 11.3263 -30.3244
v  -35.0162 3.3275 30.3046
v  -34.6647 3.2298 30.0000
v  -34.2586 3.1005 29.6480
v  -28.8958 1.3931 25.0000
v  -24.2544 -0.1316 20.9772
v  -23.1269 -0.5019 20.0000
v  -18.8735 -1.8132 16.3135
v  -17.3580 -2.2804 15.0000
v  -13.4926 -3.2766 11.6498
v  -11.5891 -3.7673 10.0000
v  -9.3896 -4.1563 8.0937
v  -5.8202 -4.7877 5.0000
v  -3.1724 -4.9616 2.7051
v  -0.0512 -5.1667 -0.0000
v  2.6500 -4.9892 -2.3412
v  5.7177 -4.7877 -5.0000
v  9.2621 -4.1607 -8.0720
v  11.4866 -3.7672 -10.0000
v  13.4118 -3.2710 -11.6686
v  17.2555 -2.2804 -15.0000
v  21.6964 -0.9107 -18.8491
v  23.0242 -0.5011 -19.9999
v  24.1736 -0.1244 -20.9960
v  28.7933 1.3931 -25.0000
v  34.1311 3.0926 -29.6263
v  34.5622 3.2298 -30.0000
v  34.9353 3.3336 -30.3234
# 90 vertices

vn 1.0000 0.0000 -0.0000
vn 1.0000 0.0000 0.0000
vn 1.0000 -0.0000 0.0000
vn -1.0000 0.0000 -0.0000
vn 0.0000 0.0000 1.0000
vn 0.0000 -0.0000 1.0000
vn 0.0000 0.9522 -0.3054
vn 0.0000 0.9479 -0.3186
vn 0.0000 0.9434 -0.3317
vn 0.0000 0.9373 -0.3487
vn 0.0000 0.9387 -0.3448
vn 0.0000 0.9369 -0.3496
vn 0.0000 0.9351 -0.3544
vn 0.0000 0.9394 -0.3429
vn 0.0000 0.9547 -0.2976
vn 0.0000 0.9479 -0.3185
vn 0.0000 0.9422 -0.3351
vn 0.0000 0.9701 -0.2427
vn 0.0000 0.9585 -0.2850
vn 0.0000 0.9886 -0.1505
vn 0.0000 0.9798 -0.2000
vn 0.0000 1.0000 -0.0000
vn 0.0000 0.9971 -0.0756
vn 0.0000 0.9904 -0.1380
vn 0.0000 0.9971 0.0756
vn 0.0000 0.9931 0.1172
vn 0.0000 0.9873 0.1588
vn 0.0000 0.9722 0.2342
vn 0.0000 0.9798 0.2000
vn 0.0000 0.9701 0.2427
vn 0.0000 0.9585 0.2850
vn 0.0000 0.9534 0.3018
vn 0.0000 0.9479 0.3185
vn 0.0000 0.9394 0.3429
vn 0.0000 0.9421 0.3352
vn 0.0000 0.9387 0.3448
vn 0.0000 0.9351 0.3543
vn 0.0000 0.9363 0.3512
vn 0.0000 0.9375 0.3480
vn -0.0008 0.9456 0.3252
vn -0.0007 0.9422 0.3351
vn -0.0014 0.9490 0.3153
vn -0.0014 0.9522 0.3054
vn 0.0000 -0.9522 0.3054
vn 0.0000 -0.9457 0.3252
vn 0.0000 -0.9387 0.3448
vn 0.0000 -0.9373 0.3487
vn 0.0000 -0.9369 0.3496
vn 0.0000 -0.9351 0.3544
vn 0.0000 -0.9422 0.3351
vn 0.0000 -0.9507 0.3102
vn 0.0000 -0.9585 0.2850
vn 0.0000 -0.9701 0.2427
vn 0.0000 -0.9798 0.2000
vn 0.0000 -0.9873 0.1588
vn 0.0000 -0.9931 0.1172
vn 0.0000 -0.9999 0.0152
vn 0.0000 -0.9971 0.0756
vn 0.0000 -1.0000 -0.0000
vn 0.0000 -0.9971 -0.0756
vn 0.0000 -0.9904 -0.1380
vn 0.0000 -0.9798 -0.2000
vn 0.0000 -0.9701 -0.2427
vn 0.0000 -0.9585 -0.2850
vn -0.0000 -0.9507 -0.3102
vn 0.0000 -0.9507 -0.3103
vn -0.0000 -0.9421 -0.3352
vn -0.0000 -0.9387 -0.3447
vn -0.0000 -0.9388 -0.3445
vn -0.0000 -0.9352 -0.3542
vn 0.0000 -0.9369 -0.3496
vn 0.0000 -0.9387 -0.3448
vn 0.0000 -0.9457 -0.3252
vn 0.0000 -0.9522 -0.3054
vn -0.6550 -0.0000 -0.7557
vn -0.6550 0.0000 -0.7557
vn -0.6549 -0.0001 -0.7557
vn -0.6549 -0.0000 -0.7557
vn -0.6550 0.0002 -0.7556
vn -0.6550 0.0003 -0.7556
vn -0.6550 0.0001 -0.7556
# 81 vertex normals

g Box001
usemtl _flat_tile_right_end_centerMaterial
s 1
f 1//1 2//1 3//2 
f 4//2 1//1 3//2 
f 1//1 5//1 2//1 
f 5//1 6//2 2//1 
f 5//1 7//1 6//2 
f 7//1 8//1 6//2 
f 7//1 9//2 8//1 
f 9//2 10//2 8//1 
f 9//2 11//2 10//2 
f 11//2 12//1 10//2 
f 11//2 13//1 12//1 
f 13//1 14//1 12//1 
f 13//1 15//1 14//1 
f 15//1 16//3 14//1 
f 15//1 17//3 16//3 
f 17//3 18//1 16//3 
f 17//3 19//1 18//1 
f 19//1 20//1 18//1 
f 19//1 21//2 20//1 
f 21//2 22//1 20//1 
f 21//2 23//1 22//1 
f 23//1 24//2 22//1 
f 23//1 25//2 24//2 
f 25//2 26//1 24//2 
f 25//2 27//1 26//1 
f 27//1 28//1 26//1 
f 29//1 28//1 27//1 
f 27//1 30//2 29//1 
f 31//1 28//1 29//1 
f 32//4 33//4 34//4 
f 34//4 35//4 32//4 
f 36//4 35//4 34//4 
f 4//5 3//5 32//5 
f 35//6 4//5 32//5 
f 33//7 32//7 3//7 
f 3//7 37//7 33//7 
f 37//7 3//7 2//8 
f 2//8 38//9 37//7 
f 38//9 2//8 6//10 
f 6//10 39//11 38//9 
f 40//12 6//10 41//13 
f 41//13 6//10 8//14 
f 39//11 6//10 40//12 
f 8//14 42//11 41//13 
f 8//14 10//15 43//16 
f 43//16 44//17 8//14 
f 42//11 8//14 44//17 
f 10//15 12//18 45//18 
f 45//18 46//19 10//15 
f 43//16 10//15 46//19 
f 45//18 12//18 14//20 
f 14//20 47//21 45//18 
f 14//20 16//22 48//23 
f 48//23 49//24 14//20 
f 47//21 14//20 49//24 
f 50//22 16//22 51//25 
f 51//25 16//22 18//26 
f 48//23 16//22 50//22 
f 18//26 52//27 51//25 
f 52//27 18//26 20//28 
f 20//28 53//29 52//27 
f 54//30 20//28 55//31 
f 55//31 20//28 22//32 
f 53//29 20//28 54//30 
f 22//32 56//33 55//31 
f 56//33 22//32 24//34 
f 24//34 57//35 56//33 
f 58//36 24//34 59//37 
f 59//37 24//34 26//38 
f 57//35 24//34 58//36 
f 26//38 60//39 59//37 
f 60//39 26//38 28//40 
f 28//40 61//41 60//39 
f 62//42 28//40 63//43 
f 61//41 28//40 62//42 
f 63//43 28//40 31//43 
f 36//44 64//44 4//44 
f 4//44 35//44 36//44 
f 4//44 64//44 65//45 
f 65//45 1//45 4//44 
f 65//45 66//46 5//47 
f 5//47 1//45 65//45 
f 5//47 66//46 67//48 
f 5//47 67//48 68//49 
f 7//46 5//47 68//49 
f 68//49 69//46 7//46 
f 7//46 69//46 70//50 
f 9//51 7//46 70//50 
f 70//50 71//51 9//51 
f 9//51 71//51 72//52 
f 11//53 9//51 72//52 
f 72//52 73//53 11//53 
f 11//53 73//53 74//54 
f 74//54 13//55 11//53 
f 13//55 74//54 75//56 
f 15//57 13//55 75//56 
f 75//56 76//58 15//57 
f 15//57 76//58 77//59 
f 15//57 77//59 78//60 
f 17//61 15//57 78//60 
f 78//60 79//61 17//61 
f 17//61 79//61 80//62 
f 80//62 19//63 17//61 
f 19//63 80//62 81//63 
f 19//63 81//63 82//64 
f 21//65 19//63 82//64 
f 82//64 83//66 21//65 
f 21//65 83//66 84//67 
f 84//67 23//68 21//65 
f 23//68 84//67 85//69 
f 23//68 85//69 86//70 
f 25//71 23//68 86//70 
f 86//70 87//71 25//71 
f 25//71 87//71 88//72 
f 88//72 27//73 25//71 
f 27//73 88//72 89//73 
f 27//73 89//73 90//74 
f 30//74 27//73 90//74 
f 47//75 49//75 69//76 
f 45//76 47//75 69//76 
f 45//76 69//76 68//76 
f 49//75 70//75 69//76 
f 49//75 48//75 70//75 
f 70//75 50//75 29//76 
f 71//76 70//75 29//76 
f 48//75 50//75 70//75 
f 50//75 51//76 29//76 
f 51//76 52//76 29//76 
f 52//76 53//75 29//76 
f 53//75 54//76 29//76 
f 54//76 55//75 29//76 
f 55//75 56//76 29//76 
f 56//76 57//75 29//76 
f 57//75 58//77 29//76 
f 58//77 59//77 31//78 
f 58//77 31//78 29//76 
f 59//77 60//76 31//78 
f 60//76 63//78 31//78 
f 60//76 61//79 62//76 
f 60//76 62//76 63//78 
f 72//75 71//76 29//76 
f 29//76 89//80 88//81 
f 72//75 29//76 88//81 
f 29//76 30//75 90//78 
f 90//78 89//80 29//76 
f 80//75 73//76 72//75 
f 80//75 72//75 88//81 
f 81//76 80//75 88//81 
f 81//76 88//81 87//76 
f 80//75 79//75 73//76 
f 78//76 74//76 73//76 
f 79//75 78//76 73//76 
f 78//76 77//76 74//76 
f 76//76 75//76 74//76 
f 77//76 76//76 74//76 
f 81//76 87//76 86//75 
f 82//78 81//76 86//75 
f 82//78 86//75 85//77 
f 82//78 85//77 84//77 
f 83//76 82//78 84//77 
f 46//76 45//76 68//76 
f 46//76 68//76 67//75 
f 46//76 67//75 66//75 
f 46//76 66//75 65//76 
f 46//76 65//76 64//76 
f 46//76 64//76 34//75 
f 43//75 46//76 34//75 
f 64//76 36//76 34//75 
f 44//75 43//75 34//75 
f 42//76 44//75 34//75 
f 41//76 42//76 34//75 
f 40//76 41//76 34//75 
f 39//75 40//76 34//75 
f 38//75 39//75 34//75 
f 37//76 38//75 34//75 
f 33//76 37//76 34//75 
# 0 polygons - 176 triangles

